<svg xmlns="http://www.w3.org/2000/svg" width="354" height="295" viewBox="0 0 354 295">
<g shape-rendering="geometricPrecision">
<path d="M 298.8 77.4 C 294.8 71.27, 286.8 62.9, 280.4 58 C 274 53.1, 266.73 50.33, 260.4 48 C 254.07 45.67, 248.4 47.33, 242.4 44 C 236.4 40.67, 229.07 31.5, 224.4 28 C 219.73 24.5, 219.23 24.33, 214.4 23 C 209.57 21.67, 201.23 20.33, 195.4 20 C 189.57 19.67, 186.4 18.67, 179.4 21 C 172.4 23.33, 159.47 29.93, 153.4 34 C 147.33 38.07, 148.07 34.67, 143 45.4 C 137.93 56.13, 138.3 67.2, 123 98.4 C 107.7 129.6, 60.3 210.7, 51.2 232.6 C 47.11 242.46, 67.07 229.74, 68.4 229.8 C 69.74 229.86, 70.91 230.2, 69 233.4 C 64.77 240.5, 41.27 265.83, 43 272.4 C 43.78 275.35, 74.72 276.07, 79.4 272.8 C 86.68 267.71, 99.57 233.93, 105.4 228.8 C 111.23 223.67, 126.74 228.01, 129.4 228.8 C 131.11 229.31, 126.5 233.23, 128.2 235.6 C 130.84 239.29, 149.29 257.2, 152 260.4 C 154.71 263.6, 152.17 262.7, 151.4 263 C 150.9 263.2, 146.18 262.75, 145.4 263 C 143.67 263.57, 142 264.6, 141 266.4 C 140 268.2, 126.67 272.4, 139.4 273.8 C 145.13 274.43, 211.44 275.05, 217.4 274.8 C 223.35 274.54, 219.25 271.36, 218.8 270.4 C 218.1 268.91, 214.25 262.98, 211.4 262 C 208.55 261.02, 198.79 264.87, 194.4 262 C 190.01 259.13, 174.69 242.95, 173.8 237.4 C 172.91 231.85, 182.25 219.65, 186.8 214.4 C 193.3 206.9, 206.13 199.9, 212.8 192.4 C 219.47 184.9, 223.63 176.57, 226.8 169.4 C 229.97 162.23, 231.3 158.73, 231.8 149.4 C 232.3 140.07, 230.97 121.73, 229.8 113.4 C 228.63 105.07, 224.37 103.33, 224.8 99.4 C 225.1 96.65, 224.51 90.92, 232.4 89.8 C 240.29 88.68, 284 89.22, 292.4 89.8 C 304.4 90.63, 303.33 96.87, 304.4 94.8 C 304.88 93.87, 300.6 80.16, 298.8 77.4 Z" fill="#ffffff" stroke="#ffffff" stroke-width="12" stroke-linejoin="round" stroke-linecap="round"/>
<path d="M 298.8 77.4 C 294.8 71.27, 286.8 62.9, 280.4 58 C 274 53.1, 266.73 50.33, 260.4 48 C 254.07 45.67, 248.4 47.33, 242.4 44 C 236.4 40.67, 229.07 31.5, 224.4 28 C 219.73 24.5, 219.23 24.33, 214.4 23 C 209.57 21.67, 201.23 20.33, 195.4 20 C 189.57 19.67, 186.4 18.67, 179.4 21 C 172.4 23.33, 159.47 29.93, 153.4 34 C 147.33 38.07, 148.07 34.67, 143 45.4 C 137.93 56.13, 138.3 67.2, 123 98.4 C 107.7 129.6, 60.3 210.7, 51.2 232.6 C 47.11 242.46, 67.07 229.74, 68.4 229.8 C 69.74 229.86, 70.91 230.2, 69 233.4 C 64.77 240.5, 41.27 265.83, 43 272.4 C 43.78 275.35, 74.72 276.07, 79.4 272.8 C 86.68 267.71, 99.57 233.93, 105.4 228.8 C 111.23 223.67, 126.74 228.01, 129.4 228.8 C 131.11 229.31, 126.5 233.23, 128.2 235.6 C 130.84 239.29, 149.29 257.2, 152 260.4 C 154.71 263.6, 152.17 262.7, 151.4 263 C 150.9 263.2, 146.18 262.75, 145.4 263 C 143.67 263.57, 142 264.6, 141 266.4 C 140 268.2, 126.67 272.4, 139.4 273.8 C 145.13 274.43, 211.44 275.05, 217.4 274.8 C 223.35 274.54, 219.25 271.36, 218.8 270.4 C 218.1 268.91, 214.25 262.98, 211.4 262 C 208.55 261.02, 198.79 264.87, 194.4 262 C 190.01 259.13, 174.69 242.95, 173.8 237.4 C 172.91 231.85, 182.25 219.65, 186.8 214.4 C 193.3 206.9, 206.13 199.9, 212.8 192.4 C 219.47 184.9, 223.63 176.57, 226.8 169.4 C 229.97 162.23, 231.3 158.73, 231.8 149.4 C 232.3 140.07, 230.97 121.73, 229.8 113.4 C 228.63 105.07, 224.37 103.33, 224.8 99.4 C 225.1 96.65, 224.51 90.92, 232.4 89.8 C 240.29 88.68, 284 89.22, 292.4 89.8 C 304.4 90.63, 303.33 96.87, 304.4 94.8 C 304.88 93.87, 300.6 80.16, 298.8 77.4 Z" fill="#000000" />
<path d="M 163.85 120.96 L 160.33 118.83 L 156.63 116.81 L 152.88 114.84 L 149.16 113.03 L 145.33 112.44 L 141.50 112.02 L 137.64 111.64 L 133.81 111.36 L 130.25 112.00 L 126.74 112.73 L 123.24 113.45 L 119.81 114.38 L 116.64 116.30 L 113.48 118.33 L 110.39 120.35 L 107.52 122.59 L 105.92 126.37 L 104.67 130.45 L 103.86 133.71 L 106.27 131.68 L 109.31 128.93 L 112.36 126.19 L 115.38 123.69 L 118.42 122.29 L 121.52 121.16 L 124.68 120.04 L 127.92 119.01 L 131.83 118.84 L 135.88 118.81 L 139.97 118.85 L 143.84 120.19 L 147.70 121.78 L 150.72 124.19 L 153.61 126.72 L 156.49 129.32 L 159.37 131.88 L 162.07 134.61 L 163.66 138.33 L 165.02 142.13 L 166.48 145.98 L 167.70 149.76 L 167.51 153.24 L 167.06 156.64 L 166.53 160.11 L 164.97 163.38 L 163.20 166.66 L 161.51 169.92 L 159.83 173.20 L 158.03 176.46 L 156.36 179.74 L 154.56 182.85 L 151.78 185.41 L 148.97 187.84 L 146.10 190.36 L 143.25 192.89 L 140.42 195.28 L 137.19 196.93 L 134.01 198.46 L 130.76 199.95 L 127.45 201.44 L 124.26 203.06 L 121.01 204.60 L 117.72 206.16 L 114.43 207.64 L 110.75 208.53 L 107.14 209.27 L 103.42 210.07 L 99.72 210.73 L 96.09 211.45 L 92.43 212.26 L 88.76 212.99 L 85.07 213.67 L 81.31 214.41 L 77.67 215.28 L 73.94 216.90 L 70.27 218.57 L 67.55 219.99 L 70.52 219.68 L 74.40 219.09 L 78.22 218.50 L 82.01 218.01 L 85.87 217.45 L 89.75 217.00 L 93.55 216.46 L 97.43 216.01 L 101.28 215.50 L 105.14 214.93 L 108.95 214.28 L 112.78 213.36 L 116.56 212.39 L 120.45 211.48 L 124.22 210.52 L 128.04 209.56 L 131.86 208.47 L 135.10 206.55 L 138.27 204.45 L 141.46 202.39 L 144.56 200.29 L 147.68 198.24 L 150.83 196.10 L 153.91 193.95 L 157.08 191.84 L 160.23 189.81 L 163.31 187.58 L 165.75 184.25 L 168.06 180.78 L 170.43 177.30 L 172.65 173.72 L 173.91 170.02 L 175.13 166.30 L 176.25 162.61 L 177.28 158.90 L 178.26 155.26 L 177.91 151.78 L 177.45 148.31 L 176.95 144.84 L 176.51 141.47 L 175.79 138.11 L 173.98 135.19 L 172.01 132.39 L 169.93 129.62 L 167.91 126.80 L 165.91 123.89 Z" fill="#ffffff" fill-rule="evenodd"/>
<path d="M 214.3 147.1 L 213.6 148.3 L 213.4 149.7 L 213.4 151.4 L 213.6 153.1 L 213.8 155.0 L 214.0 156.9 L 214.2 158.7 L 214.3 160.4 L 214.2 161.9 L 214.0 163.4 L 213.7 164.9 L 213.5 166.4 L 213.3 167.9 L 213.0 169.4 L 212.6 170.8 L 212.1 172.2 L 211.5 173.5 L 210.8 174.7 L 210.1 175.8 L 209.4 177.0 L 208.8 178.4 L 208.2 179.9 L 207.6 181.4 L 207.0 182.8 L 206.5 184.2 L 206.1 185.3 L 206.4 186.6 L 207.6 187.4 L 208.7 187.1 L 209.7 186.5 L 210.8 185.6 L 212.0 184.5 L 213.1 183.3 L 214.1 181.8 L 215.2 180.3 L 216.1 178.8 L 216.9 177.2 L 217.6 175.7 L 218.2 174.1 L 218.7 172.5 L 219.1 170.8 L 219.4 169.1 L 219.6 167.3 L 219.8 165.6 L 220.1 163.9 L 220.3 162.1 L 220.4 160.2 L 220.3 158.1 L 220.0 156.1 L 219.5 154.1 L 218.8 152.2 L 218.1 150.5 L 217.4 149.0 L 216.7 147.7 L 215.7 146.9 Z" fill="#ffffff" fill-rule="evenodd"/>
<path d="M 204.38 24.13 C 203.05 23.79, 199.57 21.38, 196.41 23.10 C 193.26 24.82, 188.11 31.01, 185.45 34.45 C 182.80 37.89, 181.64 40.30, 180.47 43.74 C 179.31 47.19, 179.15 52.69, 178.48 55.10 C 177.82 57.51, 179.15 57.68, 176.49 58.20 C 173.83 58.71, 165.03 58.03, 162.54 58.20 C 160.05 58.37, 165.20 59.23, 161.55 59.23 C 157.89 59.23, 144.44 57.68, 140.63 58.20 C 136.81 58.71, 138.97 61.12, 138.63 62.33 C 138.30 63.53, 132.16 64.91, 138.63 65.43 C 145.11 65.94, 170.35 63.02, 177.48 65.43 C 184.62 67.83, 179.98 76.09, 181.47 79.88 C 182.96 83.66, 184.46 85.56, 186.45 88.14 C 188.44 90.72, 190.77 94.16, 193.42 95.36 C 196.08 96.57, 202.56 96.74, 202.39 95.36 C 202.22 93.99, 195.08 90.03, 192.43 87.11 C 189.77 84.18, 187.94 80.91, 186.45 77.81 C 184.96 74.72, 183.96 72.82, 183.46 68.52 C 182.96 64.22, 182.47 57.17, 183.46 52.00 C 184.46 46.84, 186.78 41.68, 189.44 37.55 C 192.10 33.42, 196.91 29.29, 199.40 27.23 C 201.89 25.16, 203.55 25.68, 204.38 25.16 C 205.21 24.65, 205.71 24.47, 204.38 24.13 Z M 193.42 45.81 C 192.43 48.56, 190.77 53.21, 190.44 57.17 C 190.10 61.12, 190.44 65.77, 191.43 69.55 C 192.43 73.34, 194.59 77.13, 196.41 79.88 C 198.24 82.63, 200.56 84.52, 202.39 86.07 C 204.22 87.62, 205.38 88.31, 207.37 89.17 C 209.36 90.03, 211.52 90.89, 214.34 91.23 C 217.17 91.58, 222.98 92.61, 224.31 91.23 C 225.63 89.86, 222.48 84.87, 222.31 82.98 C 222.15 81.08, 222.15 81.26, 223.31 79.88 C 224.47 78.50, 225.14 75.58, 229.29 74.72 C 233.44 73.86, 244.89 74.54, 248.21 74.72 C 251.53 74.89, 247.72 75.58, 249.21 75.75 C 250.70 75.92, 253.53 75.23, 257.18 75.75 C 260.83 74.27, 266.48 75.47, 271.13 76.85 C 275.77 78.22, 280.59 79.94, 285.07 82.01 C 289.56 82.57, 295.20 87.20, 296.20 86.40 C 296.80 85.60, 293.87 80.30, 291.05 78.85 C 288.23 75.06, 285.57 71.96, 281.09 68.52 C 276.60 65.08, 271.29 61.30, 264.15 58.20 C 257.01 55.10, 244.73 53.55, 238.25 49.94 C 231.78 46.33, 229.45 39.79, 225.30 36.52 C 221.15 33.25, 216.00 31.36, 213.35 30.32 C 210.69 29.29, 210.69 29.98, 209.36 30.32 C 208.03 30.67, 207.54 30.67, 205.38 32.39 C 203.22 34.11, 198.40 38.41, 196.41 40.65 C 194.42 42.88, 194.42 43.06, 193.42 45.81 Z M 241.24 58.20 C 242.07 57.17, 242.90 56.65, 245.23 57.17 C 247.55 57.68, 253.69 59.75, 255.19 61.30 C 256.68 62.84, 255.02 65.43, 254.19 66.46 C 253.36 67.49, 252.20 67.66, 250.21 67.49 C 248.21 67.32, 243.90 66.11, 242.24 65.43 C 240.58 64.74, 240.41 64.56, 240.24 63.36 C 240.08 62.16, 240.41 59.23, 241.24 58.20 Z M 216.34 41.68 C 219.16 41.16, 221.98 42.02, 224.31 43.74 C 226.63 45.47, 229.29 49.42, 230.28 52.00 C 231.28 54.59, 230.61 57.34, 230.28 59.23 C 229.95 61.12, 229.78 61.81, 228.29 63.36 C 226.80 64.91, 224.14 67.83, 221.32 68.52 C 218.49 69.21, 213.85 68.52, 211.35 67.49 C 208.86 66.46, 207.54 63.88, 206.37 62.33 C 205.21 60.78, 204.71 59.75, 204.38 58.20 C 204.05 56.65, 203.88 54.93, 204.38 53.04 C 204.88 51.14, 205.38 48.73, 207.37 46.84 C 209.36 44.95, 213.51 42.20, 216.34 41.68 Z M 261.16 84.01 C 260.33 84.18, 259.84 85.38, 260.17 86.07 C 260.50 86.76, 262.33 88.31, 263.16 88.14 C 263.99 87.97, 265.48 85.73, 265.15 85.04 C 264.82 84.35, 261.99 83.84, 261.16 84.01 Z M 251.20 85.04 C 250.87 85.56, 251.53 86.76, 252.20 87.11 C 252.86 87.45, 254.85 87.62, 255.19 87.11 C 255.52 86.59, 254.85 84.35, 254.19 84.01 C 253.53 83.66, 251.53 84.52, 251.20 85.04 Z M 242.24 84.01 C 241.74 84.52, 241.57 86.76, 242.24 87.11 C 242.90 87.45, 245.72 86.59, 246.22 86.07 C 246.72 85.56, 245.89 84.35, 245.23 84.01 C 244.56 83.66, 242.73 83.49, 242.24 84.01 Z M 232.27 84.01 C 231.78 84.52, 231.61 86.76, 232.27 87.11 C 232.94 87.45, 235.76 86.59, 236.26 86.07 C 236.76 85.56, 235.93 84.35, 235.26 84.01 C 234.60 83.66, 232.77 83.49, 232.27 84.01 Z" fill="#ffffff" fill-rule="evenodd"/>
<path d="M 204.38 101.56 C 205.21 102.42, 208.37 101.21, 209.36 101.56 C 210.36 101.90, 209.53 103.11, 210.36 103.62 C 211.19 104.14, 212.19 104.48, 214.34 104.66 C 216.50 104.83, 221.48 104.83, 223.31 104.66 C 225.14 104.48, 224.31 104.83, 225.30 103.62 C 226.30 102.42, 228.95 98.29, 229.29 97.43 C 229.62 96.57, 230.28 98.29, 227.29 98.46 C 224.31 98.63, 214.68 98.81, 211.35 98.46 C 208.03 98.12, 208.53 96.74, 207.37 96.40 C 206.21 96.05, 204.88 95.54, 204.38 96.40 C 203.88 97.26, 203.55 100.70, 204.38 101.56 Z" fill="#ffffff" fill-rule="evenodd"/>
</g>
</svg>