<svg xmlns="http://www.w3.org/2000/svg" width="1405.00" height="987.58" viewBox="0 0 1405.00 987.58">
<g transform="translate(174.428,-134.584) scale(1.61926)"><g transform="translate(394.519,177.223) scale(-0.95400,0.95400)"><clipPath id="tailcut1" clipPathUnits="userSpaceOnUse"><path d="M -50 -50 H 404.0 V 400 H 268 V 205 H -50 Z"/></clipPath><g clip-path="url(#tailcut1)"><path d="M 298.8 77.4 C 294.8 71.27, 286.8 62.9, 280.4 58 C 274 53.1, 266.73 50.33, 260.4 48 C 254.07 45.67, 248.4 47.33, 242.4 44 C 236.4 40.67, 229.07 31.5, 224.4 28 C 219.73 24.5, 219.23 24.33, 214.4 23 C 209.57 21.67, 201.23 20.33, 195.4 20 C 189.57 19.67, 186.4 18.67, 179.4 21 C 172.4 23.33, 159.47 29.93, 153.4 34 C 147.33 38.07, 148.07 34.67, 143 45.4 C 137.93 56.13, 138.3 67.2, 123 98.4 C 107.7 129.6, 60.3 210.7, 51.2 232.6 C 47.11 242.46, 67.07 229.74, 68.4 229.8 C 69.74 229.86, 70.91 230.2, 69 233.4 C 64.77 240.5, 41.27 265.83, 43 272.4 C 43.78 275.35, 74.72 276.07, 79.4 272.8 C 86.68 267.71, 99.57 233.93, 105.4 228.8 C 111.23 223.67, 126.74 228.01, 129.4 228.8 C 131.11 229.31, 126.5 233.23, 128.2 235.6 C 130.84 239.29, 149.29 257.2, 152 260.4 C 154.71 263.6, 152.17 262.7, 151.4 263 C 150.9 263.2, 146.18 262.75, 145.4 263 C 143.67 263.57, 142 264.6, 141 266.4 C 140 268.2, 126.67 272.4, 139.4 273.8 C 145.13 274.43, 211.44 275.05, 217.4 274.8 C 223.35 274.54, 219.25 271.36, 218.8 270.4 C 218.1 268.91, 214.25 262.98, 211.4 262 C 208.55 261.02, 198.79 264.87, 194.4 262 C 190.01 259.13, 174.69 242.95, 173.8 237.4 C 172.91 231.85, 182.25 219.65, 186.8 214.4 C 193.3 206.9, 206.13 199.9, 212.8 192.4 C 219.47 184.9, 223.63 176.57, 226.8 169.4 C 229.97 162.23, 231.3 158.73, 231.8 149.4 C 232.3 140.07, 230.97 121.73, 229.8 113.4 C 228.63 105.07, 224.37 103.33, 224.8 99.4 C 225.1 96.65, 224.51 90.92, 232.4 89.8 C 240.29 88.68, 284 89.22, 292.4 89.8 C 304.4 90.63, 303.33 96.87, 304.4 94.8 C 304.88 93.87, 300.6 80.16, 298.8 77.4 Z" fill="#ffffff" stroke="#ffffff" stroke-width="12.579" stroke-linejoin="round" stroke-linecap="round"/></g></g>
<g transform="translate(394.519,177.223) scale(-0.95400,0.95400)"><clipPath id="tailcut2" clipPathUnits="userSpaceOnUse"><path d="M -50 -50 H 404.0 V 400 H 268 V 205 H -50 Z"/></clipPath><g clip-path="url(#tailcut2)"><path d="M 298.8 77.4 C 294.8 71.27, 286.8 62.9, 280.4 58 C 274 53.1, 266.73 50.33, 260.4 48 C 254.07 45.67, 248.4 47.33, 242.4 44 C 236.4 40.67, 229.07 31.5, 224.4 28 C 219.73 24.5, 219.23 24.33, 214.4 23 C 209.57 21.67, 201.23 20.33, 195.4 20 C 189.57 19.67, 186.4 18.67, 179.4 21 C 172.4 23.33, 159.47 29.93, 153.4 34 C 147.33 38.07, 148.07 34.67, 143 45.4 C 137.93 56.13, 138.3 67.2, 123 98.4 C 107.7 129.6, 60.3 210.7, 51.2 232.6 C 47.11 242.46, 67.07 229.74, 68.4 229.8 C 69.74 229.86, 70.91 230.2, 69 233.4 C 64.77 240.5, 41.27 265.83, 43 272.4 C 43.78 275.35, 74.72 276.07, 79.4 272.8 C 86.68 267.71, 99.57 233.93, 105.4 228.8 C 111.23 223.67, 126.74 228.01, 129.4 228.8 C 131.11 229.31, 126.5 233.23, 128.2 235.6 C 130.84 239.29, 149.29 257.2, 152 260.4 C 154.71 263.6, 152.17 262.7, 151.4 263 C 150.9 263.2, 146.18 262.75, 145.4 263 C 143.67 263.57, 142 264.6, 141 266.4 C 140 268.2, 126.67 272.4, 139.4 273.8 C 145.13 274.43, 211.44 275.05, 217.4 274.8 C 223.35 274.54, 219.25 271.36, 218.8 270.4 C 218.1 268.91, 214.25 262.98, 211.4 262 C 208.55 261.02, 198.79 264.87, 194.4 262 C 190.01 259.13, 174.69 242.95, 173.8 237.4 C 172.91 231.85, 182.25 219.65, 186.8 214.4 C 193.3 206.9, 206.13 199.9, 212.8 192.4 C 219.47 184.9, 223.63 176.57, 226.8 169.4 C 229.97 162.23, 231.3 158.73, 231.8 149.4 C 232.3 140.07, 230.97 121.73, 229.8 113.4 C 228.63 105.07, 224.37 103.33, 224.8 99.4 C 225.1 96.65, 224.51 90.92, 232.4 89.8 C 240.29 88.68, 284 89.22, 292.4 89.8 C 304.4 90.63, 303.33 96.87, 304.4 94.8 C 304.88 93.87, 300.6 80.16, 298.8 77.4 Z" fill="#000000" />
<path d="M 163.85 120.96 L 160.33 118.83 L 156.63 116.81 L 152.88 114.84 L 149.16 113.03 L 145.33 112.44 L 141.50 112.02 L 137.64 111.64 L 133.81 111.36 L 130.25 112.00 L 126.74 112.73 L 123.24 113.45 L 119.81 114.38 L 116.64 116.30 L 113.48 118.33 L 110.39 120.35 L 107.52 122.59 L 105.92 126.37 L 104.67 130.45 L 103.86 133.71 L 106.27 131.68 L 109.31 128.93 L 112.36 126.19 L 115.38 123.69 L 118.42 122.29 L 121.52 121.16 L 124.68 120.04 L 127.92 119.01 L 131.83 118.84 L 135.88 118.81 L 139.97 118.85 L 143.84 120.19 L 147.70 121.78 L 150.72 124.19 L 153.61 126.72 L 156.49 129.32 L 159.37 131.88 L 162.07 134.61 L 163.66 138.33 L 165.02 142.13 L 166.48 145.98 L 167.70 149.76 L 167.51 153.24 L 167.06 156.64 L 166.53 160.11 L 164.97 163.38 L 163.20 166.66 L 161.51 169.92 L 159.83 173.20 L 158.03 176.46 L 156.36 179.74 L 154.56 182.85 L 151.78 185.41 L 148.97 187.84 L 146.10 190.36 L 143.25 192.89 L 140.42 195.28 L 137.19 196.93 L 134.01 198.46 L 130.76 199.95 L 127.45 201.44 L 124.26 203.06 L 121.01 204.60 L 117.72 206.16 L 114.43 207.64 L 110.75 208.53 L 107.14 209.27 L 103.42 210.07 L 99.72 210.73 L 96.09 211.45 L 92.43 212.26 L 88.76 212.99 L 85.07 213.67 L 81.31 214.41 L 77.67 215.28 L 73.94 216.90 L 70.27 218.57 L 67.55 219.99 L 70.52 219.68 L 74.40 219.09 L 78.22 218.50 L 82.01 218.01 L 85.87 217.45 L 89.75 217.00 L 93.55 216.46 L 97.43 216.01 L 101.28 215.50 L 105.14 214.93 L 108.95 214.28 L 112.78 213.36 L 116.56 212.39 L 120.45 211.48 L 124.22 210.52 L 128.04 209.56 L 131.86 208.47 L 135.10 206.55 L 138.27 204.45 L 141.46 202.39 L 144.56 200.29 L 147.68 198.24 L 150.83 196.10 L 153.91 193.95 L 157.08 191.84 L 160.23 189.81 L 163.31 187.58 L 165.75 184.25 L 168.06 180.78 L 170.43 177.30 L 172.65 173.72 L 173.91 170.02 L 175.13 166.30 L 176.25 162.61 L 177.28 158.90 L 178.26 155.26 L 177.91 151.78 L 177.45 148.31 L 176.95 144.84 L 176.51 141.47 L 175.79 138.11 L 173.98 135.19 L 172.01 132.39 L 169.93 129.62 L 167.91 126.80 L 165.91 123.89 Z" fill="#ffffff" fill-rule="evenodd"/>
<path d="M 214.3 147.1 L 213.6 148.3 L 213.4 149.7 L 213.4 151.4 L 213.6 153.1 L 213.8 155.0 L 214.0 156.9 L 214.2 158.7 L 214.3 160.4 L 214.2 161.9 L 214.0 163.4 L 213.7 164.9 L 213.5 166.4 L 213.3 167.9 L 213.0 169.4 L 212.6 170.8 L 212.1 172.2 L 211.5 173.5 L 210.8 174.7 L 210.1 175.8 L 209.4 177.0 L 208.8 178.4 L 208.2 179.9 L 207.6 181.4 L 207.0 182.8 L 206.5 184.2 L 206.1 185.3 L 206.4 186.6 L 207.6 187.4 L 208.7 187.1 L 209.7 186.5 L 210.8 185.6 L 212.0 184.5 L 213.1 183.3 L 214.1 181.8 L 215.2 180.3 L 216.1 178.8 L 216.9 177.2 L 217.6 175.7 L 218.2 174.1 L 218.7 172.5 L 219.1 170.8 L 219.4 169.1 L 219.6 167.3 L 219.8 165.6 L 220.1 163.9 L 220.3 162.1 L 220.4 160.2 L 220.3 158.1 L 220.0 156.1 L 219.5 154.1 L 218.8 152.2 L 218.1 150.5 L 217.4 149.0 L 216.7 147.7 L 215.7 146.9 Z" fill="#ffffff" fill-rule="evenodd"/>
<path d="M 204.38 24.13 C 203.05 23.79, 199.57 21.38, 196.41 23.10 C 193.26 24.82, 188.11 31.01, 185.45 34.45 C 182.80 37.89, 181.64 40.30, 180.47 43.74 C 179.31 47.19, 179.15 52.69, 178.48 55.10 C 177.82 57.51, 179.15 57.68, 176.49 58.20 C 173.83 58.71, 165.03 58.03, 162.54 58.20 C 160.05 58.37, 165.20 59.23, 161.55 59.23 C 157.89 59.23, 144.44 57.68, 140.63 58.20 C 136.81 58.71, 138.97 61.12, 138.63 62.33 C 138.30 63.53, 132.16 64.91, 138.63 65.43 C 145.11 65.94, 170.35 63.02, 177.48 65.43 C 184.62 67.83, 179.98 76.09, 181.47 79.88 C 182.96 83.66, 184.46 85.56, 186.45 88.14 C 188.44 90.72, 190.77 94.16, 193.42 95.36 C 196.08 96.57, 202.56 96.74, 202.39 95.36 C 202.22 93.99, 195.08 90.03, 192.43 87.11 C 189.77 84.18, 187.94 80.91, 186.45 77.81 C 184.96 74.72, 183.96 72.82, 183.46 68.52 C 182.96 64.22, 182.47 57.17, 183.46 52.00 C 184.46 46.84, 186.78 41.68, 189.44 37.55 C 192.10 33.42, 196.91 29.29, 199.40 27.23 C 201.89 25.16, 203.55 25.68, 204.38 25.16 C 205.21 24.65, 205.71 24.47, 204.38 24.13 Z M 193.42 45.81 C 192.43 48.56, 190.77 53.21, 190.44 57.17 C 190.10 61.12, 190.44 65.77, 191.43 69.55 C 192.43 73.34, 194.59 77.13, 196.41 79.88 C 198.24 82.63, 200.56 84.52, 202.39 86.07 C 204.22 87.62, 205.38 88.31, 207.37 89.17 C 209.36 90.03, 211.52 90.89, 214.34 91.23 C 217.17 91.58, 222.98 92.61, 224.31 91.23 C 225.63 89.86, 222.48 84.87, 222.31 82.98 C 222.15 81.08, 222.15 81.26, 223.31 79.88 C 224.47 78.50, 225.14 75.58, 229.29 74.72 C 233.44 73.86, 244.89 74.54, 248.21 74.72 C 251.53 74.89, 247.72 75.58, 249.21 75.75 C 250.70 75.92, 253.53 75.23, 257.18 75.75 C 260.83 74.27, 266.48 75.47, 271.13 76.85 C 275.77 78.22, 280.59 79.94, 285.07 82.01 C 289.56 82.57, 295.20 87.20, 296.20 86.40 C 296.80 85.60, 293.87 80.30, 291.05 78.85 C 288.23 75.06, 285.57 71.96, 281.09 68.52 C 276.60 65.08, 271.29 61.30, 264.15 58.20 C 257.01 55.10, 244.73 53.55, 238.25 49.94 C 231.78 46.33, 229.45 39.79, 225.30 36.52 C 221.15 33.25, 216.00 31.36, 213.35 30.32 C 210.69 29.29, 210.69 29.98, 209.36 30.32 C 208.03 30.67, 207.54 30.67, 205.38 32.39 C 203.22 34.11, 198.40 38.41, 196.41 40.65 C 194.42 42.88, 194.42 43.06, 193.42 45.81 Z M 241.24 58.20 C 242.07 57.17, 242.90 56.65, 245.23 57.17 C 247.55 57.68, 253.69 59.75, 255.19 61.30 C 256.68 62.84, 255.02 65.43, 254.19 66.46 C 253.36 67.49, 252.20 67.66, 250.21 67.49 C 248.21 67.32, 243.90 66.11, 242.24 65.43 C 240.58 64.74, 240.41 64.56, 240.24 63.36 C 240.08 62.16, 240.41 59.23, 241.24 58.20 Z M 216.34 41.68 C 219.16 41.16, 221.98 42.02, 224.31 43.74 C 226.63 45.47, 229.29 49.42, 230.28 52.00 C 231.28 54.59, 230.61 57.34, 230.28 59.23 C 229.95 61.12, 229.78 61.81, 228.29 63.36 C 226.80 64.91, 224.14 67.83, 221.32 68.52 C 218.49 69.21, 213.85 68.52, 211.35 67.49 C 208.86 66.46, 207.54 63.88, 206.37 62.33 C 205.21 60.78, 204.71 59.75, 204.38 58.20 C 204.05 56.65, 203.88 54.93, 204.38 53.04 C 204.88 51.14, 205.38 48.73, 207.37 46.84 C 209.36 44.95, 213.51 42.20, 216.34 41.68 Z M 261.16 84.01 C 260.33 84.18, 259.84 85.38, 260.17 86.07 C 260.50 86.76, 262.33 88.31, 263.16 88.14 C 263.99 87.97, 265.48 85.73, 265.15 85.04 C 264.82 84.35, 261.99 83.84, 261.16 84.01 Z M 251.20 85.04 C 250.87 85.56, 251.53 86.76, 252.20 87.11 C 252.86 87.45, 254.85 87.62, 255.19 87.11 C 255.52 86.59, 254.85 84.35, 254.19 84.01 C 253.53 83.66, 251.53 84.52, 251.20 85.04 Z M 242.24 84.01 C 241.74 84.52, 241.57 86.76, 242.24 87.11 C 242.90 87.45, 245.72 86.59, 246.22 86.07 C 246.72 85.56, 245.89 84.35, 245.23 84.01 C 244.56 83.66, 242.73 83.49, 242.24 84.01 Z M 232.27 84.01 C 231.78 84.52, 231.61 86.76, 232.27 87.11 C 232.94 87.45, 235.76 86.59, 236.26 86.07 C 236.76 85.56, 235.93 84.35, 235.26 84.01 C 234.60 83.66, 232.77 83.49, 232.27 84.01 Z" fill="#ffffff" fill-rule="evenodd"/>
<path d="M 204.38 101.56 C 205.21 102.42, 208.37 101.21, 209.36 101.56 C 210.36 101.90, 209.53 103.11, 210.36 103.62 C 211.19 104.14, 212.19 104.48, 214.34 104.66 C 216.50 104.83, 221.48 104.83, 223.31 104.66 C 225.14 104.48, 224.31 104.83, 225.30 103.62 C 226.30 102.42, 228.95 98.29, 229.29 97.43 C 229.62 96.57, 230.28 98.29, 227.29 98.46 C 224.31 98.63, 214.68 98.81, 211.35 98.46 C 208.03 98.12, 208.53 96.74, 207.37 96.40 C 206.21 96.05, 204.88 95.54, 204.38 96.40 C 203.88 97.26, 203.55 100.70, 204.38 101.56 Z" fill="#ffffff" fill-rule="evenodd"/></g></g>
<g transform="translate(264.159,180.340) scale(0.93280,0.93280)"><path d="M 298.8 77.4 C 294.8 71.27, 286.8 62.9, 280.4 58 C 274 53.1, 266.73 50.33, 260.4 48 C 254.07 45.67, 248.4 47.33, 242.4 44 C 236.4 40.67, 229.07 31.5, 224.4 28 C 219.73 24.5, 219.23 24.33, 214.4 23 C 209.57 21.67, 201.23 20.33, 195.4 20 C 189.57 19.67, 186.4 18.67, 179.4 21 C 172.4 23.33, 159.47 29.93, 153.4 34 C 147.33 38.07, 148.07 34.67, 143 45.4 C 137.93 56.13, 138.3 67.2, 123 98.4 C 107.7 129.6, 60.3 210.7, 51.2 232.6 C 47.11 242.46, 67.07 229.74, 68.4 229.8 C 69.74 229.86, 70.91 230.2, 69 233.4 C 64.77 240.5, 41.27 265.83, 43 272.4 C 43.78 275.35, 74.72 276.07, 79.4 272.8 C 86.68 267.71, 99.57 233.93, 105.4 228.8 C 111.23 223.67, 126.74 228.01, 129.4 228.8 C 131.11 229.31, 126.5 233.23, 128.2 235.6 C 130.84 239.29, 149.29 257.2, 152 260.4 C 154.71 263.6, 152.17 262.7, 151.4 263 C 150.9 263.2, 146.18 262.75, 145.4 263 C 143.67 263.57, 142 264.6, 141 266.4 C 140 268.2, 126.67 272.4, 139.4 273.8 C 145.13 274.43, 211.44 275.05, 217.4 274.8 C 223.35 274.54, 219.25 271.36, 218.8 270.4 C 218.1 268.91, 214.25 262.98, 211.4 262 C 208.55 261.02, 198.79 264.87, 194.4 262 C 190.01 259.13, 174.69 242.95, 173.8 237.4 C 172.91 231.85, 182.25 219.65, 186.8 214.4 C 193.3 206.9, 206.13 199.9, 212.8 192.4 C 219.47 184.9, 223.63 176.57, 226.8 169.4 C 229.97 162.23, 231.3 158.73, 231.8 149.4 C 232.3 140.07, 230.97 121.73, 229.8 113.4 C 228.63 105.07, 224.37 103.33, 224.8 99.4 C 225.1 96.65, 224.51 90.92, 232.4 89.8 C 240.29 88.68, 284 89.22, 292.4 89.8 C 304.4 90.63, 303.33 96.87, 304.4 94.8 C 304.88 93.87, 300.6 80.16, 298.8 77.4 Z" fill="#ffffff" stroke="#ffffff" stroke-width="12.864" stroke-linejoin="round" stroke-linecap="round"/></g>
<g transform="translate(264.159,180.340) scale(0.93280,0.93280)"><path d="M 298.8 77.4 C 294.8 71.27, 286.8 62.9, 280.4 58 C 274 53.1, 266.73 50.33, 260.4 48 C 254.07 45.67, 248.4 47.33, 242.4 44 C 236.4 40.67, 229.07 31.5, 224.4 28 C 219.73 24.5, 219.23 24.33, 214.4 23 C 209.57 21.67, 201.23 20.33, 195.4 20 C 189.57 19.67, 186.4 18.67, 179.4 21 C 172.4 23.33, 159.47 29.93, 153.4 34 C 147.33 38.07, 148.07 34.67, 143 45.4 C 137.93 56.13, 138.3 67.2, 123 98.4 C 107.7 129.6, 60.3 210.7, 51.2 232.6 C 47.11 242.46, 67.07 229.74, 68.4 229.8 C 69.74 229.86, 70.91 230.2, 69 233.4 C 64.77 240.5, 41.27 265.83, 43 272.4 C 43.78 275.35, 74.72 276.07, 79.4 272.8 C 86.68 267.71, 99.57 233.93, 105.4 228.8 C 111.23 223.67, 126.74 228.01, 129.4 228.8 C 131.11 229.31, 126.5 233.23, 128.2 235.6 C 130.84 239.29, 149.29 257.2, 152 260.4 C 154.71 263.6, 152.17 262.7, 151.4 263 C 150.9 263.2, 146.18 262.75, 145.4 263 C 143.67 263.57, 142 264.6, 141 266.4 C 140 268.2, 126.67 272.4, 139.4 273.8 C 145.13 274.43, 211.44 275.05, 217.4 274.8 C 223.35 274.54, 219.25 271.36, 218.8 270.4 C 218.1 268.91, 214.25 262.98, 211.4 262 C 208.55 261.02, 198.79 264.87, 194.4 262 C 190.01 259.13, 174.69 242.95, 173.8 237.4 C 172.91 231.85, 182.25 219.65, 186.8 214.4 C 193.3 206.9, 206.13 199.9, 212.8 192.4 C 219.47 184.9, 223.63 176.57, 226.8 169.4 C 229.97 162.23, 231.3 158.73, 231.8 149.4 C 232.3 140.07, 230.97 121.73, 229.8 113.4 C 228.63 105.07, 224.37 103.33, 224.8 99.4 C 225.1 96.65, 224.51 90.92, 232.4 89.8 C 240.29 88.68, 284 89.22, 292.4 89.8 C 304.4 90.63, 303.33 96.87, 304.4 94.8 C 304.88 93.87, 300.6 80.16, 298.8 77.4 Z" fill="#000000" />
<path d="M 163.85 120.96 L 160.33 118.83 L 156.63 116.81 L 152.88 114.84 L 149.16 113.03 L 145.33 112.44 L 141.50 112.02 L 137.64 111.64 L 133.81 111.36 L 130.25 112.00 L 126.74 112.73 L 123.24 113.45 L 119.81 114.38 L 116.64 116.30 L 113.48 118.33 L 110.39 120.35 L 107.52 122.59 L 105.92 126.37 L 104.67 130.45 L 103.86 133.71 L 106.27 131.68 L 109.31 128.93 L 112.36 126.19 L 115.38 123.69 L 118.42 122.29 L 121.52 121.16 L 124.68 120.04 L 127.92 119.01 L 131.83 118.84 L 135.88 118.81 L 139.97 118.85 L 143.84 120.19 L 147.70 121.78 L 150.72 124.19 L 153.61 126.72 L 156.49 129.32 L 159.37 131.88 L 162.07 134.61 L 163.66 138.33 L 165.02 142.13 L 166.48 145.98 L 167.70 149.76 L 167.51 153.24 L 167.06 156.64 L 166.53 160.11 L 164.97 163.38 L 163.20 166.66 L 161.51 169.92 L 159.83 173.20 L 158.03 176.46 L 156.36 179.74 L 154.56 182.85 L 151.78 185.41 L 148.97 187.84 L 146.10 190.36 L 143.25 192.89 L 140.42 195.28 L 137.19 196.93 L 134.01 198.46 L 130.76 199.95 L 127.45 201.44 L 124.26 203.06 L 121.01 204.60 L 117.72 206.16 L 114.43 207.64 L 110.75 208.53 L 107.14 209.27 L 103.42 210.07 L 99.72 210.73 L 96.09 211.45 L 92.43 212.26 L 88.76 212.99 L 85.07 213.67 L 81.31 214.41 L 77.67 215.28 L 73.94 216.90 L 70.27 218.57 L 67.55 219.99 L 70.52 219.68 L 74.40 219.09 L 78.22 218.50 L 82.01 218.01 L 85.87 217.45 L 89.75 217.00 L 93.55 216.46 L 97.43 216.01 L 101.28 215.50 L 105.14 214.93 L 108.95 214.28 L 112.78 213.36 L 116.56 212.39 L 120.45 211.48 L 124.22 210.52 L 128.04 209.56 L 131.86 208.47 L 135.10 206.55 L 138.27 204.45 L 141.46 202.39 L 144.56 200.29 L 147.68 198.24 L 150.83 196.10 L 153.91 193.95 L 157.08 191.84 L 160.23 189.81 L 163.31 187.58 L 165.75 184.25 L 168.06 180.78 L 170.43 177.30 L 172.65 173.72 L 173.91 170.02 L 175.13 166.30 L 176.25 162.61 L 177.28 158.90 L 178.26 155.26 L 177.91 151.78 L 177.45 148.31 L 176.95 144.84 L 176.51 141.47 L 175.79 138.11 L 173.98 135.19 L 172.01 132.39 L 169.93 129.62 L 167.91 126.80 L 165.91 123.89 Z" fill="#ffffff" fill-rule="evenodd"/>
<path d="M 214.3 147.1 L 213.6 148.3 L 213.4 149.7 L 213.4 151.4 L 213.6 153.1 L 213.8 155.0 L 214.0 156.9 L 214.2 158.7 L 214.3 160.4 L 214.2 161.9 L 214.0 163.4 L 213.7 164.9 L 213.5 166.4 L 213.3 167.9 L 213.0 169.4 L 212.6 170.8 L 212.1 172.2 L 211.5 173.5 L 210.8 174.7 L 210.1 175.8 L 209.4 177.0 L 208.8 178.4 L 208.2 179.9 L 207.6 181.4 L 207.0 182.8 L 206.5 184.2 L 206.1 185.3 L 206.4 186.6 L 207.6 187.4 L 208.7 187.1 L 209.7 186.5 L 210.8 185.6 L 212.0 184.5 L 213.1 183.3 L 214.1 181.8 L 215.2 180.3 L 216.1 178.8 L 216.9 177.2 L 217.6 175.7 L 218.2 174.1 L 218.7 172.5 L 219.1 170.8 L 219.4 169.1 L 219.6 167.3 L 219.8 165.6 L 220.1 163.9 L 220.3 162.1 L 220.4 160.2 L 220.3 158.1 L 220.0 156.1 L 219.5 154.1 L 218.8 152.2 L 218.1 150.5 L 217.4 149.0 L 216.7 147.7 L 215.7 146.9 Z" fill="#ffffff" fill-rule="evenodd"/>
<path d="M 145.61 51.10 C 150.92 51.44, 173.67 48.33, 179.48 47.99 C 185.29 47.64, 180.47 48.33, 180.47 49.02 C 180.47 49.72, 179.64 48.85, 179.48 52.13 C 179.31 55.42, 179.31 65.61, 179.48 68.72 C 179.64 71.83, 180.47 70.27, 180.47 70.79 C 180.47 71.31, 180.64 71.66, 179.48 71.83 C 178.31 72.00, 174.66 72.00, 173.50 71.83 C 172.34 71.66, 177.82 71.66, 172.50 70.79 C 167.19 69.93, 146.94 67.51, 141.62 66.65 C 136.31 65.78, 141.29 65.61, 140.63 65.61 C 139.96 65.61, 138.14 65.96, 137.64 66.65 C 137.14 67.34, 132.32 68.20, 137.64 69.76 C 142.95 71.31, 163.37 74.94, 169.52 75.98 C 175.66 77.01, 173.50 75.80, 174.50 75.98 C 175.49 76.15, 174.33 76.84, 175.49 77.01 C 176.65 77.18, 178.98 74.59, 181.47 77.01 C 183.96 79.43, 188.11 88.41, 190.44 91.52 C 192.76 94.63, 193.26 94.98, 195.42 95.67 C 197.57 96.36, 201.73 94.63, 203.39 95.67 C 205.05 96.71, 204.38 100.85, 205.38 101.89 C 206.37 102.93, 208.20 101.54, 209.36 101.89 C 210.52 102.24, 209.53 103.62, 212.35 103.96 C 215.17 104.31, 223.48 104.65, 226.30 103.96 C 229.12 103.27, 228.79 100.85, 229.29 99.82 C 229.78 98.78, 231.44 97.92, 229.29 97.74 C 227.13 97.57, 219.99 98.95, 216.34 98.78 C 212.68 98.61, 209.86 97.57, 207.37 96.71 C 204.88 95.84, 203.88 95.50, 201.39 93.60 C 198.90 91.70, 194.92 88.41, 192.43 85.30 C 189.94 82.20, 187.78 78.05, 186.45 74.94 C 185.12 71.83, 184.79 70.27, 184.46 66.65 C 184.13 63.02, 184.13 56.63, 184.46 53.17 C 184.79 49.72, 185.29 48.68, 186.45 45.91 C 187.61 43.15, 189.27 39.52, 191.43 36.59 C 193.59 33.65, 197.24 30.19, 199.40 28.29 C 201.56 26.39, 203.72 26.05, 204.38 25.18 C 205.05 24.32, 204.55 23.46, 203.39 23.11 C 202.22 22.76, 199.90 21.73, 197.41 23.11 C 194.92 24.49, 191.10 28.12, 188.44 31.40 C 185.79 34.68, 186.45 40.56, 181.47 42.80 C 176.49 45.05, 162.54 44.36, 158.56 44.88 C 154.57 45.40, 159.39 45.74, 157.56 45.91 C 155.73 46.09, 149.59 45.05, 147.60 45.91 C 145.61 46.78, 140.29 50.75, 145.61 51.10 Z M 213.35 43.84 C 210.86 45.05, 207.54 48.51, 206.37 51.10 C 205.21 53.69, 205.71 56.97, 206.37 59.39 C 207.04 61.81, 209.03 64.23, 210.36 65.61 C 211.69 66.99, 212.85 67.34, 214.34 67.68 C 215.84 68.03, 217.50 68.20, 219.32 67.68 C 221.15 67.16, 223.97 65.61, 225.30 64.57 C 226.63 63.54, 226.80 63.71, 227.29 61.46 C 227.79 59.22, 229.29 54.03, 228.29 51.10 C 227.29 48.16, 223.81 45.05, 221.32 43.84 C 218.83 42.63, 215.84 42.63, 213.35 43.84 Z M 244.23 57.32 C 242.40 57.66, 241.74 61.29, 243.23 62.50 C 244.73 63.71, 251.37 64.92, 253.19 64.57 C 255.02 64.23, 255.69 61.64, 254.19 60.43 C 252.70 59.22, 246.06 56.97, 244.23 57.32 Z M 262.16 83.23 C 261.50 83.58, 260.83 85.65, 261.16 86.34 C 261.50 87.03, 263.49 87.72, 264.15 87.38 C 264.82 87.03, 265.48 84.96, 265.15 84.27 C 264.82 83.58, 262.82 82.89, 262.16 83.23 Z M 253.19 83.23 C 252.53 83.58, 251.87 85.65, 252.20 86.34 C 252.53 87.03, 254.52 87.72, 255.19 87.38 C 255.85 87.03, 256.52 84.96, 256.18 84.27 C 255.85 83.58, 253.86 82.89, 253.19 83.23 Z M 243.23 83.23 C 242.73 83.75, 242.90 86.69, 243.23 87.38 C 243.56 88.07, 244.73 87.90, 245.23 87.38 C 245.72 86.86, 246.55 84.96, 246.22 84.27 C 245.89 83.58, 243.73 82.71, 243.23 83.23 Z M 233.27 83.23 C 232.77 83.75, 232.94 85.65, 233.27 86.34 C 233.60 87.03, 234.77 87.90, 235.26 87.38 C 235.76 86.86, 236.59 83.92, 236.26 83.23 C 235.93 82.54, 233.77 82.71, 233.27 83.23 Z" fill="#ffffff" fill-rule="evenodd"/>
<path d="M 226.1 89.2 L 226.1 88.4 L 226.1 87.2 L 226.2 85.8 L 226.2 84.4 L 226.3 83.0 L 226.4 81.8 L 226.7 80.8 L 226.9 79.8 L 227.2 78.8 L 227.5 78.0 L 227.7 77.4 L 228.0 77.0 L 228.4 76.6 L 228.9 76.2 L 229.8 75.9 L 231.0 75.7 L 232.5 75.5 L 234.1 75.4 L 236.0 75.4 L 237.9 75.5 L 239.8 75.6 L 241.8 75.7 L 243.9 75.9 L 246.1 76.1 L 248.3 76.4 L 250.7 76.8 L 253.1 77.2 L 255.6 77.7 L 258.3 78.2 L 261.2 78.8 L 264.2 79.5 L 267.3 80.2 L 270.2 80.9 L 273.0 81.6 L 275.6 82.3 L 278.0 83.0 L 280.3 83.7 L 282.4 84.4 L 284.5 85.1 L 286.4 85.7 L 288.1 86.4 L 289.7 86.9 L 291.0 87.3 L 292.2 87.7 L 293.1 88.1 L 294.0 88.4 L 294.7 88.6 L 295.3 88.8 L 295.8 89.1 L 296.2 87.9 L 295.8 87.7 L 295.2 87.5 L 294.6 87.1 L 293.7 86.7 L 292.8 86.2 L 291.7 85.7 L 290.3 85.1 L 288.8 84.5 L 287.1 83.8 L 285.3 83.0 L 283.2 82.2 L 281.1 81.3 L 278.8 80.5 L 276.4 79.7 L 273.8 78.9 L 271.0 78.1 L 268.0 77.3 L 265.0 76.5 L 262.0 75.7 L 259.1 75.0 L 256.4 74.3 L 253.8 73.8 L 251.4 73.2 L 249.0 72.8 L 246.7 72.3 L 244.4 72.0 L 242.2 71.7 L 240.2 71.4 L 238.1 71.2 L 236.1 71.1 L 234.2 71.0 L 232.3 71.0 L 230.5 71.1 L 228.7 71.3 L 227.1 71.8 L 225.6 72.5 L 224.4 73.5 L 223.4 74.6 L 222.7 75.8 L 222.2 77.0 L 221.8 78.1 L 221.3 79.2 L 220.9 80.6 L 220.6 82.2 L 220.4 83.9 L 220.3 85.4 L 220.1 86.8 L 220.0 88.0 L 219.9 88.8 Z" fill="#ffffff" fill-rule="evenodd"/></g>
<g transform="translate(126.090,161.180) scale(1.06000,1.06000)"><path d="M 298.8 77.4 C 294.8 71.27, 286.8 62.9, 280.4 58 C 274 53.1, 266.73 50.33, 260.4 48 C 254.07 45.67, 248.4 47.33, 242.4 44 C 236.4 40.67, 229.07 31.5, 224.4 28 C 219.73 24.5, 219.23 24.33, 214.4 23 C 209.57 21.67, 201.23 20.33, 195.4 20 C 189.57 19.67, 186.4 18.67, 179.4 21 C 172.4 23.33, 159.47 29.93, 153.4 34 C 147.33 38.07, 148.07 34.67, 143 45.4 C 137.93 56.13, 138.3 67.2, 123 98.4 C 107.7 129.6, 60.3 210.7, 51.2 232.6 C 47.11 242.46, 67.07 229.74, 68.4 229.8 C 69.74 229.86, 70.91 230.2, 69 233.4 C 64.77 240.5, 41.27 265.83, 43 272.4 C 43.78 275.35, 74.72 276.07, 79.4 272.8 C 86.68 267.71, 99.57 233.93, 105.4 228.8 C 111.23 223.67, 126.74 228.01, 129.4 228.8 C 131.11 229.31, 126.5 233.23, 128.2 235.6 C 130.84 239.29, 149.29 257.2, 152 260.4 C 154.71 263.6, 152.17 262.7, 151.4 263 C 150.9 263.2, 146.18 262.75, 145.4 263 C 143.67 263.57, 142 264.6, 141 266.4 C 140 268.2, 126.67 272.4, 139.4 273.8 C 145.13 274.43, 211.44 275.05, 217.4 274.8 C 223.35 274.54, 219.25 271.36, 218.8 270.4 C 218.1 268.91, 214.25 262.98, 211.4 262 C 208.55 261.02, 198.79 264.87, 194.4 262 C 190.01 259.13, 174.69 242.95, 173.8 237.4 C 172.91 231.85, 182.25 219.65, 186.8 214.4 C 193.3 206.9, 206.13 199.9, 212.8 192.4 C 219.47 184.9, 223.63 176.57, 226.8 169.4 C 229.97 162.23, 231.3 158.73, 231.8 149.4 C 232.3 140.07, 230.97 121.73, 229.8 113.4 C 228.63 105.07, 224.37 103.33, 224.8 99.4 C 225.1 96.65, 224.51 90.92, 232.4 89.8 C 240.29 88.68, 284 89.22, 292.4 89.8 C 304.4 90.63, 303.33 96.87, 304.4 94.8 C 304.88 93.87, 300.6 80.16, 298.8 77.4 Z" fill="#ffffff" stroke="#ffffff" stroke-width="11.321" stroke-linejoin="round" stroke-linecap="round"/></g>
<g transform="translate(126.090,161.180) scale(1.06000,1.06000)"><path d="M 298.8 77.4 C 294.8 71.27, 286.8 62.9, 280.4 58 C 274 53.1, 266.73 50.33, 260.4 48 C 254.07 45.67, 248.4 47.33, 242.4 44 C 236.4 40.67, 229.07 31.5, 224.4 28 C 219.73 24.5, 219.23 24.33, 214.4 23 C 209.57 21.67, 201.23 20.33, 195.4 20 C 189.57 19.67, 186.4 18.67, 179.4 21 C 172.4 23.33, 159.47 29.93, 153.4 34 C 147.33 38.07, 148.07 34.67, 143 45.4 C 137.93 56.13, 138.3 67.2, 123 98.4 C 107.7 129.6, 60.3 210.7, 51.2 232.6 C 47.11 242.46, 67.07 229.74, 68.4 229.8 C 69.74 229.86, 70.91 230.2, 69 233.4 C 64.77 240.5, 41.27 265.83, 43 272.4 C 43.78 275.35, 74.72 276.07, 79.4 272.8 C 86.68 267.71, 99.57 233.93, 105.4 228.8 C 111.23 223.67, 126.74 228.01, 129.4 228.8 C 131.11 229.31, 126.5 233.23, 128.2 235.6 C 130.84 239.29, 149.29 257.2, 152 260.4 C 154.71 263.6, 152.17 262.7, 151.4 263 C 150.9 263.2, 146.18 262.75, 145.4 263 C 143.67 263.57, 142 264.6, 141 266.4 C 140 268.2, 126.67 272.4, 139.4 273.8 C 145.13 274.43, 211.44 275.05, 217.4 274.8 C 223.35 274.54, 219.25 271.36, 218.8 270.4 C 218.1 268.91, 214.25 262.98, 211.4 262 C 208.55 261.02, 198.79 264.87, 194.4 262 C 190.01 259.13, 174.69 242.95, 173.8 237.4 C 172.91 231.85, 182.25 219.65, 186.8 214.4 C 193.3 206.9, 206.13 199.9, 212.8 192.4 C 219.47 184.9, 223.63 176.57, 226.8 169.4 C 229.97 162.23, 231.3 158.73, 231.8 149.4 C 232.3 140.07, 230.97 121.73, 229.8 113.4 C 228.63 105.07, 224.37 103.33, 224.8 99.4 C 225.1 96.65, 224.51 90.92, 232.4 89.8 C 240.29 88.68, 284 89.22, 292.4 89.8 C 304.4 90.63, 303.33 96.87, 304.4 94.8 C 304.88 93.87, 300.6 80.16, 298.8 77.4 Z" fill="#000000" />
<path d="M 163.85 120.96 L 160.33 118.83 L 156.63 116.81 L 152.88 114.84 L 149.16 113.03 L 145.33 112.44 L 141.50 112.02 L 137.64 111.64 L 133.81 111.36 L 130.25 112.00 L 126.74 112.73 L 123.24 113.45 L 119.81 114.38 L 116.64 116.30 L 113.48 118.33 L 110.39 120.35 L 107.52 122.59 L 105.92 126.37 L 104.67 130.45 L 103.86 133.71 L 106.27 131.68 L 109.31 128.93 L 112.36 126.19 L 115.38 123.69 L 118.42 122.29 L 121.52 121.16 L 124.68 120.04 L 127.92 119.01 L 131.83 118.84 L 135.88 118.81 L 139.97 118.85 L 143.84 120.19 L 147.70 121.78 L 150.72 124.19 L 153.61 126.72 L 156.49 129.32 L 159.37 131.88 L 162.07 134.61 L 163.66 138.33 L 165.02 142.13 L 166.48 145.98 L 167.70 149.76 L 167.51 153.24 L 167.06 156.64 L 166.53 160.11 L 164.97 163.38 L 163.20 166.66 L 161.51 169.92 L 159.83 173.20 L 158.03 176.46 L 156.36 179.74 L 154.56 182.85 L 151.78 185.41 L 148.97 187.84 L 146.10 190.36 L 143.25 192.89 L 140.42 195.28 L 137.19 196.93 L 134.01 198.46 L 130.76 199.95 L 127.45 201.44 L 124.26 203.06 L 121.01 204.60 L 117.72 206.16 L 114.43 207.64 L 110.75 208.53 L 107.14 209.27 L 103.42 210.07 L 99.72 210.73 L 96.09 211.45 L 92.43 212.26 L 88.76 212.99 L 85.07 213.67 L 81.31 214.41 L 77.67 215.28 L 73.94 216.90 L 70.27 218.57 L 67.55 219.99 L 70.52 219.68 L 74.40 219.09 L 78.22 218.50 L 82.01 218.01 L 85.87 217.45 L 89.75 217.00 L 93.55 216.46 L 97.43 216.01 L 101.28 215.50 L 105.14 214.93 L 108.95 214.28 L 112.78 213.36 L 116.56 212.39 L 120.45 211.48 L 124.22 210.52 L 128.04 209.56 L 131.86 208.47 L 135.10 206.55 L 138.27 204.45 L 141.46 202.39 L 144.56 200.29 L 147.68 198.24 L 150.83 196.10 L 153.91 193.95 L 157.08 191.84 L 160.23 189.81 L 163.31 187.58 L 165.75 184.25 L 168.06 180.78 L 170.43 177.30 L 172.65 173.72 L 173.91 170.02 L 175.13 166.30 L 176.25 162.61 L 177.28 158.90 L 178.26 155.26 L 177.91 151.78 L 177.45 148.31 L 176.95 144.84 L 176.51 141.47 L 175.79 138.11 L 173.98 135.19 L 172.01 132.39 L 169.93 129.62 L 167.91 126.80 L 165.91 123.89 Z" fill="#ffffff" fill-rule="evenodd"/>
<path d="M 214.3 147.1 L 213.6 148.3 L 213.4 149.7 L 213.4 151.4 L 213.6 153.1 L 213.8 155.0 L 214.0 156.9 L 214.2 158.7 L 214.3 160.4 L 214.2 161.9 L 214.0 163.4 L 213.7 164.9 L 213.5 166.4 L 213.3 167.9 L 213.0 169.4 L 212.6 170.8 L 212.1 172.2 L 211.5 173.5 L 210.8 174.7 L 210.1 175.8 L 209.4 177.0 L 208.8 178.4 L 208.2 179.9 L 207.6 181.4 L 207.0 182.8 L 206.5 184.2 L 206.1 185.3 L 206.4 186.6 L 207.6 187.4 L 208.7 187.1 L 209.7 186.5 L 210.8 185.6 L 212.0 184.5 L 213.1 183.3 L 214.1 181.8 L 215.2 180.3 L 216.1 178.8 L 216.9 177.2 L 217.6 175.7 L 218.2 174.1 L 218.7 172.5 L 219.1 170.8 L 219.4 169.1 L 219.6 167.3 L 219.8 165.6 L 220.1 163.9 L 220.3 162.1 L 220.4 160.2 L 220.3 158.1 L 220.0 156.1 L 219.5 154.1 L 218.8 152.2 L 218.1 150.5 L 217.4 149.0 L 216.7 147.7 L 215.7 146.9 Z" fill="#ffffff" fill-rule="evenodd"/>
<path d="M 166.69 86.34 L 166.68 86.76 L 166.64 87.13 L 166.60 87.47 L 166.49 87.82 L 166.30 88.20 L 166.09 88.60 L 165.83 88.92 L 165.51 89.15 L 165.12 89.31 L 164.68 89.46 L 164.25 89.58 L 163.80 89.60 L 163.40 89.51 L 163.03 89.40 L 162.66 89.26 L 162.30 89.06 L 161.96 88.83 L 161.61 88.56 L 161.29 88.24 L 161.02 87.87 L 160.80 87.49 L 160.67 87.08 L 160.63 86.68 L 160.62 86.29 L 160.68 85.89 L 160.80 85.48 L 160.94 85.09 L 161.11 84.78 L 161.33 84.51 L 161.62 84.20 L 161.94 83.86 L 162.25 83.58 L 162.56 83.36 L 162.93 83.17 L 163.36 83.04 L 163.81 82.98 L 164.25 82.95 L 164.70 82.99 L 165.14 83.13 L 165.57 83.35 L 165.93 83.64 L 166.22 83.99 L 166.40 84.37 L 166.50 84.76 L 166.58 85.13 L 166.64 85.51 L 166.67 85.91 Z" fill="#ffffff" fill-rule="evenodd"/>
<path d="M 177.87 101.03 L 177.78 101.49 L 177.64 101.91 L 177.49 102.26 L 177.31 102.58 L 177.08 102.89 L 176.83 103.22 L 176.51 103.55 L 176.15 103.80 L 175.77 104.02 L 175.40 104.21 L 175.00 104.30 L 174.56 104.27 L 174.14 104.19 L 173.75 104.08 L 173.39 103.96 L 173.04 103.79 L 172.73 103.52 L 172.46 103.26 L 172.21 103.01 L 171.98 102.72 L 171.76 102.37 L 171.54 101.98 L 171.34 101.54 L 171.23 101.06 L 171.22 100.62 L 171.30 100.26 L 171.48 99.87 L 171.72 99.44 L 171.99 99.09 L 172.31 98.84 L 172.66 98.61 L 173.01 98.43 L 173.39 98.31 L 173.82 98.24 L 174.24 98.19 L 174.62 98.14 L 174.98 98.12 L 175.36 98.14 L 175.78 98.21 L 176.18 98.35 L 176.54 98.50 L 176.89 98.70 L 177.24 99.01 L 177.56 99.39 L 177.77 99.80 L 177.86 100.20 L 177.90 100.60 Z" fill="#ffffff" fill-rule="evenodd"/>
<path d="M 189.79 114.32 L 189.76 114.72 L 189.73 115.09 L 189.63 115.44 L 189.46 115.79 L 189.25 116.14 L 189.01 116.50 L 188.77 116.82 L 188.50 117.08 L 188.14 117.33 L 187.70 117.55 L 187.25 117.67 L 186.82 117.71 L 186.36 117.64 L 185.90 117.48 L 185.50 117.24 L 185.16 117.00 L 184.92 116.75 L 184.70 116.46 L 184.45 116.13 L 184.24 115.79 L 184.05 115.41 L 183.86 115.03 L 183.72 114.65 L 183.67 114.26 L 183.69 113.87 L 183.74 113.48 L 183.83 113.06 L 183.97 112.64 L 184.17 112.26 L 184.43 111.94 L 184.75 111.64 L 185.16 111.42 L 185.61 111.31 L 185.99 111.24 L 186.35 111.15 L 186.76 111.09 L 187.15 111.13 L 187.51 111.24 L 187.90 111.37 L 188.28 111.54 L 188.64 111.78 L 188.96 112.07 L 189.25 112.37 L 189.52 112.70 L 189.73 113.09 L 189.82 113.49 L 189.83 113.89 Z" fill="#ffffff" fill-rule="evenodd"/>
<path d="M 204.52 124.58 L 204.50 125.00 L 204.46 125.43 L 204.39 125.80 L 204.25 126.16 L 204.07 126.54 L 203.87 126.91 L 203.62 127.24 L 203.25 127.50 L 202.79 127.70 L 202.34 127.84 L 201.93 127.90 L 201.52 127.86 L 201.08 127.73 L 200.68 127.57 L 200.33 127.42 L 199.98 127.23 L 199.66 126.94 L 199.41 126.62 L 199.19 126.34 L 198.92 126.05 L 198.67 125.71 L 198.50 125.35 L 198.35 124.96 L 198.24 124.57 L 198.20 124.18 L 198.25 123.78 L 198.39 123.36 L 198.58 122.95 L 198.81 122.61 L 199.11 122.28 L 199.49 121.97 L 199.88 121.77 L 200.25 121.66 L 200.63 121.53 L 201.06 121.45 L 201.54 121.43 L 201.98 121.48 L 202.37 121.62 L 202.76 121.75 L 203.13 121.86 L 203.41 122.02 L 203.68 122.26 L 203.95 122.58 L 204.18 122.99 L 204.35 123.44 L 204.47 123.82 L 204.53 124.17 Z" fill="#ffffff" fill-rule="evenodd"/>
<path d="M 221.63 131.72 L 221.54 132.16 L 221.38 132.61 L 221.18 133.05 L 220.95 133.39 L 220.68 133.64 L 220.35 133.86 L 219.96 134.08 L 219.57 134.31 L 219.22 134.52 L 218.88 134.70 L 218.53 134.79 L 218.16 134.83 L 217.76 134.85 L 217.32 134.82 L 216.87 134.75 L 216.50 134.64 L 216.17 134.48 L 215.82 134.23 L 215.52 133.84 L 215.31 133.40 L 215.14 133.00 L 215.06 132.60 L 215.07 132.22 L 215.09 131.85 L 215.12 131.45 L 215.21 131.03 L 215.33 130.65 L 215.48 130.26 L 215.71 129.89 L 216.00 129.57 L 216.34 129.33 L 216.66 129.14 L 217.02 128.98 L 217.45 128.83 L 217.85 128.70 L 218.20 128.66 L 218.55 128.73 L 218.96 128.87 L 219.42 129.00 L 219.81 129.11 L 220.12 129.27 L 220.45 129.53 L 220.84 129.82 L 221.16 130.13 L 221.41 130.48 L 221.58 130.88 L 221.66 131.29 Z" fill="#ffffff" fill-rule="evenodd"/>
<path d="M 205.38 23.11 C 203.88 22.94, 200.23 20.69, 196.41 23.11 C 192.59 25.53, 189.60 34.86, 182.47 37.62 C 175.33 40.39, 159.22 38.66, 153.58 39.70 C 147.93 40.73, 149.43 42.98, 148.60 43.84 C 147.77 44.71, 148.10 44.71, 148.60 44.88 C 149.09 45.05, 150.92 45.05, 151.58 44.88 C 152.25 44.71, 147.77 44.36, 152.58 43.84 C 157.40 43.32, 175.66 41.77, 180.47 41.77 C 185.29 41.77, 181.80 41.94, 181.47 43.84 C 181.14 45.74, 178.98 49.20, 178.48 53.17 C 177.98 57.14, 178.31 65.09, 178.48 67.68 C 178.65 70.27, 179.48 68.03, 179.48 68.72 C 179.48 69.41, 182.96 72.00, 178.48 71.83 C 174.00 71.66, 158.72 68.89, 152.58 67.68 C 146.44 66.47, 144.11 65.09, 141.62 64.57 C 139.13 64.05, 138.30 63.88, 137.64 64.57 C 136.97 65.26, 130.50 66.65, 137.64 68.72 C 144.78 70.79, 172.01 73.56, 180.47 77.01 C 188.94 80.47, 185.95 87.38, 188.44 89.45 C 190.93 91.52, 195.25 90.66, 195.42 89.45 C 195.58 88.24, 191.10 84.79, 189.44 82.20 C 187.78 79.60, 186.45 76.49, 185.45 73.90 C 184.46 71.31, 183.79 70.10, 183.46 66.65 C 183.13 63.19, 183.13 56.63, 183.46 53.17 C 183.79 49.72, 184.29 48.68, 185.45 45.91 C 186.62 43.15, 187.94 39.87, 190.44 36.59 C 192.93 33.30, 197.91 28.29, 200.40 26.22 C 202.89 24.15, 204.55 24.66, 205.38 24.15 C 206.21 23.63, 206.87 23.28, 205.38 23.11 Z M 212.35 50.06 C 210.86 50.41, 210.03 51.79, 209.36 53.17 C 208.70 54.55, 208.03 56.80, 208.37 58.35 C 208.70 59.91, 210.03 61.64, 211.35 62.50 C 212.68 63.36, 214.84 63.88, 216.34 63.54 C 217.83 63.19, 219.49 61.81, 220.32 60.43 C 221.15 59.04, 221.65 56.80, 221.32 55.24 C 220.98 53.69, 219.82 51.96, 218.33 51.10 C 216.83 50.23, 213.85 49.72, 212.35 50.06 Z M 210.36 29.33 C 208.86 29.85, 206.71 30.54, 204.38 32.44 C 202.06 34.34, 198.57 37.28, 196.41 40.73 C 194.25 44.19, 192.26 48.85, 191.43 53.17 C 190.60 57.49, 190.93 62.85, 191.43 66.65 C 191.93 70.45, 192.59 72.87, 194.42 75.98 C 196.25 79.09, 199.23 82.89, 202.39 85.30 C 205.54 87.72, 209.86 89.62, 213.35 90.49 C 216.83 91.35, 221.81 91.18, 223.31 90.49 C 224.80 89.80, 222.31 88.24, 222.31 86.34 C 222.31 84.44, 222.15 81.16, 223.31 79.09 C 224.47 77.01, 227.29 74.77, 229.29 73.90 C 231.28 73.04, 233.27 77.18, 235.26 73.90 C 237.26 70.62, 240.24 58.18, 241.24 54.21 C 242.24 50.23, 241.90 50.92, 241.24 50.06 C 240.58 49.20, 240.24 51.62, 237.26 49.02 C 234.27 46.43, 227.29 37.79, 223.31 34.51 C 219.32 31.23, 215.51 30.19, 213.35 29.33 C 211.19 28.47, 211.85 28.81, 210.36 29.33 Z M 210.36 39.70 C 213.18 39.52, 219.49 39.87, 222.31 40.73 C 225.14 41.60, 225.80 42.80, 227.29 44.88 C 228.79 46.95, 230.61 50.58, 231.28 53.17 C 231.94 55.76, 231.61 58.35, 231.28 60.43 C 230.95 62.50, 230.78 63.54, 229.29 65.61 C 227.79 67.68, 224.47 71.31, 222.31 72.87 C 220.15 74.42, 218.66 74.77, 216.34 74.94 C 214.01 75.11, 210.52 74.59, 208.37 73.90 C 206.21 73.21, 205.21 72.87, 203.39 70.79 C 201.56 68.72, 198.40 64.40, 197.41 61.46 C 196.41 58.53, 197.08 55.42, 197.41 53.17 C 197.74 50.92, 198.07 49.89, 199.40 47.99 C 200.73 46.09, 203.55 43.15, 205.38 41.77 C 207.20 40.39, 207.54 39.87, 210.36 39.70 Z M 261.16 57.32 C 258.34 59.56, 254.19 72.35, 256.18 75.98 C 258.18 79.60, 267.64 77.0, 273.12 77.6 C 278.60 78.8, 284.91 81.4, 289.06 83.0 C 293.21 84.8, 296.5 88.3, 296.8 87.3 C 297.1 86.6, 293.71 80.5, 291.05 78.05 C 288.39 74.42, 285.07 71.31, 282.08 68.72 C 279.10 66.13, 276.60 64.40, 273.12 62.50 C 269.63 60.60, 263.99 55.07, 261.16 57.32 Z M 252.20 53.17 C 251.53 52.65, 249.87 53.00, 249.21 54.21 C 248.55 55.42, 248.88 58.18, 248.21 60.43 C 247.55 62.67, 245.89 65.44, 245.23 67.68 C 244.56 69.93, 244.06 72.69, 244.23 73.90 C 244.40 75.11, 245.56 74.94, 246.22 74.94 C 246.89 74.94, 247.05 76.84, 248.21 73.90 C 249.38 70.97, 252.53 60.77, 253.19 57.32 C 253.86 53.86, 252.86 53.69, 252.20 53.17 Z M 228.29 82.20 C 227.96 83.75, 220.82 83.38, 229.29 84.41 C 237.75 85.45, 270.79 84.59, 279.10 84.41 C 287.40 84.24, 280.59 84.07, 279.10 83.38 C 277.60 84.69, 274.28 83.30, 270.13 84.27 C 265.98 83.23, 257.84 81.68, 254.19 81.16 C 250.54 80.64, 249.38 81.33, 248.21 81.16 C 247.05 80.99, 250.04 80.47, 247.22 80.12 C 244.40 79.78, 234.43 78.74, 231.28 79.09 C 228.12 79.43, 228.62 80.64, 228.29 82.20 Z" fill="#ffffff" fill-rule="evenodd"/>
<path d="M 172.50 57.32 C 172.67 55.93, 174.16 52.48, 169.52 52.13 C 164.87 51.79, 148.76 54.55, 144.61 55.24 C 140.46 55.93, 142.45 55.93, 144.61 56.28 C 146.77 56.63, 153.58 56.63, 157.56 57.32 C 161.55 58.01, 166.03 60.43, 168.52 60.43 C 171.01 60.43, 172.34 58.70, 172.50 57.32 Z" fill="#ffffff" fill-rule="evenodd"/>
<path d="M 207.37 101.89 C 208.37 103.10, 210.52 103.62, 213.35 103.96 C 216.17 104.31, 221.81 105.00, 224.31 103.96 C 226.80 102.93, 229.62 98.61, 228.29 97.74 C 226.96 96.88, 219.82 98.95, 216.34 98.78 C 212.85 98.61, 208.86 96.19, 207.37 96.71 C 205.88 97.23, 206.37 100.68, 207.37 101.89 Z" fill="#ffffff" fill-rule="evenodd"/></g></g>
<g transform="translate(300.000,654.249) scale(1.17970)"><path d="M 443.18 8.54 L 438.29 8.22 L 433.18 8.19 L 427.89 8.03 L 422.68 8.00 L 417.43 8.11 L 412.65 8.60 L 412.42 13.47 L 412.07 18.63 L 412.06 23.70 L 412.34 28.89 L 412.09 33.97 L 412.18 39.01 L 412.33 44.02 L 412.82 49.33 L 412.84 54.50 L 412.24 58.93 L 408.52 55.73 L 405.41 51.89 L 402.17 48.03 L 397.35 45.70 L 392.51 43.76 L 387.20 43.71 L 381.90 44.03 L 376.72 44.22 L 371.26 44.47 L 366.72 46.91 L 362.47 49.62 L 358.47 53.79 L 354.35 58.44 L 352.25 63.75 L 350.29 68.97 L 348.37 74.16 L 348.00 79.28 L 347.84 84.47 L 348.11 89.33 L 348.08 94.28 L 347.94 99.28 L 348.09 104.49 L 347.96 109.56 L 348.33 114.47 L 348.49 119.52 L 348.63 124.40 L 350.06 128.81 L 351.25 133.05 L 353.08 137.19 L 356.56 141.41 L 360.11 145.65 L 363.59 150.00 L 367.37 151.94 L 371.39 153.34 L 375.33 155.18 L 379.81 154.97 L 384.50 155.22 L 388.75 155.16 L 393.28 155.15 L 397.57 152.92 L 402.02 150.38 L 406.11 148.14 L 409.46 144.39 L 412.21 141.06 L 412.61 145.01 L 412.49 149.76 L 413.54 154.36 L 418.55 155.10 L 423.43 155.13 L 428.42 154.80 L 433.47 154.71 L 438.49 154.45 L 442.83 154.04 L 443.53 149.52 L 443.41 144.36 L 443.43 139.31 L 443.57 134.19 L 443.43 129.25 L 443.20 124.09 L 443.32 119.15 L 443.07 114.03 L 443.19 109.23 L 443.33 104.07 L 443.28 99.06 L 442.88 94.14 L 443.08 88.97 L 443.03 83.98 L 443.19 78.88 L 443.36 73.97 L 443.50 68.94 L 443.37 63.72 L 443.69 58.78 L 443.69 53.73 L 443.59 48.71 L 443.77 43.78 L 443.90 38.69 L 443.66 33.59 L 443.69 28.69 L 443.88 23.38 L 443.80 18.59 L 443.58 13.28 Z M 8.55 44.57 L 8.27 49.52 L 8.24 54.29 L 8.13 59.52 L 8.00 64.44 L 8.24 69.36 L 8.18 74.50 L 8.17 79.43 L 8.01 84.43 L 8.24 89.48 L 8.04 94.34 L 8.20 99.52 L 8.19 104.58 L 8.32 109.42 L 8.42 114.36 L 8.08 119.40 L 8.08 124.48 L 8.26 129.53 L 8.35 134.42 L 8.15 139.48 L 8.48 144.43 L 8.36 149.35 L 8.82 154.07 L 13.57 154.33 L 18.70 153.93 L 23.92 153.97 L 29.14 153.96 L 33.66 153.73 L 33.76 149.30 L 34.13 144.18 L 34.06 138.94 L 33.89 133.83 L 34.03 128.72 L 33.87 123.80 L 34.28 118.69 L 34.24 113.52 L 34.41 108.37 L 34.38 103.03 L 34.55 98.17 L 34.40 92.81 L 34.46 87.60 L 34.49 82.61 L 34.71 77.67 L 34.57 72.63 L 37.00 69.61 L 39.75 66.65 L 44.25 66.71 L 47.02 69.87 L 49.26 73.57 L 49.34 78.60 L 49.41 83.40 L 49.04 88.61 L 48.90 93.54 L 48.81 98.59 L 48.78 103.71 L 48.77 108.88 L 49.09 113.84 L 49.10 118.84 L 48.90 124.06 L 48.85 129.16 L 49.20 134.07 L 48.97 139.21 L 49.01 144.14 L 49.09 149.34 L 49.75 154.12 L 54.80 154.57 L 60.44 154.65 L 66.03 154.44 L 71.02 154.00 L 71.29 149.59 L 71.03 144.68 L 71.13 139.68 L 71.13 134.62 L 71.26 129.68 L 71.57 124.77 L 71.66 119.71 L 71.54 114.78 L 71.53 109.95 L 71.61 105.13 L 71.79 99.97 L 71.89 95.00 L 71.84 90.09 L 72.10 85.27 L 72.12 80.16 L 72.28 75.26 L 72.66 70.36 L 76.33 66.37 L 82.18 66.58 L 86.28 71.13 L 86.58 76.10 L 86.58 81.04 L 86.66 85.92 L 86.54 90.75 L 86.59 95.70 L 86.31 100.79 L 86.22 105.49 L 86.07 110.38 L 86.32 115.26 L 86.13 120.26 L 86.11 125.02 L 85.96 129.93 L 85.81 134.80 L 85.94 139.68 L 86.07 144.52 L 85.88 149.49 L 86.55 154.48 L 91.68 154.78 L 96.98 154.79 L 102.12 154.53 L 107.38 154.69 L 111.91 153.99 L 112.60 149.17 L 112.58 144.22 L 112.47 139.24 L 112.43 133.95 L 112.26 128.69 L 112.42 123.80 L 112.19 118.71 L 112.44 113.60 L 112.43 108.52 L 112.11 103.20 L 112.44 98.12 L 112.43 93.00 L 112.40 88.12 L 112.13 82.93 L 112.19 77.65 L 112.08 72.72 L 112.09 67.63 L 111.80 62.43 L 110.06 57.47 L 107.94 52.81 L 103.49 48.79 L 99.21 45.28 L 94.01 44.40 L 88.80 44.27 L 83.56 44.00 L 78.65 47.08 L 73.60 50.50 L 71.87 53.78 L 70.23 56.81 L 68.43 53.21 L 66.42 49.41 L 63.43 46.70 L 60.42 44.44 L 55.45 43.81 L 50.30 43.35 L 45.36 43.23 L 39.56 46.33 L 36.30 50.74 L 33.86 54.27 L 33.15 49.72 L 32.35 44.63 L 27.73 44.07 L 22.96 44.34 L 18.02 44.22 L 13.24 44.28 Z M 488.41 45.37 L 484.15 47.82 L 479.69 50.09 L 475.49 52.46 L 471.37 55.18 L 468.76 59.59 L 466.18 63.59 L 463.56 68.11 L 461.20 72.52 L 460.98 77.24 L 461.04 82.35 L 461.05 87.41 L 460.93 92.37 L 460.78 97.53 L 460.89 102.35 L 461.08 107.34 L 461.08 112.27 L 460.92 117.48 L 461.21 122.41 L 462.76 129.13 L 465.52 133.81 L 468.68 138.46 L 471.60 143.19 L 475.55 145.83 L 479.83 148.33 L 484.16 151.00 L 488.35 153.60 L 492.36 154.62 L 496.64 155.36 L 501.26 155.49 L 506.13 155.38 L 510.82 155.69 L 515.70 155.55 L 520.47 155.88 L 524.93 154.59 L 529.16 153.28 L 533.41 151.61 L 537.76 148.13 L 541.98 144.68 L 546.18 141.05 L 550.06 137.41 L 552.13 132.93 L 553.47 128.02 L 554.71 124.11 L 550.36 124.03 L 545.49 123.92 L 540.45 123.80 L 535.32 123.70 L 530.27 123.68 L 525.57 123.72 L 522.16 127.09 L 518.35 130.59 L 513.01 131.11 L 507.76 131.48 L 502.12 131.45 L 496.42 128.53 L 493.94 125.29 L 491.68 122.14 L 490.86 117.14 L 490.20 111.73 L 490.33 107.06 L 494.71 106.84 L 499.89 106.93 L 504.92 106.58 L 509.92 106.47 L 515.12 106.47 L 520.42 106.08 L 525.59 105.99 L 530.76 105.99 L 535.73 105.74 L 541.03 105.67 L 546.00 105.69 L 551.21 105.37 L 555.94 105.07 L 556.13 100.57 L 556.26 95.49 L 556.30 90.35 L 556.18 85.34 L 555.93 80.37 L 556.05 75.43 L 554.44 71.16 L 552.84 66.80 L 549.70 62.36 L 546.41 57.81 L 543.32 53.53 L 539.00 51.20 L 534.59 48.72 L 530.15 46.35 L 525.43 44.15 L 520.45 43.95 L 515.65 43.71 L 510.79 43.51 L 506.14 43.55 L 501.42 43.49 L 496.56 43.43 L 492.41 44.34 Z M 124.59 44.70 L 124.22 49.67 L 124.18 54.77 L 124.20 59.75 L 123.99 64.97 L 124.15 70.19 L 123.98 75.20 L 124.12 80.42 L 124.16 85.72 L 124.36 90.80 L 124.21 95.90 L 124.02 100.86 L 124.30 106.07 L 124.46 111.20 L 124.50 116.24 L 125.48 121.13 L 126.75 125.61 L 128.05 130.15 L 130.36 134.54 L 132.72 139.00 L 136.47 142.19 L 140.25 145.67 L 143.56 149.04 L 147.80 150.80 L 151.90 152.09 L 156.23 153.85 L 160.65 155.11 L 165.15 155.35 L 170.12 155.48 L 174.80 155.38 L 179.77 155.46 L 184.49 155.50 L 189.44 153.31 L 194.44 151.57 L 199.47 149.34 L 204.38 147.21 L 207.75 143.89 L 211.40 140.42 L 214.58 136.42 L 216.39 132.20 L 218.05 127.82 L 219.64 123.27 L 219.66 118.61 L 219.71 113.67 L 219.84 108.70 L 219.57 103.76 L 219.52 98.77 L 219.57 93.87 L 219.47 88.77 L 219.65 83.87 L 219.78 78.94 L 219.89 73.96 L 219.88 69.22 L 219.79 64.27 L 220.19 59.10 L 220.16 54.41 L 220.13 49.45 L 219.79 44.94 L 215.34 44.85 L 209.93 44.87 L 204.73 44.62 L 199.70 44.52 L 194.58 44.49 L 190.04 44.81 L 189.65 49.19 L 189.32 54.28 L 189.20 59.09 L 189.23 64.00 L 189.09 68.98 L 188.76 74.02 L 188.69 79.01 L 189.00 83.87 L 189.03 88.75 L 189.06 93.81 L 189.38 98.59 L 189.21 103.48 L 189.25 108.35 L 189.14 113.38 L 187.77 117.32 L 186.07 121.16 L 181.95 124.93 L 177.35 128.11 L 171.96 128.72 L 166.40 128.17 L 162.25 126.30 L 159.10 121.91 L 156.51 117.26 L 155.85 112.39 L 155.70 107.53 L 155.61 102.66 L 155.59 97.98 L 155.56 93.11 L 155.60 88.28 L 155.50 83.47 L 155.70 78.43 L 155.69 73.53 L 155.65 68.74 L 155.66 63.74 L 156.01 59.06 L 155.75 54.02 L 155.63 49.23 L 155.21 44.75 L 150.21 44.03 L 145.21 44.11 L 140.10 44.28 L 134.81 44.39 L 129.58 44.24 Z M 660.37 49.29 L 655.98 47.03 L 651.26 45.05 L 646.33 43.19 L 641.49 43.19 L 636.80 43.16 L 632.10 43.00 L 627.35 43.32 L 622.35 45.34 L 617.49 47.42 L 613.88 51.16 L 610.60 55.16 L 607.52 58.78 L 606.67 54.47 L 606.41 49.35 L 605.68 45.09 L 601.45 45.05 L 596.55 44.68 L 591.52 44.95 L 586.41 44.67 L 581.45 44.85 L 576.76 44.94 L 576.42 49.49 L 576.51 54.27 L 576.18 59.34 L 576.34 64.44 L 576.42 69.34 L 576.56 74.43 L 576.29 79.24 L 576.40 84.30 L 576.39 89.48 L 576.26 94.30 L 575.84 99.25 L 575.83 104.38 L 576.12 109.27 L 576.23 114.54 L 576.21 119.40 L 576.05 124.47 L 576.13 129.30 L 576.24 134.51 L 576.79 139.42 L 576.66 144.35 L 576.78 149.28 L 576.98 153.93 L 581.65 154.33 L 586.74 154.33 L 591.77 154.24 L 597.23 154.02 L 602.18 154.14 L 606.80 153.96 L 606.99 149.46 L 607.23 144.35 L 607.25 139.29 L 607.24 134.25 L 607.28 129.42 L 607.30 124.43 L 607.69 119.49 L 607.87 114.30 L 608.07 109.44 L 608.20 104.37 L 608.06 99.45 L 607.89 94.36 L 607.55 89.43 L 607.61 84.51 L 609.45 79.90 L 611.73 75.71 L 616.46 71.77 L 621.07 71.14 L 625.68 70.67 L 630.22 70.46 L 634.35 72.67 L 638.17 76.86 L 641.29 81.38 L 642.04 85.92 L 642.25 90.79 L 642.94 94.70 L 647.77 94.92 L 653.14 94.93 L 658.29 95.17 L 663.88 95.24 L 669.23 95.32 L 673.85 95.07 L 674.21 90.34 L 674.38 85.05 L 674.30 79.77 L 674.16 74.48 L 673.82 69.34 L 672.12 65.18 L 670.37 61.38 L 667.06 57.29 L 664.09 53.26 Z M 324.55 49.39 L 319.71 47.21 L 315.30 45.05 L 310.48 43.41 L 305.79 43.12 L 301.07 43.33 L 296.25 43.09 L 291.40 43.34 L 286.24 45.12 L 281.40 47.27 L 277.89 51.42 L 274.42 55.31 L 271.62 58.59 L 270.97 54.53 L 270.53 49.48 L 269.57 45.10 L 265.53 44.75 L 260.59 44.97 L 255.37 44.91 L 250.37 44.72 L 245.41 44.81 L 240.94 44.93 L 240.41 49.37 L 240.24 54.29 L 240.29 59.53 L 240.25 64.52 L 240.32 69.52 L 240.40 74.47 L 240.30 79.40 L 240.24 84.37 L 240.11 89.28 L 240.18 94.41 L 240.08 99.27 L 239.99 104.46 L 240.11 109.29 L 240.27 114.41 L 240.13 119.37 L 239.99 124.25 L 240.33 129.53 L 240.47 134.42 L 240.54 139.43 L 240.61 144.28 L 240.82 149.21 L 241.35 153.73 L 245.79 154.30 L 250.89 154.23 L 256.09 154.14 L 261.15 154.09 L 266.23 154.16 L 270.91 153.95 L 271.25 149.25 L 271.15 144.53 L 271.12 139.35 L 271.33 134.54 L 271.39 129.50 L 271.24 124.39 L 271.57 119.55 L 271.63 114.36 L 271.74 109.41 L 272.06 104.55 L 271.96 99.54 L 271.83 94.55 L 271.82 89.54 L 271.79 84.54 L 273.50 79.78 L 275.72 75.45 L 280.30 71.90 L 284.99 71.22 L 289.70 70.57 L 294.42 70.40 L 298.48 72.55 L 301.96 76.85 L 305.38 81.49 L 305.97 86.03 L 306.35 90.57 L 307.24 94.69 L 311.68 95.09 L 317.21 95.02 L 322.41 95.09 L 327.78 95.36 L 333.13 95.50 L 337.97 95.16 L 338.20 90.06 L 338.41 85.01 L 338.17 79.69 L 338.09 74.46 L 337.90 69.38 L 336.36 65.11 L 334.62 61.07 L 331.19 57.51 L 327.71 53.33 Z M 390.47 70.20 L 395.85 70.08 L 401.23 70.42 L 405.32 72.46 L 408.90 77.33 L 411.88 82.39 L 412.16 87.22 L 412.05 92.08 L 412.35 96.86 L 412.56 101.78 L 412.61 106.74 L 412.73 111.53 L 412.43 116.49 L 410.46 121.26 L 405.97 124.69 L 401.21 127.86 L 396.80 127.78 L 392.20 127.31 L 387.53 127.06 L 384.73 124.09 L 381.83 120.96 L 379.15 117.35 L 379.43 112.30 L 379.25 107.02 L 379.50 101.84 L 379.80 96.72 L 379.82 91.55 L 379.73 86.66 L 379.36 81.39 L 382.18 75.54 L 386.08 72.54 Z M 489.32 82.57 L 490.84 78.32 L 492.40 74.30 L 497.74 70.00 L 502.52 67.78 L 506.87 67.38 L 511.13 67.55 L 515.35 67.25 L 518.78 69.75 L 522.03 72.86 L 525.18 75.61 L 525.92 81.31 L 526.67 86.98 L 522.28 88.15 L 516.88 87.65 L 511.69 87.94 L 506.25 87.69 L 500.95 87.57 L 495.64 88.39 L 490.36 88.10 Z" fill="#000000" stroke="#000000" stroke-width="25.430" stroke-linejoin="round" stroke-linecap="round" fill-rule="evenodd" shape-rendering="geometricPrecision"/><path d="M 443.18 8.54 L 438.29 8.22 L 433.18 8.19 L 427.89 8.03 L 422.68 8.00 L 417.43 8.11 L 412.65 8.60 L 412.42 13.47 L 412.07 18.63 L 412.06 23.70 L 412.34 28.89 L 412.09 33.97 L 412.18 39.01 L 412.33 44.02 L 412.82 49.33 L 412.84 54.50 L 412.24 58.93 L 408.52 55.73 L 405.41 51.89 L 402.17 48.03 L 397.35 45.70 L 392.51 43.76 L 387.20 43.71 L 381.90 44.03 L 376.72 44.22 L 371.26 44.47 L 366.72 46.91 L 362.47 49.62 L 358.47 53.79 L 354.35 58.44 L 352.25 63.75 L 350.29 68.97 L 348.37 74.16 L 348.00 79.28 L 347.84 84.47 L 348.11 89.33 L 348.08 94.28 L 347.94 99.28 L 348.09 104.49 L 347.96 109.56 L 348.33 114.47 L 348.49 119.52 L 348.63 124.40 L 350.06 128.81 L 351.25 133.05 L 353.08 137.19 L 356.56 141.41 L 360.11 145.65 L 363.59 150.00 L 367.37 151.94 L 371.39 153.34 L 375.33 155.18 L 379.81 154.97 L 384.50 155.22 L 388.75 155.16 L 393.28 155.15 L 397.57 152.92 L 402.02 150.38 L 406.11 148.14 L 409.46 144.39 L 412.21 141.06 L 412.61 145.01 L 412.49 149.76 L 413.54 154.36 L 418.55 155.10 L 423.43 155.13 L 428.42 154.80 L 433.47 154.71 L 438.49 154.45 L 442.83 154.04 L 443.53 149.52 L 443.41 144.36 L 443.43 139.31 L 443.57 134.19 L 443.43 129.25 L 443.20 124.09 L 443.32 119.15 L 443.07 114.03 L 443.19 109.23 L 443.33 104.07 L 443.28 99.06 L 442.88 94.14 L 443.08 88.97 L 443.03 83.98 L 443.19 78.88 L 443.36 73.97 L 443.50 68.94 L 443.37 63.72 L 443.69 58.78 L 443.69 53.73 L 443.59 48.71 L 443.77 43.78 L 443.90 38.69 L 443.66 33.59 L 443.69 28.69 L 443.88 23.38 L 443.80 18.59 L 443.58 13.28 Z M 8.55 44.57 L 8.27 49.52 L 8.24 54.29 L 8.13 59.52 L 8.00 64.44 L 8.24 69.36 L 8.18 74.50 L 8.17 79.43 L 8.01 84.43 L 8.24 89.48 L 8.04 94.34 L 8.20 99.52 L 8.19 104.58 L 8.32 109.42 L 8.42 114.36 L 8.08 119.40 L 8.08 124.48 L 8.26 129.53 L 8.35 134.42 L 8.15 139.48 L 8.48 144.43 L 8.36 149.35 L 8.82 154.07 L 13.57 154.33 L 18.70 153.93 L 23.92 153.97 L 29.14 153.96 L 33.66 153.73 L 33.76 149.30 L 34.13 144.18 L 34.06 138.94 L 33.89 133.83 L 34.03 128.72 L 33.87 123.80 L 34.28 118.69 L 34.24 113.52 L 34.41 108.37 L 34.38 103.03 L 34.55 98.17 L 34.40 92.81 L 34.46 87.60 L 34.49 82.61 L 34.71 77.67 L 34.57 72.63 L 37.00 69.61 L 39.75 66.65 L 44.25 66.71 L 47.02 69.87 L 49.26 73.57 L 49.34 78.60 L 49.41 83.40 L 49.04 88.61 L 48.90 93.54 L 48.81 98.59 L 48.78 103.71 L 48.77 108.88 L 49.09 113.84 L 49.10 118.84 L 48.90 124.06 L 48.85 129.16 L 49.20 134.07 L 48.97 139.21 L 49.01 144.14 L 49.09 149.34 L 49.75 154.12 L 54.80 154.57 L 60.44 154.65 L 66.03 154.44 L 71.02 154.00 L 71.29 149.59 L 71.03 144.68 L 71.13 139.68 L 71.13 134.62 L 71.26 129.68 L 71.57 124.77 L 71.66 119.71 L 71.54 114.78 L 71.53 109.95 L 71.61 105.13 L 71.79 99.97 L 71.89 95.00 L 71.84 90.09 L 72.10 85.27 L 72.12 80.16 L 72.28 75.26 L 72.66 70.36 L 76.33 66.37 L 82.18 66.58 L 86.28 71.13 L 86.58 76.10 L 86.58 81.04 L 86.66 85.92 L 86.54 90.75 L 86.59 95.70 L 86.31 100.79 L 86.22 105.49 L 86.07 110.38 L 86.32 115.26 L 86.13 120.26 L 86.11 125.02 L 85.96 129.93 L 85.81 134.80 L 85.94 139.68 L 86.07 144.52 L 85.88 149.49 L 86.55 154.48 L 91.68 154.78 L 96.98 154.79 L 102.12 154.53 L 107.38 154.69 L 111.91 153.99 L 112.60 149.17 L 112.58 144.22 L 112.47 139.24 L 112.43 133.95 L 112.26 128.69 L 112.42 123.80 L 112.19 118.71 L 112.44 113.60 L 112.43 108.52 L 112.11 103.20 L 112.44 98.12 L 112.43 93.00 L 112.40 88.12 L 112.13 82.93 L 112.19 77.65 L 112.08 72.72 L 112.09 67.63 L 111.80 62.43 L 110.06 57.47 L 107.94 52.81 L 103.49 48.79 L 99.21 45.28 L 94.01 44.40 L 88.80 44.27 L 83.56 44.00 L 78.65 47.08 L 73.60 50.50 L 71.87 53.78 L 70.23 56.81 L 68.43 53.21 L 66.42 49.41 L 63.43 46.70 L 60.42 44.44 L 55.45 43.81 L 50.30 43.35 L 45.36 43.23 L 39.56 46.33 L 36.30 50.74 L 33.86 54.27 L 33.15 49.72 L 32.35 44.63 L 27.73 44.07 L 22.96 44.34 L 18.02 44.22 L 13.24 44.28 Z M 488.41 45.37 L 484.15 47.82 L 479.69 50.09 L 475.49 52.46 L 471.37 55.18 L 468.76 59.59 L 466.18 63.59 L 463.56 68.11 L 461.20 72.52 L 460.98 77.24 L 461.04 82.35 L 461.05 87.41 L 460.93 92.37 L 460.78 97.53 L 460.89 102.35 L 461.08 107.34 L 461.08 112.27 L 460.92 117.48 L 461.21 122.41 L 462.76 129.13 L 465.52 133.81 L 468.68 138.46 L 471.60 143.19 L 475.55 145.83 L 479.83 148.33 L 484.16 151.00 L 488.35 153.60 L 492.36 154.62 L 496.64 155.36 L 501.26 155.49 L 506.13 155.38 L 510.82 155.69 L 515.70 155.55 L 520.47 155.88 L 524.93 154.59 L 529.16 153.28 L 533.41 151.61 L 537.76 148.13 L 541.98 144.68 L 546.18 141.05 L 550.06 137.41 L 552.13 132.93 L 553.47 128.02 L 554.71 124.11 L 550.36 124.03 L 545.49 123.92 L 540.45 123.80 L 535.32 123.70 L 530.27 123.68 L 525.57 123.72 L 522.16 127.09 L 518.35 130.59 L 513.01 131.11 L 507.76 131.48 L 502.12 131.45 L 496.42 128.53 L 493.94 125.29 L 491.68 122.14 L 490.86 117.14 L 490.20 111.73 L 490.33 107.06 L 494.71 106.84 L 499.89 106.93 L 504.92 106.58 L 509.92 106.47 L 515.12 106.47 L 520.42 106.08 L 525.59 105.99 L 530.76 105.99 L 535.73 105.74 L 541.03 105.67 L 546.00 105.69 L 551.21 105.37 L 555.94 105.07 L 556.13 100.57 L 556.26 95.49 L 556.30 90.35 L 556.18 85.34 L 555.93 80.37 L 556.05 75.43 L 554.44 71.16 L 552.84 66.80 L 549.70 62.36 L 546.41 57.81 L 543.32 53.53 L 539.00 51.20 L 534.59 48.72 L 530.15 46.35 L 525.43 44.15 L 520.45 43.95 L 515.65 43.71 L 510.79 43.51 L 506.14 43.55 L 501.42 43.49 L 496.56 43.43 L 492.41 44.34 Z M 124.59 44.70 L 124.22 49.67 L 124.18 54.77 L 124.20 59.75 L 123.99 64.97 L 124.15 70.19 L 123.98 75.20 L 124.12 80.42 L 124.16 85.72 L 124.36 90.80 L 124.21 95.90 L 124.02 100.86 L 124.30 106.07 L 124.46 111.20 L 124.50 116.24 L 125.48 121.13 L 126.75 125.61 L 128.05 130.15 L 130.36 134.54 L 132.72 139.00 L 136.47 142.19 L 140.25 145.67 L 143.56 149.04 L 147.80 150.80 L 151.90 152.09 L 156.23 153.85 L 160.65 155.11 L 165.15 155.35 L 170.12 155.48 L 174.80 155.38 L 179.77 155.46 L 184.49 155.50 L 189.44 153.31 L 194.44 151.57 L 199.47 149.34 L 204.38 147.21 L 207.75 143.89 L 211.40 140.42 L 214.58 136.42 L 216.39 132.20 L 218.05 127.82 L 219.64 123.27 L 219.66 118.61 L 219.71 113.67 L 219.84 108.70 L 219.57 103.76 L 219.52 98.77 L 219.57 93.87 L 219.47 88.77 L 219.65 83.87 L 219.78 78.94 L 219.89 73.96 L 219.88 69.22 L 219.79 64.27 L 220.19 59.10 L 220.16 54.41 L 220.13 49.45 L 219.79 44.94 L 215.34 44.85 L 209.93 44.87 L 204.73 44.62 L 199.70 44.52 L 194.58 44.49 L 190.04 44.81 L 189.65 49.19 L 189.32 54.28 L 189.20 59.09 L 189.23 64.00 L 189.09 68.98 L 188.76 74.02 L 188.69 79.01 L 189.00 83.87 L 189.03 88.75 L 189.06 93.81 L 189.38 98.59 L 189.21 103.48 L 189.25 108.35 L 189.14 113.38 L 187.77 117.32 L 186.07 121.16 L 181.95 124.93 L 177.35 128.11 L 171.96 128.72 L 166.40 128.17 L 162.25 126.30 L 159.10 121.91 L 156.51 117.26 L 155.85 112.39 L 155.70 107.53 L 155.61 102.66 L 155.59 97.98 L 155.56 93.11 L 155.60 88.28 L 155.50 83.47 L 155.70 78.43 L 155.69 73.53 L 155.65 68.74 L 155.66 63.74 L 156.01 59.06 L 155.75 54.02 L 155.63 49.23 L 155.21 44.75 L 150.21 44.03 L 145.21 44.11 L 140.10 44.28 L 134.81 44.39 L 129.58 44.24 Z M 660.37 49.29 L 655.98 47.03 L 651.26 45.05 L 646.33 43.19 L 641.49 43.19 L 636.80 43.16 L 632.10 43.00 L 627.35 43.32 L 622.35 45.34 L 617.49 47.42 L 613.88 51.16 L 610.60 55.16 L 607.52 58.78 L 606.67 54.47 L 606.41 49.35 L 605.68 45.09 L 601.45 45.05 L 596.55 44.68 L 591.52 44.95 L 586.41 44.67 L 581.45 44.85 L 576.76 44.94 L 576.42 49.49 L 576.51 54.27 L 576.18 59.34 L 576.34 64.44 L 576.42 69.34 L 576.56 74.43 L 576.29 79.24 L 576.40 84.30 L 576.39 89.48 L 576.26 94.30 L 575.84 99.25 L 575.83 104.38 L 576.12 109.27 L 576.23 114.54 L 576.21 119.40 L 576.05 124.47 L 576.13 129.30 L 576.24 134.51 L 576.79 139.42 L 576.66 144.35 L 576.78 149.28 L 576.98 153.93 L 581.65 154.33 L 586.74 154.33 L 591.77 154.24 L 597.23 154.02 L 602.18 154.14 L 606.80 153.96 L 606.99 149.46 L 607.23 144.35 L 607.25 139.29 L 607.24 134.25 L 607.28 129.42 L 607.30 124.43 L 607.69 119.49 L 607.87 114.30 L 608.07 109.44 L 608.20 104.37 L 608.06 99.45 L 607.89 94.36 L 607.55 89.43 L 607.61 84.51 L 609.45 79.90 L 611.73 75.71 L 616.46 71.77 L 621.07 71.14 L 625.68 70.67 L 630.22 70.46 L 634.35 72.67 L 638.17 76.86 L 641.29 81.38 L 642.04 85.92 L 642.25 90.79 L 642.94 94.70 L 647.77 94.92 L 653.14 94.93 L 658.29 95.17 L 663.88 95.24 L 669.23 95.32 L 673.85 95.07 L 674.21 90.34 L 674.38 85.05 L 674.30 79.77 L 674.16 74.48 L 673.82 69.34 L 672.12 65.18 L 670.37 61.38 L 667.06 57.29 L 664.09 53.26 Z M 324.55 49.39 L 319.71 47.21 L 315.30 45.05 L 310.48 43.41 L 305.79 43.12 L 301.07 43.33 L 296.25 43.09 L 291.40 43.34 L 286.24 45.12 L 281.40 47.27 L 277.89 51.42 L 274.42 55.31 L 271.62 58.59 L 270.97 54.53 L 270.53 49.48 L 269.57 45.10 L 265.53 44.75 L 260.59 44.97 L 255.37 44.91 L 250.37 44.72 L 245.41 44.81 L 240.94 44.93 L 240.41 49.37 L 240.24 54.29 L 240.29 59.53 L 240.25 64.52 L 240.32 69.52 L 240.40 74.47 L 240.30 79.40 L 240.24 84.37 L 240.11 89.28 L 240.18 94.41 L 240.08 99.27 L 239.99 104.46 L 240.11 109.29 L 240.27 114.41 L 240.13 119.37 L 239.99 124.25 L 240.33 129.53 L 240.47 134.42 L 240.54 139.43 L 240.61 144.28 L 240.82 149.21 L 241.35 153.73 L 245.79 154.30 L 250.89 154.23 L 256.09 154.14 L 261.15 154.09 L 266.23 154.16 L 270.91 153.95 L 271.25 149.25 L 271.15 144.53 L 271.12 139.35 L 271.33 134.54 L 271.39 129.50 L 271.24 124.39 L 271.57 119.55 L 271.63 114.36 L 271.74 109.41 L 272.06 104.55 L 271.96 99.54 L 271.83 94.55 L 271.82 89.54 L 271.79 84.54 L 273.50 79.78 L 275.72 75.45 L 280.30 71.90 L 284.99 71.22 L 289.70 70.57 L 294.42 70.40 L 298.48 72.55 L 301.96 76.85 L 305.38 81.49 L 305.97 86.03 L 306.35 90.57 L 307.24 94.69 L 311.68 95.09 L 317.21 95.02 L 322.41 95.09 L 327.78 95.36 L 333.13 95.50 L 337.97 95.16 L 338.20 90.06 L 338.41 85.01 L 338.17 79.69 L 338.09 74.46 L 337.90 69.38 L 336.36 65.11 L 334.62 61.07 L 331.19 57.51 L 327.71 53.33 Z M 390.47 70.20 L 395.85 70.08 L 401.23 70.42 L 405.32 72.46 L 408.90 77.33 L 411.88 82.39 L 412.16 87.22 L 412.05 92.08 L 412.35 96.86 L 412.56 101.78 L 412.61 106.74 L 412.73 111.53 L 412.43 116.49 L 410.46 121.26 L 405.97 124.69 L 401.21 127.86 L 396.80 127.78 L 392.20 127.31 L 387.53 127.06 L 384.73 124.09 L 381.83 120.96 L 379.15 117.35 L 379.43 112.30 L 379.25 107.02 L 379.50 101.84 L 379.80 96.72 L 379.82 91.55 L 379.73 86.66 L 379.36 81.39 L 382.18 75.54 L 386.08 72.54 Z M 489.32 82.57 L 490.84 78.32 L 492.40 74.30 L 497.74 70.00 L 502.52 67.78 L 506.87 67.38 L 511.13 67.55 L 515.35 67.25 L 518.78 69.75 L 522.03 72.86 L 525.18 75.61 L 525.92 81.31 L 526.67 86.98 L 522.28 88.15 L 516.88 87.65 L 511.69 87.94 L 506.25 87.69 L 500.95 87.57 L 495.64 88.39 L 490.36 88.10 Z" fill="#ffffff" fill-rule="evenodd" shape-rendering="geometricPrecision"/></g>
</svg>
