<svg xmlns="http://www.w3.org/2000/svg" width="1405.00" height="473.33" viewBox="0 0 1405.00 473.33">
<g transform="translate(300.000,140.000) scale(1.17970)"><path d="M 443.18 8.54 L 438.29 8.22 L 433.18 8.19 L 427.89 8.03 L 422.68 8.00 L 417.43 8.11 L 412.65 8.60 L 412.42 13.47 L 412.07 18.63 L 412.06 23.70 L 412.34 28.89 L 412.09 33.97 L 412.18 39.01 L 412.33 44.02 L 412.82 49.33 L 412.84 54.50 L 412.24 58.93 L 408.52 55.73 L 405.41 51.89 L 402.17 48.03 L 397.35 45.70 L 392.51 43.76 L 387.20 43.71 L 381.90 44.03 L 376.72 44.22 L 371.26 44.47 L 366.72 46.91 L 362.47 49.62 L 358.47 53.79 L 354.35 58.44 L 352.25 63.75 L 350.29 68.97 L 348.37 74.16 L 348.00 79.28 L 347.84 84.47 L 348.11 89.33 L 348.08 94.28 L 347.94 99.28 L 348.09 104.49 L 347.96 109.56 L 348.33 114.47 L 348.49 119.52 L 348.63 124.40 L 350.06 128.81 L 351.25 133.05 L 353.08 137.19 L 356.56 141.41 L 360.11 145.65 L 363.59 150.00 L 367.37 151.94 L 371.39 153.34 L 375.33 155.18 L 379.81 154.97 L 384.50 155.22 L 388.75 155.16 L 393.28 155.15 L 397.57 152.92 L 402.02 150.38 L 406.11 148.14 L 409.46 144.39 L 412.21 141.06 L 412.61 145.01 L 412.49 149.76 L 413.54 154.36 L 418.55 155.10 L 423.43 155.13 L 428.42 154.80 L 433.47 154.71 L 438.49 154.45 L 442.83 154.04 L 443.53 149.52 L 443.41 144.36 L 443.43 139.31 L 443.57 134.19 L 443.43 129.25 L 443.20 124.09 L 443.32 119.15 L 443.07 114.03 L 443.19 109.23 L 443.33 104.07 L 443.28 99.06 L 442.88 94.14 L 443.08 88.97 L 443.03 83.98 L 443.19 78.88 L 443.36 73.97 L 443.50 68.94 L 443.37 63.72 L 443.69 58.78 L 443.69 53.73 L 443.59 48.71 L 443.77 43.78 L 443.90 38.69 L 443.66 33.59 L 443.69 28.69 L 443.88 23.38 L 443.80 18.59 L 443.58 13.28 Z M 8.55 44.57 L 8.27 49.52 L 8.24 54.29 L 8.13 59.52 L 8.00 64.44 L 8.24 69.36 L 8.18 74.50 L 8.17 79.43 L 8.01 84.43 L 8.24 89.48 L 8.04 94.34 L 8.20 99.52 L 8.19 104.58 L 8.32 109.42 L 8.42 114.36 L 8.08 119.40 L 8.08 124.48 L 8.26 129.53 L 8.35 134.42 L 8.15 139.48 L 8.48 144.43 L 8.36 149.35 L 8.82 154.07 L 13.57 154.33 L 18.70 153.93 L 23.92 153.97 L 29.14 153.96 L 33.66 153.73 L 33.76 149.30 L 34.13 144.18 L 34.06 138.94 L 33.89 133.83 L 34.03 128.72 L 33.87 123.80 L 34.28 118.69 L 34.24 113.52 L 34.41 108.37 L 34.38 103.03 L 34.55 98.17 L 34.40 92.81 L 34.46 87.60 L 34.49 82.61 L 34.71 77.67 L 34.57 72.63 L 37.00 69.61 L 39.75 66.65 L 44.25 66.71 L 47.02 69.87 L 49.26 73.57 L 49.34 78.60 L 49.41 83.40 L 49.04 88.61 L 48.90 93.54 L 48.81 98.59 L 48.78 103.71 L 48.77 108.88 L 49.09 113.84 L 49.10 118.84 L 48.90 124.06 L 48.85 129.16 L 49.20 134.07 L 48.97 139.21 L 49.01 144.14 L 49.09 149.34 L 49.75 154.12 L 54.80 154.57 L 60.44 154.65 L 66.03 154.44 L 71.02 154.00 L 71.29 149.59 L 71.03 144.68 L 71.13 139.68 L 71.13 134.62 L 71.26 129.68 L 71.57 124.77 L 71.66 119.71 L 71.54 114.78 L 71.53 109.95 L 71.61 105.13 L 71.79 99.97 L 71.89 95.00 L 71.84 90.09 L 72.10 85.27 L 72.12 80.16 L 72.28 75.26 L 72.66 70.36 L 76.33 66.37 L 82.18 66.58 L 86.28 71.13 L 86.58 76.10 L 86.58 81.04 L 86.66 85.92 L 86.54 90.75 L 86.59 95.70 L 86.31 100.79 L 86.22 105.49 L 86.07 110.38 L 86.32 115.26 L 86.13 120.26 L 86.11 125.02 L 85.96 129.93 L 85.81 134.80 L 85.94 139.68 L 86.07 144.52 L 85.88 149.49 L 86.55 154.48 L 91.68 154.78 L 96.98 154.79 L 102.12 154.53 L 107.38 154.69 L 111.91 153.99 L 112.60 149.17 L 112.58 144.22 L 112.47 139.24 L 112.43 133.95 L 112.26 128.69 L 112.42 123.80 L 112.19 118.71 L 112.44 113.60 L 112.43 108.52 L 112.11 103.20 L 112.44 98.12 L 112.43 93.00 L 112.40 88.12 L 112.13 82.93 L 112.19 77.65 L 112.08 72.72 L 112.09 67.63 L 111.80 62.43 L 110.06 57.47 L 107.94 52.81 L 103.49 48.79 L 99.21 45.28 L 94.01 44.40 L 88.80 44.27 L 83.56 44.00 L 78.65 47.08 L 73.60 50.50 L 71.87 53.78 L 70.23 56.81 L 68.43 53.21 L 66.42 49.41 L 63.43 46.70 L 60.42 44.44 L 55.45 43.81 L 50.30 43.35 L 45.36 43.23 L 39.56 46.33 L 36.30 50.74 L 33.86 54.27 L 33.15 49.72 L 32.35 44.63 L 27.73 44.07 L 22.96 44.34 L 18.02 44.22 L 13.24 44.28 Z M 488.41 45.37 L 484.15 47.82 L 479.69 50.09 L 475.49 52.46 L 471.37 55.18 L 468.76 59.59 L 466.18 63.59 L 463.56 68.11 L 461.20 72.52 L 460.98 77.24 L 461.04 82.35 L 461.05 87.41 L 460.93 92.37 L 460.78 97.53 L 460.89 102.35 L 461.08 107.34 L 461.08 112.27 L 460.92 117.48 L 461.21 122.41 L 462.76 129.13 L 465.52 133.81 L 468.68 138.46 L 471.60 143.19 L 475.55 145.83 L 479.83 148.33 L 484.16 151.00 L 488.35 153.60 L 492.36 154.62 L 496.64 155.36 L 501.26 155.49 L 506.13 155.38 L 510.82 155.69 L 515.70 155.55 L 520.47 155.88 L 524.93 154.59 L 529.16 153.28 L 533.41 151.61 L 537.76 148.13 L 541.98 144.68 L 546.18 141.05 L 550.06 137.41 L 552.13 132.93 L 553.47 128.02 L 554.71 124.11 L 550.36 124.03 L 545.49 123.92 L 540.45 123.80 L 535.32 123.70 L 530.27 123.68 L 525.57 123.72 L 522.16 127.09 L 518.35 130.59 L 513.01 131.11 L 507.76 131.48 L 502.12 131.45 L 496.42 128.53 L 493.94 125.29 L 491.68 122.14 L 490.86 117.14 L 490.20 111.73 L 490.33 107.06 L 494.71 106.84 L 499.89 106.93 L 504.92 106.58 L 509.92 106.47 L 515.12 106.47 L 520.42 106.08 L 525.59 105.99 L 530.76 105.99 L 535.73 105.74 L 541.03 105.67 L 546.00 105.69 L 551.21 105.37 L 555.94 105.07 L 556.13 100.57 L 556.26 95.49 L 556.30 90.35 L 556.18 85.34 L 555.93 80.37 L 556.05 75.43 L 554.44 71.16 L 552.84 66.80 L 549.70 62.36 L 546.41 57.81 L 543.32 53.53 L 539.00 51.20 L 534.59 48.72 L 530.15 46.35 L 525.43 44.15 L 520.45 43.95 L 515.65 43.71 L 510.79 43.51 L 506.14 43.55 L 501.42 43.49 L 496.56 43.43 L 492.41 44.34 Z M 124.59 44.70 L 124.22 49.67 L 124.18 54.77 L 124.20 59.75 L 123.99 64.97 L 124.15 70.19 L 123.98 75.20 L 124.12 80.42 L 124.16 85.72 L 124.36 90.80 L 124.21 95.90 L 124.02 100.86 L 124.30 106.07 L 124.46 111.20 L 124.50 116.24 L 125.48 121.13 L 126.75 125.61 L 128.05 130.15 L 130.36 134.54 L 132.72 139.00 L 136.47 142.19 L 140.25 145.67 L 143.56 149.04 L 147.80 150.80 L 151.90 152.09 L 156.23 153.85 L 160.65 155.11 L 165.15 155.35 L 170.12 155.48 L 174.80 155.38 L 179.77 155.46 L 184.49 155.50 L 189.44 153.31 L 194.44 151.57 L 199.47 149.34 L 204.38 147.21 L 207.75 143.89 L 211.40 140.42 L 214.58 136.42 L 216.39 132.20 L 218.05 127.82 L 219.64 123.27 L 219.66 118.61 L 219.71 113.67 L 219.84 108.70 L 219.57 103.76 L 219.52 98.77 L 219.57 93.87 L 219.47 88.77 L 219.65 83.87 L 219.78 78.94 L 219.89 73.96 L 219.88 69.22 L 219.79 64.27 L 220.19 59.10 L 220.16 54.41 L 220.13 49.45 L 219.79 44.94 L 215.34 44.85 L 209.93 44.87 L 204.73 44.62 L 199.70 44.52 L 194.58 44.49 L 190.04 44.81 L 189.65 49.19 L 189.32 54.28 L 189.20 59.09 L 189.23 64.00 L 189.09 68.98 L 188.76 74.02 L 188.69 79.01 L 189.00 83.87 L 189.03 88.75 L 189.06 93.81 L 189.38 98.59 L 189.21 103.48 L 189.25 108.35 L 189.14 113.38 L 187.77 117.32 L 186.07 121.16 L 181.95 124.93 L 177.35 128.11 L 171.96 128.72 L 166.40 128.17 L 162.25 126.30 L 159.10 121.91 L 156.51 117.26 L 155.85 112.39 L 155.70 107.53 L 155.61 102.66 L 155.59 97.98 L 155.56 93.11 L 155.60 88.28 L 155.50 83.47 L 155.70 78.43 L 155.69 73.53 L 155.65 68.74 L 155.66 63.74 L 156.01 59.06 L 155.75 54.02 L 155.63 49.23 L 155.21 44.75 L 150.21 44.03 L 145.21 44.11 L 140.10 44.28 L 134.81 44.39 L 129.58 44.24 Z M 660.37 49.29 L 655.98 47.03 L 651.26 45.05 L 646.33 43.19 L 641.49 43.19 L 636.80 43.16 L 632.10 43.00 L 627.35 43.32 L 622.35 45.34 L 617.49 47.42 L 613.88 51.16 L 610.60 55.16 L 607.52 58.78 L 606.67 54.47 L 606.41 49.35 L 605.68 45.09 L 601.45 45.05 L 596.55 44.68 L 591.52 44.95 L 586.41 44.67 L 581.45 44.85 L 576.76 44.94 L 576.42 49.49 L 576.51 54.27 L 576.18 59.34 L 576.34 64.44 L 576.42 69.34 L 576.56 74.43 L 576.29 79.24 L 576.40 84.30 L 576.39 89.48 L 576.26 94.30 L 575.84 99.25 L 575.83 104.38 L 576.12 109.27 L 576.23 114.54 L 576.21 119.40 L 576.05 124.47 L 576.13 129.30 L 576.24 134.51 L 576.79 139.42 L 576.66 144.35 L 576.78 149.28 L 576.98 153.93 L 581.65 154.33 L 586.74 154.33 L 591.77 154.24 L 597.23 154.02 L 602.18 154.14 L 606.80 153.96 L 606.99 149.46 L 607.23 144.35 L 607.25 139.29 L 607.24 134.25 L 607.28 129.42 L 607.30 124.43 L 607.69 119.49 L 607.87 114.30 L 608.07 109.44 L 608.20 104.37 L 608.06 99.45 L 607.89 94.36 L 607.55 89.43 L 607.61 84.51 L 609.45 79.90 L 611.73 75.71 L 616.46 71.77 L 621.07 71.14 L 625.68 70.67 L 630.22 70.46 L 634.35 72.67 L 638.17 76.86 L 641.29 81.38 L 642.04 85.92 L 642.25 90.79 L 642.94 94.70 L 647.77 94.92 L 653.14 94.93 L 658.29 95.17 L 663.88 95.24 L 669.23 95.32 L 673.85 95.07 L 674.21 90.34 L 674.38 85.05 L 674.30 79.77 L 674.16 74.48 L 673.82 69.34 L 672.12 65.18 L 670.37 61.38 L 667.06 57.29 L 664.09 53.26 Z M 324.55 49.39 L 319.71 47.21 L 315.30 45.05 L 310.48 43.41 L 305.79 43.12 L 301.07 43.33 L 296.25 43.09 L 291.40 43.34 L 286.24 45.12 L 281.40 47.27 L 277.89 51.42 L 274.42 55.31 L 271.62 58.59 L 270.97 54.53 L 270.53 49.48 L 269.57 45.10 L 265.53 44.75 L 260.59 44.97 L 255.37 44.91 L 250.37 44.72 L 245.41 44.81 L 240.94 44.93 L 240.41 49.37 L 240.24 54.29 L 240.29 59.53 L 240.25 64.52 L 240.32 69.52 L 240.40 74.47 L 240.30 79.40 L 240.24 84.37 L 240.11 89.28 L 240.18 94.41 L 240.08 99.27 L 239.99 104.46 L 240.11 109.29 L 240.27 114.41 L 240.13 119.37 L 239.99 124.25 L 240.33 129.53 L 240.47 134.42 L 240.54 139.43 L 240.61 144.28 L 240.82 149.21 L 241.35 153.73 L 245.79 154.30 L 250.89 154.23 L 256.09 154.14 L 261.15 154.09 L 266.23 154.16 L 270.91 153.95 L 271.25 149.25 L 271.15 144.53 L 271.12 139.35 L 271.33 134.54 L 271.39 129.50 L 271.24 124.39 L 271.57 119.55 L 271.63 114.36 L 271.74 109.41 L 272.06 104.55 L 271.96 99.54 L 271.83 94.55 L 271.82 89.54 L 271.79 84.54 L 273.50 79.78 L 275.72 75.45 L 280.30 71.90 L 284.99 71.22 L 289.70 70.57 L 294.42 70.40 L 298.48 72.55 L 301.96 76.85 L 305.38 81.49 L 305.97 86.03 L 306.35 90.57 L 307.24 94.69 L 311.68 95.09 L 317.21 95.02 L 322.41 95.09 L 327.78 95.36 L 333.13 95.50 L 337.97 95.16 L 338.20 90.06 L 338.41 85.01 L 338.17 79.69 L 338.09 74.46 L 337.90 69.38 L 336.36 65.11 L 334.62 61.07 L 331.19 57.51 L 327.71 53.33 Z M 390.47 70.20 L 395.85 70.08 L 401.23 70.42 L 405.32 72.46 L 408.90 77.33 L 411.88 82.39 L 412.16 87.22 L 412.05 92.08 L 412.35 96.86 L 412.56 101.78 L 412.61 106.74 L 412.73 111.53 L 412.43 116.49 L 410.46 121.26 L 405.97 124.69 L 401.21 127.86 L 396.80 127.78 L 392.20 127.31 L 387.53 127.06 L 384.73 124.09 L 381.83 120.96 L 379.15 117.35 L 379.43 112.30 L 379.25 107.02 L 379.50 101.84 L 379.80 96.72 L 379.82 91.55 L 379.73 86.66 L 379.36 81.39 L 382.18 75.54 L 386.08 72.54 Z M 489.32 82.57 L 490.84 78.32 L 492.40 74.30 L 497.74 70.00 L 502.52 67.78 L 506.87 67.38 L 511.13 67.55 L 515.35 67.25 L 518.78 69.75 L 522.03 72.86 L 525.18 75.61 L 525.92 81.31 L 526.67 86.98 L 522.28 88.15 L 516.88 87.65 L 511.69 87.94 L 506.25 87.69 L 500.95 87.57 L 495.64 88.39 L 490.36 88.10 Z" fill="#000000" stroke="#000000" stroke-width="25.430" stroke-linejoin="round" stroke-linecap="round" fill-rule="evenodd" shape-rendering="geometricPrecision"/><path d="M 443.18 8.54 L 438.29 8.22 L 433.18 8.19 L 427.89 8.03 L 422.68 8.00 L 417.43 8.11 L 412.65 8.60 L 412.42 13.47 L 412.07 18.63 L 412.06 23.70 L 412.34 28.89 L 412.09 33.97 L 412.18 39.01 L 412.33 44.02 L 412.82 49.33 L 412.84 54.50 L 412.24 58.93 L 408.52 55.73 L 405.41 51.89 L 402.17 48.03 L 397.35 45.70 L 392.51 43.76 L 387.20 43.71 L 381.90 44.03 L 376.72 44.22 L 371.26 44.47 L 366.72 46.91 L 362.47 49.62 L 358.47 53.79 L 354.35 58.44 L 352.25 63.75 L 350.29 68.97 L 348.37 74.16 L 348.00 79.28 L 347.84 84.47 L 348.11 89.33 L 348.08 94.28 L 347.94 99.28 L 348.09 104.49 L 347.96 109.56 L 348.33 114.47 L 348.49 119.52 L 348.63 124.40 L 350.06 128.81 L 351.25 133.05 L 353.08 137.19 L 356.56 141.41 L 360.11 145.65 L 363.59 150.00 L 367.37 151.94 L 371.39 153.34 L 375.33 155.18 L 379.81 154.97 L 384.50 155.22 L 388.75 155.16 L 393.28 155.15 L 397.57 152.92 L 402.02 150.38 L 406.11 148.14 L 409.46 144.39 L 412.21 141.06 L 412.61 145.01 L 412.49 149.76 L 413.54 154.36 L 418.55 155.10 L 423.43 155.13 L 428.42 154.80 L 433.47 154.71 L 438.49 154.45 L 442.83 154.04 L 443.53 149.52 L 443.41 144.36 L 443.43 139.31 L 443.57 134.19 L 443.43 129.25 L 443.20 124.09 L 443.32 119.15 L 443.07 114.03 L 443.19 109.23 L 443.33 104.07 L 443.28 99.06 L 442.88 94.14 L 443.08 88.97 L 443.03 83.98 L 443.19 78.88 L 443.36 73.97 L 443.50 68.94 L 443.37 63.72 L 443.69 58.78 L 443.69 53.73 L 443.59 48.71 L 443.77 43.78 L 443.90 38.69 L 443.66 33.59 L 443.69 28.69 L 443.88 23.38 L 443.80 18.59 L 443.58 13.28 Z M 8.55 44.57 L 8.27 49.52 L 8.24 54.29 L 8.13 59.52 L 8.00 64.44 L 8.24 69.36 L 8.18 74.50 L 8.17 79.43 L 8.01 84.43 L 8.24 89.48 L 8.04 94.34 L 8.20 99.52 L 8.19 104.58 L 8.32 109.42 L 8.42 114.36 L 8.08 119.40 L 8.08 124.48 L 8.26 129.53 L 8.35 134.42 L 8.15 139.48 L 8.48 144.43 L 8.36 149.35 L 8.82 154.07 L 13.57 154.33 L 18.70 153.93 L 23.92 153.97 L 29.14 153.96 L 33.66 153.73 L 33.76 149.30 L 34.13 144.18 L 34.06 138.94 L 33.89 133.83 L 34.03 128.72 L 33.87 123.80 L 34.28 118.69 L 34.24 113.52 L 34.41 108.37 L 34.38 103.03 L 34.55 98.17 L 34.40 92.81 L 34.46 87.60 L 34.49 82.61 L 34.71 77.67 L 34.57 72.63 L 37.00 69.61 L 39.75 66.65 L 44.25 66.71 L 47.02 69.87 L 49.26 73.57 L 49.34 78.60 L 49.41 83.40 L 49.04 88.61 L 48.90 93.54 L 48.81 98.59 L 48.78 103.71 L 48.77 108.88 L 49.09 113.84 L 49.10 118.84 L 48.90 124.06 L 48.85 129.16 L 49.20 134.07 L 48.97 139.21 L 49.01 144.14 L 49.09 149.34 L 49.75 154.12 L 54.80 154.57 L 60.44 154.65 L 66.03 154.44 L 71.02 154.00 L 71.29 149.59 L 71.03 144.68 L 71.13 139.68 L 71.13 134.62 L 71.26 129.68 L 71.57 124.77 L 71.66 119.71 L 71.54 114.78 L 71.53 109.95 L 71.61 105.13 L 71.79 99.97 L 71.89 95.00 L 71.84 90.09 L 72.10 85.27 L 72.12 80.16 L 72.28 75.26 L 72.66 70.36 L 76.33 66.37 L 82.18 66.58 L 86.28 71.13 L 86.58 76.10 L 86.58 81.04 L 86.66 85.92 L 86.54 90.75 L 86.59 95.70 L 86.31 100.79 L 86.22 105.49 L 86.07 110.38 L 86.32 115.26 L 86.13 120.26 L 86.11 125.02 L 85.96 129.93 L 85.81 134.80 L 85.94 139.68 L 86.07 144.52 L 85.88 149.49 L 86.55 154.48 L 91.68 154.78 L 96.98 154.79 L 102.12 154.53 L 107.38 154.69 L 111.91 153.99 L 112.60 149.17 L 112.58 144.22 L 112.47 139.24 L 112.43 133.95 L 112.26 128.69 L 112.42 123.80 L 112.19 118.71 L 112.44 113.60 L 112.43 108.52 L 112.11 103.20 L 112.44 98.12 L 112.43 93.00 L 112.40 88.12 L 112.13 82.93 L 112.19 77.65 L 112.08 72.72 L 112.09 67.63 L 111.80 62.43 L 110.06 57.47 L 107.94 52.81 L 103.49 48.79 L 99.21 45.28 L 94.01 44.40 L 88.80 44.27 L 83.56 44.00 L 78.65 47.08 L 73.60 50.50 L 71.87 53.78 L 70.23 56.81 L 68.43 53.21 L 66.42 49.41 L 63.43 46.70 L 60.42 44.44 L 55.45 43.81 L 50.30 43.35 L 45.36 43.23 L 39.56 46.33 L 36.30 50.74 L 33.86 54.27 L 33.15 49.72 L 32.35 44.63 L 27.73 44.07 L 22.96 44.34 L 18.02 44.22 L 13.24 44.28 Z M 488.41 45.37 L 484.15 47.82 L 479.69 50.09 L 475.49 52.46 L 471.37 55.18 L 468.76 59.59 L 466.18 63.59 L 463.56 68.11 L 461.20 72.52 L 460.98 77.24 L 461.04 82.35 L 461.05 87.41 L 460.93 92.37 L 460.78 97.53 L 460.89 102.35 L 461.08 107.34 L 461.08 112.27 L 460.92 117.48 L 461.21 122.41 L 462.76 129.13 L 465.52 133.81 L 468.68 138.46 L 471.60 143.19 L 475.55 145.83 L 479.83 148.33 L 484.16 151.00 L 488.35 153.60 L 492.36 154.62 L 496.64 155.36 L 501.26 155.49 L 506.13 155.38 L 510.82 155.69 L 515.70 155.55 L 520.47 155.88 L 524.93 154.59 L 529.16 153.28 L 533.41 151.61 L 537.76 148.13 L 541.98 144.68 L 546.18 141.05 L 550.06 137.41 L 552.13 132.93 L 553.47 128.02 L 554.71 124.11 L 550.36 124.03 L 545.49 123.92 L 540.45 123.80 L 535.32 123.70 L 530.27 123.68 L 525.57 123.72 L 522.16 127.09 L 518.35 130.59 L 513.01 131.11 L 507.76 131.48 L 502.12 131.45 L 496.42 128.53 L 493.94 125.29 L 491.68 122.14 L 490.86 117.14 L 490.20 111.73 L 490.33 107.06 L 494.71 106.84 L 499.89 106.93 L 504.92 106.58 L 509.92 106.47 L 515.12 106.47 L 520.42 106.08 L 525.59 105.99 L 530.76 105.99 L 535.73 105.74 L 541.03 105.67 L 546.00 105.69 L 551.21 105.37 L 555.94 105.07 L 556.13 100.57 L 556.26 95.49 L 556.30 90.35 L 556.18 85.34 L 555.93 80.37 L 556.05 75.43 L 554.44 71.16 L 552.84 66.80 L 549.70 62.36 L 546.41 57.81 L 543.32 53.53 L 539.00 51.20 L 534.59 48.72 L 530.15 46.35 L 525.43 44.15 L 520.45 43.95 L 515.65 43.71 L 510.79 43.51 L 506.14 43.55 L 501.42 43.49 L 496.56 43.43 L 492.41 44.34 Z M 124.59 44.70 L 124.22 49.67 L 124.18 54.77 L 124.20 59.75 L 123.99 64.97 L 124.15 70.19 L 123.98 75.20 L 124.12 80.42 L 124.16 85.72 L 124.36 90.80 L 124.21 95.90 L 124.02 100.86 L 124.30 106.07 L 124.46 111.20 L 124.50 116.24 L 125.48 121.13 L 126.75 125.61 L 128.05 130.15 L 130.36 134.54 L 132.72 139.00 L 136.47 142.19 L 140.25 145.67 L 143.56 149.04 L 147.80 150.80 L 151.90 152.09 L 156.23 153.85 L 160.65 155.11 L 165.15 155.35 L 170.12 155.48 L 174.80 155.38 L 179.77 155.46 L 184.49 155.50 L 189.44 153.31 L 194.44 151.57 L 199.47 149.34 L 204.38 147.21 L 207.75 143.89 L 211.40 140.42 L 214.58 136.42 L 216.39 132.20 L 218.05 127.82 L 219.64 123.27 L 219.66 118.61 L 219.71 113.67 L 219.84 108.70 L 219.57 103.76 L 219.52 98.77 L 219.57 93.87 L 219.47 88.77 L 219.65 83.87 L 219.78 78.94 L 219.89 73.96 L 219.88 69.22 L 219.79 64.27 L 220.19 59.10 L 220.16 54.41 L 220.13 49.45 L 219.79 44.94 L 215.34 44.85 L 209.93 44.87 L 204.73 44.62 L 199.70 44.52 L 194.58 44.49 L 190.04 44.81 L 189.65 49.19 L 189.32 54.28 L 189.20 59.09 L 189.23 64.00 L 189.09 68.98 L 188.76 74.02 L 188.69 79.01 L 189.00 83.87 L 189.03 88.75 L 189.06 93.81 L 189.38 98.59 L 189.21 103.48 L 189.25 108.35 L 189.14 113.38 L 187.77 117.32 L 186.07 121.16 L 181.95 124.93 L 177.35 128.11 L 171.96 128.72 L 166.40 128.17 L 162.25 126.30 L 159.10 121.91 L 156.51 117.26 L 155.85 112.39 L 155.70 107.53 L 155.61 102.66 L 155.59 97.98 L 155.56 93.11 L 155.60 88.28 L 155.50 83.47 L 155.70 78.43 L 155.69 73.53 L 155.65 68.74 L 155.66 63.74 L 156.01 59.06 L 155.75 54.02 L 155.63 49.23 L 155.21 44.75 L 150.21 44.03 L 145.21 44.11 L 140.10 44.28 L 134.81 44.39 L 129.58 44.24 Z M 660.37 49.29 L 655.98 47.03 L 651.26 45.05 L 646.33 43.19 L 641.49 43.19 L 636.80 43.16 L 632.10 43.00 L 627.35 43.32 L 622.35 45.34 L 617.49 47.42 L 613.88 51.16 L 610.60 55.16 L 607.52 58.78 L 606.67 54.47 L 606.41 49.35 L 605.68 45.09 L 601.45 45.05 L 596.55 44.68 L 591.52 44.95 L 586.41 44.67 L 581.45 44.85 L 576.76 44.94 L 576.42 49.49 L 576.51 54.27 L 576.18 59.34 L 576.34 64.44 L 576.42 69.34 L 576.56 74.43 L 576.29 79.24 L 576.40 84.30 L 576.39 89.48 L 576.26 94.30 L 575.84 99.25 L 575.83 104.38 L 576.12 109.27 L 576.23 114.54 L 576.21 119.40 L 576.05 124.47 L 576.13 129.30 L 576.24 134.51 L 576.79 139.42 L 576.66 144.35 L 576.78 149.28 L 576.98 153.93 L 581.65 154.33 L 586.74 154.33 L 591.77 154.24 L 597.23 154.02 L 602.18 154.14 L 606.80 153.96 L 606.99 149.46 L 607.23 144.35 L 607.25 139.29 L 607.24 134.25 L 607.28 129.42 L 607.30 124.43 L 607.69 119.49 L 607.87 114.30 L 608.07 109.44 L 608.20 104.37 L 608.06 99.45 L 607.89 94.36 L 607.55 89.43 L 607.61 84.51 L 609.45 79.90 L 611.73 75.71 L 616.46 71.77 L 621.07 71.14 L 625.68 70.67 L 630.22 70.46 L 634.35 72.67 L 638.17 76.86 L 641.29 81.38 L 642.04 85.92 L 642.25 90.79 L 642.94 94.70 L 647.77 94.92 L 653.14 94.93 L 658.29 95.17 L 663.88 95.24 L 669.23 95.32 L 673.85 95.07 L 674.21 90.34 L 674.38 85.05 L 674.30 79.77 L 674.16 74.48 L 673.82 69.34 L 672.12 65.18 L 670.37 61.38 L 667.06 57.29 L 664.09 53.26 Z M 324.55 49.39 L 319.71 47.21 L 315.30 45.05 L 310.48 43.41 L 305.79 43.12 L 301.07 43.33 L 296.25 43.09 L 291.40 43.34 L 286.24 45.12 L 281.40 47.27 L 277.89 51.42 L 274.42 55.31 L 271.62 58.59 L 270.97 54.53 L 270.53 49.48 L 269.57 45.10 L 265.53 44.75 L 260.59 44.97 L 255.37 44.91 L 250.37 44.72 L 245.41 44.81 L 240.94 44.93 L 240.41 49.37 L 240.24 54.29 L 240.29 59.53 L 240.25 64.52 L 240.32 69.52 L 240.40 74.47 L 240.30 79.40 L 240.24 84.37 L 240.11 89.28 L 240.18 94.41 L 240.08 99.27 L 239.99 104.46 L 240.11 109.29 L 240.27 114.41 L 240.13 119.37 L 239.99 124.25 L 240.33 129.53 L 240.47 134.42 L 240.54 139.43 L 240.61 144.28 L 240.82 149.21 L 241.35 153.73 L 245.79 154.30 L 250.89 154.23 L 256.09 154.14 L 261.15 154.09 L 266.23 154.16 L 270.91 153.95 L 271.25 149.25 L 271.15 144.53 L 271.12 139.35 L 271.33 134.54 L 271.39 129.50 L 271.24 124.39 L 271.57 119.55 L 271.63 114.36 L 271.74 109.41 L 272.06 104.55 L 271.96 99.54 L 271.83 94.55 L 271.82 89.54 L 271.79 84.54 L 273.50 79.78 L 275.72 75.45 L 280.30 71.90 L 284.99 71.22 L 289.70 70.57 L 294.42 70.40 L 298.48 72.55 L 301.96 76.85 L 305.38 81.49 L 305.97 86.03 L 306.35 90.57 L 307.24 94.69 L 311.68 95.09 L 317.21 95.02 L 322.41 95.09 L 327.78 95.36 L 333.13 95.50 L 337.97 95.16 L 338.20 90.06 L 338.41 85.01 L 338.17 79.69 L 338.09 74.46 L 337.90 69.38 L 336.36 65.11 L 334.62 61.07 L 331.19 57.51 L 327.71 53.33 Z M 390.47 70.20 L 395.85 70.08 L 401.23 70.42 L 405.32 72.46 L 408.90 77.33 L 411.88 82.39 L 412.16 87.22 L 412.05 92.08 L 412.35 96.86 L 412.56 101.78 L 412.61 106.74 L 412.73 111.53 L 412.43 116.49 L 410.46 121.26 L 405.97 124.69 L 401.21 127.86 L 396.80 127.78 L 392.20 127.31 L 387.53 127.06 L 384.73 124.09 L 381.83 120.96 L 379.15 117.35 L 379.43 112.30 L 379.25 107.02 L 379.50 101.84 L 379.80 96.72 L 379.82 91.55 L 379.73 86.66 L 379.36 81.39 L 382.18 75.54 L 386.08 72.54 Z M 489.32 82.57 L 490.84 78.32 L 492.40 74.30 L 497.74 70.00 L 502.52 67.78 L 506.87 67.38 L 511.13 67.55 L 515.35 67.25 L 518.78 69.75 L 522.03 72.86 L 525.18 75.61 L 525.92 81.31 L 526.67 86.98 L 522.28 88.15 L 516.88 87.65 L 511.69 87.94 L 506.25 87.69 L 500.95 87.57 L 495.64 88.39 L 490.36 88.10 Z" fill="#ffffff" fill-rule="evenodd" shape-rendering="geometricPrecision"/></g>
</svg>
