<svg xmlns="http://www.w3.org/2000/svg" width="511.00" height="511.00" viewBox="70.62 61.75 511.00 511.00">
<g shape-rendering="geometricPrecision">
<g transform="translate(394.519,177.223) scale(-0.95400,0.95400)"><clipPath id="tailcut1" clipPathUnits="userSpaceOnUse"><path d="M -50 -50 H 404.0 V 400 H 268 V 205 H -50 Z"/></clipPath><g clip-path="url(#tailcut1)"><path d="M 298.8 77.4 C 294.8 71.27, 286.8 62.9, 280.4 58 C 274 53.1, 266.73 50.33, 260.4 48 C 254.07 45.67, 248.4 47.33, 242.4 44 C 236.4 40.67, 229.07 31.5, 224.4 28 C 219.73 24.5, 219.23 24.33, 214.4 23 C 209.57 21.67, 201.23 20.33, 195.4 20 C 189.57 19.67, 186.4 18.67, 179.4 21 C 172.4 23.33, 159.47 29.93, 153.4 34 C 147.33 38.07, 148.07 34.67, 143 45.4 C 137.93 56.13, 138.3 67.2, 123 98.4 C 107.7 129.6, 60.3 210.7, 51.2 232.6 C 47.11 242.46, 67.07 229.74, 68.4 229.8 C 69.74 229.86, 70.91 230.2, 69 233.4 C 64.77 240.5, 41.27 265.83, 43 272.4 C 43.78 275.35, 74.72 276.07, 79.4 272.8 C 86.68 267.71, 99.57 233.93, 105.4 228.8 C 111.23 223.67, 126.74 228.01, 129.4 228.8 C 131.11 229.31, 126.5 233.23, 128.2 235.6 C 130.84 239.29, 149.29 257.2, 152 260.4 C 154.71 263.6, 152.17 262.7, 151.4 263 C 150.9 263.2, 146.18 262.75, 145.4 263 C 143.67 263.57, 142 264.6, 141 266.4 C 140 268.2, 126.67 272.4, 139.4 273.8 C 145.13 274.43, 211.44 275.05, 217.4 274.8 C 223.35 274.54, 219.25 271.36, 218.8 270.4 C 218.1 268.91, 214.25 262.98, 211.4 262 C 208.55 261.02, 198.79 264.87, 194.4 262 C 190.01 259.13, 174.69 242.95, 173.8 237.4 C 172.91 231.85, 182.25 219.65, 186.8 214.4 C 193.3 206.9, 206.13 199.9, 212.8 192.4 C 219.47 184.9, 223.63 176.57, 226.8 169.4 C 229.97 162.23, 231.3 158.73, 231.8 149.4 C 232.3 140.07, 230.97 121.73, 229.8 113.4 C 228.63 105.07, 224.37 103.33, 224.8 99.4 C 225.1 96.65, 224.51 90.92, 232.4 89.8 C 240.29 88.68, 284 89.22, 292.4 89.8 C 304.4 90.63, 303.33 96.87, 304.4 94.8 C 304.88 93.87, 300.6 80.16, 298.8 77.4 Z" fill="#ffffff" stroke="#ffffff" stroke-width="12.579" stroke-linejoin="round" stroke-linecap="round"/></g></g>
<g transform="translate(394.519,177.223) scale(-0.95400,0.95400)"><clipPath id="tailcut2" clipPathUnits="userSpaceOnUse"><path d="M -50 -50 H 404.0 V 400 H 268 V 205 H -50 Z"/></clipPath><g clip-path="url(#tailcut2)"><path d="M 298.8 77.4 C 294.8 71.27, 286.8 62.9, 280.4 58 C 274 53.1, 266.73 50.33, 260.4 48 C 254.07 45.67, 248.4 47.33, 242.4 44 C 236.4 40.67, 229.07 31.5, 224.4 28 C 219.73 24.5, 219.23 24.33, 214.4 23 C 209.57 21.67, 201.23 20.33, 195.4 20 C 189.57 19.67, 186.4 18.67, 179.4 21 C 172.4 23.33, 159.47 29.93, 153.4 34 C 147.33 38.07, 148.07 34.67, 143 45.4 C 137.93 56.13, 138.3 67.2, 123 98.4 C 107.7 129.6, 60.3 210.7, 51.2 232.6 C 47.11 242.46, 67.07 229.74, 68.4 229.8 C 69.74 229.86, 70.91 230.2, 69 233.4 C 64.77 240.5, 41.27 265.83, 43 272.4 C 43.78 275.35, 74.72 276.07, 79.4 272.8 C 86.68 267.71, 99.57 233.93, 105.4 228.8 C 111.23 223.67, 126.74 228.01, 129.4 228.8 C 131.11 229.31, 126.5 233.23, 128.2 235.6 C 130.84 239.29, 149.29 257.2, 152 260.4 C 154.71 263.6, 152.17 262.7, 151.4 263 C 150.9 263.2, 146.18 262.75, 145.4 263 C 143.67 263.57, 142 264.6, 141 266.4 C 140 268.2, 126.67 272.4, 139.4 273.8 C 145.13 274.43, 211.44 275.05, 217.4 274.8 C 223.35 274.54, 219.25 271.36, 218.8 270.4 C 218.1 268.91, 214.25 262.98, 211.4 262 C 208.55 261.02, 198.79 264.87, 194.4 262 C 190.01 259.13, 174.69 242.95, 173.8 237.4 C 172.91 231.85, 182.25 219.65, 186.8 214.4 C 193.3 206.9, 206.13 199.9, 212.8 192.4 C 219.47 184.9, 223.63 176.57, 226.8 169.4 C 229.97 162.23, 231.3 158.73, 231.8 149.4 C 232.3 140.07, 230.97 121.73, 229.8 113.4 C 228.63 105.07, 224.37 103.33, 224.8 99.4 C 225.1 96.65, 224.51 90.92, 232.4 89.8 C 240.29 88.68, 284 89.22, 292.4 89.8 C 304.4 90.63, 303.33 96.87, 304.4 94.8 C 304.88 93.87, 300.6 80.16, 298.8 77.4 Z" fill="#000000" />
<path d="M 163.85 120.96 L 160.33 118.83 L 156.63 116.81 L 152.88 114.84 L 149.16 113.03 L 145.33 112.44 L 141.50 112.02 L 137.64 111.64 L 133.81 111.36 L 130.25 112.00 L 126.74 112.73 L 123.24 113.45 L 119.81 114.38 L 116.64 116.30 L 113.48 118.33 L 110.39 120.35 L 107.52 122.59 L 105.92 126.37 L 104.67 130.45 L 103.86 133.71 L 106.27 131.68 L 109.31 128.93 L 112.36 126.19 L 115.38 123.69 L 118.42 122.29 L 121.52 121.16 L 124.68 120.04 L 127.92 119.01 L 131.83 118.84 L 135.88 118.81 L 139.97 118.85 L 143.84 120.19 L 147.70 121.78 L 150.72 124.19 L 153.61 126.72 L 156.49 129.32 L 159.37 131.88 L 162.07 134.61 L 163.66 138.33 L 165.02 142.13 L 166.48 145.98 L 167.70 149.76 L 167.51 153.24 L 167.06 156.64 L 166.53 160.11 L 164.97 163.38 L 163.20 166.66 L 161.51 169.92 L 159.83 173.20 L 158.03 176.46 L 156.36 179.74 L 154.56 182.85 L 151.78 185.41 L 148.97 187.84 L 146.10 190.36 L 143.25 192.89 L 140.42 195.28 L 137.19 196.93 L 134.01 198.46 L 130.76 199.95 L 127.45 201.44 L 124.26 203.06 L 121.01 204.60 L 117.72 206.16 L 114.43 207.64 L 110.75 208.53 L 107.14 209.27 L 103.42 210.07 L 99.72 210.73 L 96.09 211.45 L 92.43 212.26 L 88.76 212.99 L 85.07 213.67 L 81.31 214.41 L 77.67 215.28 L 73.94 216.90 L 70.27 218.57 L 67.55 219.99 L 70.52 219.68 L 74.40 219.09 L 78.22 218.50 L 82.01 218.01 L 85.87 217.45 L 89.75 217.00 L 93.55 216.46 L 97.43 216.01 L 101.28 215.50 L 105.14 214.93 L 108.95 214.28 L 112.78 213.36 L 116.56 212.39 L 120.45 211.48 L 124.22 210.52 L 128.04 209.56 L 131.86 208.47 L 135.10 206.55 L 138.27 204.45 L 141.46 202.39 L 144.56 200.29 L 147.68 198.24 L 150.83 196.10 L 153.91 193.95 L 157.08 191.84 L 160.23 189.81 L 163.31 187.58 L 165.75 184.25 L 168.06 180.78 L 170.43 177.30 L 172.65 173.72 L 173.91 170.02 L 175.13 166.30 L 176.25 162.61 L 177.28 158.90 L 178.26 155.26 L 177.91 151.78 L 177.45 148.31 L 176.95 144.84 L 176.51 141.47 L 175.79 138.11 L 173.98 135.19 L 172.01 132.39 L 169.93 129.62 L 167.91 126.80 L 165.91 123.89 Z" fill="#ffffff" fill-rule="evenodd"/>
<path d="M 214.3 147.1 L 213.6 148.3 L 213.4 149.7 L 213.4 151.4 L 213.6 153.1 L 213.8 155.0 L 214.0 156.9 L 214.2 158.7 L 214.3 160.4 L 214.2 161.9 L 214.0 163.4 L 213.7 164.9 L 213.5 166.4 L 213.3 167.9 L 213.0 169.4 L 212.6 170.8 L 212.1 172.2 L 211.5 173.5 L 210.8 174.7 L 210.1 175.8 L 209.4 177.0 L 208.8 178.4 L 208.2 179.9 L 207.6 181.4 L 207.0 182.8 L 206.5 184.2 L 206.1 185.3 L 206.4 186.6 L 207.6 187.4 L 208.7 187.1 L 209.7 186.5 L 210.8 185.6 L 212.0 184.5 L 213.1 183.3 L 214.1 181.8 L 215.2 180.3 L 216.1 178.8 L 216.9 177.2 L 217.6 175.7 L 218.2 174.1 L 218.7 172.5 L 219.1 170.8 L 219.4 169.1 L 219.6 167.3 L 219.8 165.6 L 220.1 163.9 L 220.3 162.1 L 220.4 160.2 L 220.3 158.1 L 220.0 156.1 L 219.5 154.1 L 218.8 152.2 L 218.1 150.5 L 217.4 149.0 L 216.7 147.7 L 215.7 146.9 Z" fill="#ffffff" fill-rule="evenodd"/>
<path d="M 204.38 24.13 C 203.05 23.79, 199.57 21.38, 196.41 23.10 C 193.26 24.82, 188.11 31.01, 185.45 34.45 C 182.80 37.89, 181.64 40.30, 180.47 43.74 C 179.31 47.19, 179.15 52.69, 178.48 55.10 C 177.82 57.51, 179.15 57.68, 176.49 58.20 C 173.83 58.71, 165.03 58.03, 162.54 58.20 C 160.05 58.37, 165.20 59.23, 161.55 59.23 C 157.89 59.23, 144.44 57.68, 140.63 58.20 C 136.81 58.71, 138.97 61.12, 138.63 62.33 C 138.30 63.53, 132.16 64.91, 138.63 65.43 C 145.11 65.94, 170.35 63.02, 177.48 65.43 C 184.62 67.83, 179.98 76.09, 181.47 79.88 C 182.96 83.66, 184.46 85.56, 186.45 88.14 C 188.44 90.72, 190.77 94.16, 193.42 95.36 C 196.08 96.57, 202.56 96.74, 202.39 95.36 C 202.22 93.99, 195.08 90.03, 192.43 87.11 C 189.77 84.18, 187.94 80.91, 186.45 77.81 C 184.96 74.72, 183.96 72.82, 183.46 68.52 C 182.96 64.22, 182.47 57.17, 183.46 52.00 C 184.46 46.84, 186.78 41.68, 189.44 37.55 C 192.10 33.42, 196.91 29.29, 199.40 27.23 C 201.89 25.16, 203.55 25.68, 204.38 25.16 C 205.21 24.65, 205.71 24.47, 204.38 24.13 Z M 193.42 45.81 C 192.43 48.56, 190.77 53.21, 190.44 57.17 C 190.10 61.12, 190.44 65.77, 191.43 69.55 C 192.43 73.34, 194.59 77.13, 196.41 79.88 C 198.24 82.63, 200.56 84.52, 202.39 86.07 C 204.22 87.62, 205.38 88.31, 207.37 89.17 C 209.36 90.03, 211.52 90.89, 214.34 91.23 C 217.17 91.58, 222.98 92.61, 224.31 91.23 C 225.63 89.86, 222.48 84.87, 222.31 82.98 C 222.15 81.08, 222.15 81.26, 223.31 79.88 C 224.47 78.50, 225.14 75.58, 229.29 74.72 C 233.44 73.86, 244.89 74.54, 248.21 74.72 C 251.53 74.89, 247.72 75.58, 249.21 75.75 C 250.70 75.92, 253.53 75.23, 257.18 75.75 C 260.83 74.27, 266.48 75.47, 271.13 76.85 C 275.77 78.22, 280.59 79.94, 285.07 82.01 C 289.56 82.57, 295.20 87.20, 296.20 86.40 C 296.80 85.60, 293.87 80.30, 291.05 78.85 C 288.23 75.06, 285.57 71.96, 281.09 68.52 C 276.60 65.08, 271.29 61.30, 264.15 58.20 C 257.01 55.10, 244.73 53.55, 238.25 49.94 C 231.78 46.33, 229.45 39.79, 225.30 36.52 C 221.15 33.25, 216.00 31.36, 213.35 30.32 C 210.69 29.29, 210.69 29.98, 209.36 30.32 C 208.03 30.67, 207.54 30.67, 205.38 32.39 C 203.22 34.11, 198.40 38.41, 196.41 40.65 C 194.42 42.88, 194.42 43.06, 193.42 45.81 Z M 241.24 58.20 C 242.07 57.17, 242.90 56.65, 245.23 57.17 C 247.55 57.68, 253.69 59.75, 255.19 61.30 C 256.68 62.84, 255.02 65.43, 254.19 66.46 C 253.36 67.49, 252.20 67.66, 250.21 67.49 C 248.21 67.32, 243.90 66.11, 242.24 65.43 C 240.58 64.74, 240.41 64.56, 240.24 63.36 C 240.08 62.16, 240.41 59.23, 241.24 58.20 Z M 216.34 41.68 C 219.16 41.16, 221.98 42.02, 224.31 43.74 C 226.63 45.47, 229.29 49.42, 230.28 52.00 C 231.28 54.59, 230.61 57.34, 230.28 59.23 C 229.95 61.12, 229.78 61.81, 228.29 63.36 C 226.80 64.91, 224.14 67.83, 221.32 68.52 C 218.49 69.21, 213.85 68.52, 211.35 67.49 C 208.86 66.46, 207.54 63.88, 206.37 62.33 C 205.21 60.78, 204.71 59.75, 204.38 58.20 C 204.05 56.65, 203.88 54.93, 204.38 53.04 C 204.88 51.14, 205.38 48.73, 207.37 46.84 C 209.36 44.95, 213.51 42.20, 216.34 41.68 Z M 261.16 84.01 C 260.33 84.18, 259.84 85.38, 260.17 86.07 C 260.50 86.76, 262.33 88.31, 263.16 88.14 C 263.99 87.97, 265.48 85.73, 265.15 85.04 C 264.82 84.35, 261.99 83.84, 261.16 84.01 Z M 251.20 85.04 C 250.87 85.56, 251.53 86.76, 252.20 87.11 C 252.86 87.45, 254.85 87.62, 255.19 87.11 C 255.52 86.59, 254.85 84.35, 254.19 84.01 C 253.53 83.66, 251.53 84.52, 251.20 85.04 Z M 242.24 84.01 C 241.74 84.52, 241.57 86.76, 242.24 87.11 C 242.90 87.45, 245.72 86.59, 246.22 86.07 C 246.72 85.56, 245.89 84.35, 245.23 84.01 C 244.56 83.66, 242.73 83.49, 242.24 84.01 Z M 232.27 84.01 C 231.78 84.52, 231.61 86.76, 232.27 87.11 C 232.94 87.45, 235.76 86.59, 236.26 86.07 C 236.76 85.56, 235.93 84.35, 235.26 84.01 C 234.60 83.66, 232.77 83.49, 232.27 84.01 Z" fill="#ffffff" fill-rule="evenodd"/>
<path d="M 204.38 101.56 C 205.21 102.42, 208.37 101.21, 209.36 101.56 C 210.36 101.90, 209.53 103.11, 210.36 103.62 C 211.19 104.14, 212.19 104.48, 214.34 104.66 C 216.50 104.83, 221.48 104.83, 223.31 104.66 C 225.14 104.48, 224.31 104.83, 225.30 103.62 C 226.30 102.42, 228.95 98.29, 229.29 97.43 C 229.62 96.57, 230.28 98.29, 227.29 98.46 C 224.31 98.63, 214.68 98.81, 211.35 98.46 C 208.03 98.12, 208.53 96.74, 207.37 96.40 C 206.21 96.05, 204.88 95.54, 204.38 96.40 C 203.88 97.26, 203.55 100.70, 204.38 101.56 Z" fill="#ffffff" fill-rule="evenodd"/></g></g>
<g transform="translate(264.159,180.340) scale(0.93280,0.93280)"><path d="M 298.8 77.4 C 294.8 71.27, 286.8 62.9, 280.4 58 C 274 53.1, 266.73 50.33, 260.4 48 C 254.07 45.67, 248.4 47.33, 242.4 44 C 236.4 40.67, 229.07 31.5, 224.4 28 C 219.73 24.5, 219.23 24.33, 214.4 23 C 209.57 21.67, 201.23 20.33, 195.4 20 C 189.57 19.67, 186.4 18.67, 179.4 21 C 172.4 23.33, 159.47 29.93, 153.4 34 C 147.33 38.07, 148.07 34.67, 143 45.4 C 137.93 56.13, 138.3 67.2, 123 98.4 C 107.7 129.6, 60.3 210.7, 51.2 232.6 C 47.11 242.46, 67.07 229.74, 68.4 229.8 C 69.74 229.86, 70.91 230.2, 69 233.4 C 64.77 240.5, 41.27 265.83, 43 272.4 C 43.78 275.35, 74.72 276.07, 79.4 272.8 C 86.68 267.71, 99.57 233.93, 105.4 228.8 C 111.23 223.67, 126.74 228.01, 129.4 228.8 C 131.11 229.31, 126.5 233.23, 128.2 235.6 C 130.84 239.29, 149.29 257.2, 152 260.4 C 154.71 263.6, 152.17 262.7, 151.4 263 C 150.9 263.2, 146.18 262.75, 145.4 263 C 143.67 263.57, 142 264.6, 141 266.4 C 140 268.2, 126.67 272.4, 139.4 273.8 C 145.13 274.43, 211.44 275.05, 217.4 274.8 C 223.35 274.54, 219.25 271.36, 218.8 270.4 C 218.1 268.91, 214.25 262.98, 211.4 262 C 208.55 261.02, 198.79 264.87, 194.4 262 C 190.01 259.13, 174.69 242.95, 173.8 237.4 C 172.91 231.85, 182.25 219.65, 186.8 214.4 C 193.3 206.9, 206.13 199.9, 212.8 192.4 C 219.47 184.9, 223.63 176.57, 226.8 169.4 C 229.97 162.23, 231.3 158.73, 231.8 149.4 C 232.3 140.07, 230.97 121.73, 229.8 113.4 C 228.63 105.07, 224.37 103.33, 224.8 99.4 C 225.1 96.65, 224.51 90.92, 232.4 89.8 C 240.29 88.68, 284 89.22, 292.4 89.8 C 304.4 90.63, 303.33 96.87, 304.4 94.8 C 304.88 93.87, 300.6 80.16, 298.8 77.4 Z" fill="#ffffff" stroke="#ffffff" stroke-width="12.864" stroke-linejoin="round" stroke-linecap="round"/></g>
<g transform="translate(264.159,180.340) scale(0.93280,0.93280)"><path d="M 298.8 77.4 C 294.8 71.27, 286.8 62.9, 280.4 58 C 274 53.1, 266.73 50.33, 260.4 48 C 254.07 45.67, 248.4 47.33, 242.4 44 C 236.4 40.67, 229.07 31.5, 224.4 28 C 219.73 24.5, 219.23 24.33, 214.4 23 C 209.57 21.67, 201.23 20.33, 195.4 20 C 189.57 19.67, 186.4 18.67, 179.4 21 C 172.4 23.33, 159.47 29.93, 153.4 34 C 147.33 38.07, 148.07 34.67, 143 45.4 C 137.93 56.13, 138.3 67.2, 123 98.4 C 107.7 129.6, 60.3 210.7, 51.2 232.6 C 47.11 242.46, 67.07 229.74, 68.4 229.8 C 69.74 229.86, 70.91 230.2, 69 233.4 C 64.77 240.5, 41.27 265.83, 43 272.4 C 43.78 275.35, 74.72 276.07, 79.4 272.8 C 86.68 267.71, 99.57 233.93, 105.4 228.8 C 111.23 223.67, 126.74 228.01, 129.4 228.8 C 131.11 229.31, 126.5 233.23, 128.2 235.6 C 130.84 239.29, 149.29 257.2, 152 260.4 C 154.71 263.6, 152.17 262.7, 151.4 263 C 150.9 263.2, 146.18 262.75, 145.4 263 C 143.67 263.57, 142 264.6, 141 266.4 C 140 268.2, 126.67 272.4, 139.4 273.8 C 145.13 274.43, 211.44 275.05, 217.4 274.8 C 223.35 274.54, 219.25 271.36, 218.8 270.4 C 218.1 268.91, 214.25 262.98, 211.4 262 C 208.55 261.02, 198.79 264.87, 194.4 262 C 190.01 259.13, 174.69 242.95, 173.8 237.4 C 172.91 231.85, 182.25 219.65, 186.8 214.4 C 193.3 206.9, 206.13 199.9, 212.8 192.4 C 219.47 184.9, 223.63 176.57, 226.8 169.4 C 229.97 162.23, 231.3 158.73, 231.8 149.4 C 232.3 140.07, 230.97 121.73, 229.8 113.4 C 228.63 105.07, 224.37 103.33, 224.8 99.4 C 225.1 96.65, 224.51 90.92, 232.4 89.8 C 240.29 88.68, 284 89.22, 292.4 89.8 C 304.4 90.63, 303.33 96.87, 304.4 94.8 C 304.88 93.87, 300.6 80.16, 298.8 77.4 Z" fill="#000000" />
<path d="M 163.85 120.96 L 160.33 118.83 L 156.63 116.81 L 152.88 114.84 L 149.16 113.03 L 145.33 112.44 L 141.50 112.02 L 137.64 111.64 L 133.81 111.36 L 130.25 112.00 L 126.74 112.73 L 123.24 113.45 L 119.81 114.38 L 116.64 116.30 L 113.48 118.33 L 110.39 120.35 L 107.52 122.59 L 105.92 126.37 L 104.67 130.45 L 103.86 133.71 L 106.27 131.68 L 109.31 128.93 L 112.36 126.19 L 115.38 123.69 L 118.42 122.29 L 121.52 121.16 L 124.68 120.04 L 127.92 119.01 L 131.83 118.84 L 135.88 118.81 L 139.97 118.85 L 143.84 120.19 L 147.70 121.78 L 150.72 124.19 L 153.61 126.72 L 156.49 129.32 L 159.37 131.88 L 162.07 134.61 L 163.66 138.33 L 165.02 142.13 L 166.48 145.98 L 167.70 149.76 L 167.51 153.24 L 167.06 156.64 L 166.53 160.11 L 164.97 163.38 L 163.20 166.66 L 161.51 169.92 L 159.83 173.20 L 158.03 176.46 L 156.36 179.74 L 154.56 182.85 L 151.78 185.41 L 148.97 187.84 L 146.10 190.36 L 143.25 192.89 L 140.42 195.28 L 137.19 196.93 L 134.01 198.46 L 130.76 199.95 L 127.45 201.44 L 124.26 203.06 L 121.01 204.60 L 117.72 206.16 L 114.43 207.64 L 110.75 208.53 L 107.14 209.27 L 103.42 210.07 L 99.72 210.73 L 96.09 211.45 L 92.43 212.26 L 88.76 212.99 L 85.07 213.67 L 81.31 214.41 L 77.67 215.28 L 73.94 216.90 L 70.27 218.57 L 67.55 219.99 L 70.52 219.68 L 74.40 219.09 L 78.22 218.50 L 82.01 218.01 L 85.87 217.45 L 89.75 217.00 L 93.55 216.46 L 97.43 216.01 L 101.28 215.50 L 105.14 214.93 L 108.95 214.28 L 112.78 213.36 L 116.56 212.39 L 120.45 211.48 L 124.22 210.52 L 128.04 209.56 L 131.86 208.47 L 135.10 206.55 L 138.27 204.45 L 141.46 202.39 L 144.56 200.29 L 147.68 198.24 L 150.83 196.10 L 153.91 193.95 L 157.08 191.84 L 160.23 189.81 L 163.31 187.58 L 165.75 184.25 L 168.06 180.78 L 170.43 177.30 L 172.65 173.72 L 173.91 170.02 L 175.13 166.30 L 176.25 162.61 L 177.28 158.90 L 178.26 155.26 L 177.91 151.78 L 177.45 148.31 L 176.95 144.84 L 176.51 141.47 L 175.79 138.11 L 173.98 135.19 L 172.01 132.39 L 169.93 129.62 L 167.91 126.80 L 165.91 123.89 Z" fill="#ffffff" fill-rule="evenodd"/>
<path d="M 214.3 147.1 L 213.6 148.3 L 213.4 149.7 L 213.4 151.4 L 213.6 153.1 L 213.8 155.0 L 214.0 156.9 L 214.2 158.7 L 214.3 160.4 L 214.2 161.9 L 214.0 163.4 L 213.7 164.9 L 213.5 166.4 L 213.3 167.9 L 213.0 169.4 L 212.6 170.8 L 212.1 172.2 L 211.5 173.5 L 210.8 174.7 L 210.1 175.8 L 209.4 177.0 L 208.8 178.4 L 208.2 179.9 L 207.6 181.4 L 207.0 182.8 L 206.5 184.2 L 206.1 185.3 L 206.4 186.6 L 207.6 187.4 L 208.7 187.1 L 209.7 186.5 L 210.8 185.6 L 212.0 184.5 L 213.1 183.3 L 214.1 181.8 L 215.2 180.3 L 216.1 178.8 L 216.9 177.2 L 217.6 175.7 L 218.2 174.1 L 218.7 172.5 L 219.1 170.8 L 219.4 169.1 L 219.6 167.3 L 219.8 165.6 L 220.1 163.9 L 220.3 162.1 L 220.4 160.2 L 220.3 158.1 L 220.0 156.1 L 219.5 154.1 L 218.8 152.2 L 218.1 150.5 L 217.4 149.0 L 216.7 147.7 L 215.7 146.9 Z" fill="#ffffff" fill-rule="evenodd"/>
<path d="M 145.61 51.10 C 150.92 51.44, 173.67 48.33, 179.48 47.99 C 185.29 47.64, 180.47 48.33, 180.47 49.02 C 180.47 49.72, 179.64 48.85, 179.48 52.13 C 179.31 55.42, 179.31 65.61, 179.48 68.72 C 179.64 71.83, 180.47 70.27, 180.47 70.79 C 180.47 71.31, 180.64 71.66, 179.48 71.83 C 178.31 72.00, 174.66 72.00, 173.50 71.83 C 172.34 71.66, 177.82 71.66, 172.50 70.79 C 167.19 69.93, 146.94 67.51, 141.62 66.65 C 136.31 65.78, 141.29 65.61, 140.63 65.61 C 139.96 65.61, 138.14 65.96, 137.64 66.65 C 137.14 67.34, 132.32 68.20, 137.64 69.76 C 142.95 71.31, 163.37 74.94, 169.52 75.98 C 175.66 77.01, 173.50 75.80, 174.50 75.98 C 175.49 76.15, 174.33 76.84, 175.49 77.01 C 176.65 77.18, 178.98 74.59, 181.47 77.01 C 183.96 79.43, 188.11 88.41, 190.44 91.52 C 192.76 94.63, 193.26 94.98, 195.42 95.67 C 197.57 96.36, 201.73 94.63, 203.39 95.67 C 205.05 96.71, 204.38 100.85, 205.38 101.89 C 206.37 102.93, 208.20 101.54, 209.36 101.89 C 210.52 102.24, 209.53 103.62, 212.35 103.96 C 215.17 104.31, 223.48 104.65, 226.30 103.96 C 229.12 103.27, 228.79 100.85, 229.29 99.82 C 229.78 98.78, 231.44 97.92, 229.29 97.74 C 227.13 97.57, 219.99 98.95, 216.34 98.78 C 212.68 98.61, 209.86 97.57, 207.37 96.71 C 204.88 95.84, 203.88 95.50, 201.39 93.60 C 198.90 91.70, 194.92 88.41, 192.43 85.30 C 189.94 82.20, 187.78 78.05, 186.45 74.94 C 185.12 71.83, 184.79 70.27, 184.46 66.65 C 184.13 63.02, 184.13 56.63, 184.46 53.17 C 184.79 49.72, 185.29 48.68, 186.45 45.91 C 187.61 43.15, 189.27 39.52, 191.43 36.59 C 193.59 33.65, 197.24 30.19, 199.40 28.29 C 201.56 26.39, 203.72 26.05, 204.38 25.18 C 205.05 24.32, 204.55 23.46, 203.39 23.11 C 202.22 22.76, 199.90 21.73, 197.41 23.11 C 194.92 24.49, 191.10 28.12, 188.44 31.40 C 185.79 34.68, 186.45 40.56, 181.47 42.80 C 176.49 45.05, 162.54 44.36, 158.56 44.88 C 154.57 45.40, 159.39 45.74, 157.56 45.91 C 155.73 46.09, 149.59 45.05, 147.60 45.91 C 145.61 46.78, 140.29 50.75, 145.61 51.10 Z M 213.35 43.84 C 210.86 45.05, 207.54 48.51, 206.37 51.10 C 205.21 53.69, 205.71 56.97, 206.37 59.39 C 207.04 61.81, 209.03 64.23, 210.36 65.61 C 211.69 66.99, 212.85 67.34, 214.34 67.68 C 215.84 68.03, 217.50 68.20, 219.32 67.68 C 221.15 67.16, 223.97 65.61, 225.30 64.57 C 226.63 63.54, 226.80 63.71, 227.29 61.46 C 227.79 59.22, 229.29 54.03, 228.29 51.10 C 227.29 48.16, 223.81 45.05, 221.32 43.84 C 218.83 42.63, 215.84 42.63, 213.35 43.84 Z M 244.23 57.32 C 242.40 57.66, 241.74 61.29, 243.23 62.50 C 244.73 63.71, 251.37 64.92, 253.19 64.57 C 255.02 64.23, 255.69 61.64, 254.19 60.43 C 252.70 59.22, 246.06 56.97, 244.23 57.32 Z M 262.16 83.23 C 261.50 83.58, 260.83 85.65, 261.16 86.34 C 261.50 87.03, 263.49 87.72, 264.15 87.38 C 264.82 87.03, 265.48 84.96, 265.15 84.27 C 264.82 83.58, 262.82 82.89, 262.16 83.23 Z M 253.19 83.23 C 252.53 83.58, 251.87 85.65, 252.20 86.34 C 252.53 87.03, 254.52 87.72, 255.19 87.38 C 255.85 87.03, 256.52 84.96, 256.18 84.27 C 255.85 83.58, 253.86 82.89, 253.19 83.23 Z M 243.23 83.23 C 242.73 83.75, 242.90 86.69, 243.23 87.38 C 243.56 88.07, 244.73 87.90, 245.23 87.38 C 245.72 86.86, 246.55 84.96, 246.22 84.27 C 245.89 83.58, 243.73 82.71, 243.23 83.23 Z M 233.27 83.23 C 232.77 83.75, 232.94 85.65, 233.27 86.34 C 233.60 87.03, 234.77 87.90, 235.26 87.38 C 235.76 86.86, 236.59 83.92, 236.26 83.23 C 235.93 82.54, 233.77 82.71, 233.27 83.23 Z" fill="#ffffff" fill-rule="evenodd"/>
<path d="M 226.1 89.2 L 226.1 88.4 L 226.1 87.2 L 226.2 85.8 L 226.2 84.4 L 226.3 83.0 L 226.4 81.8 L 226.7 80.8 L 226.9 79.8 L 227.2 78.8 L 227.5 78.0 L 227.7 77.4 L 228.0 77.0 L 228.4 76.6 L 228.9 76.2 L 229.8 75.9 L 231.0 75.7 L 232.5 75.5 L 234.1 75.4 L 236.0 75.4 L 237.9 75.5 L 239.8 75.6 L 241.8 75.7 L 243.9 75.9 L 246.1 76.1 L 248.3 76.4 L 250.7 76.8 L 253.1 77.2 L 255.6 77.7 L 258.3 78.2 L 261.2 78.8 L 264.2 79.5 L 267.3 80.2 L 270.2 80.9 L 273.0 81.6 L 275.6 82.3 L 278.0 83.0 L 280.3 83.7 L 282.4 84.4 L 284.5 85.1 L 286.4 85.7 L 288.1 86.4 L 289.7 86.9 L 291.0 87.3 L 292.2 87.7 L 293.1 88.1 L 294.0 88.4 L 294.7 88.6 L 295.3 88.8 L 295.8 89.1 L 296.2 87.9 L 295.8 87.7 L 295.2 87.5 L 294.6 87.1 L 293.7 86.7 L 292.8 86.2 L 291.7 85.7 L 290.3 85.1 L 288.8 84.5 L 287.1 83.8 L 285.3 83.0 L 283.2 82.2 L 281.1 81.3 L 278.8 80.5 L 276.4 79.7 L 273.8 78.9 L 271.0 78.1 L 268.0 77.3 L 265.0 76.5 L 262.0 75.7 L 259.1 75.0 L 256.4 74.3 L 253.8 73.8 L 251.4 73.2 L 249.0 72.8 L 246.7 72.3 L 244.4 72.0 L 242.2 71.7 L 240.2 71.4 L 238.1 71.2 L 236.1 71.1 L 234.2 71.0 L 232.3 71.0 L 230.5 71.1 L 228.7 71.3 L 227.1 71.8 L 225.6 72.5 L 224.4 73.5 L 223.4 74.6 L 222.7 75.8 L 222.2 77.0 L 221.8 78.1 L 221.3 79.2 L 220.9 80.6 L 220.6 82.2 L 220.4 83.9 L 220.3 85.4 L 220.1 86.8 L 220.0 88.0 L 219.9 88.8 Z" fill="#ffffff" fill-rule="evenodd"/></g>
<g transform="translate(126.090,161.180) scale(1.06000,1.06000)"><path d="M 298.8 77.4 C 294.8 71.27, 286.8 62.9, 280.4 58 C 274 53.1, 266.73 50.33, 260.4 48 C 254.07 45.67, 248.4 47.33, 242.4 44 C 236.4 40.67, 229.07 31.5, 224.4 28 C 219.73 24.5, 219.23 24.33, 214.4 23 C 209.57 21.67, 201.23 20.33, 195.4 20 C 189.57 19.67, 186.4 18.67, 179.4 21 C 172.4 23.33, 159.47 29.93, 153.4 34 C 147.33 38.07, 148.07 34.67, 143 45.4 C 137.93 56.13, 138.3 67.2, 123 98.4 C 107.7 129.6, 60.3 210.7, 51.2 232.6 C 47.11 242.46, 67.07 229.74, 68.4 229.8 C 69.74 229.86, 70.91 230.2, 69 233.4 C 64.77 240.5, 41.27 265.83, 43 272.4 C 43.78 275.35, 74.72 276.07, 79.4 272.8 C 86.68 267.71, 99.57 233.93, 105.4 228.8 C 111.23 223.67, 126.74 228.01, 129.4 228.8 C 131.11 229.31, 126.5 233.23, 128.2 235.6 C 130.84 239.29, 149.29 257.2, 152 260.4 C 154.71 263.6, 152.17 262.7, 151.4 263 C 150.9 263.2, 146.18 262.75, 145.4 263 C 143.67 263.57, 142 264.6, 141 266.4 C 140 268.2, 126.67 272.4, 139.4 273.8 C 145.13 274.43, 211.44 275.05, 217.4 274.8 C 223.35 274.54, 219.25 271.36, 218.8 270.4 C 218.1 268.91, 214.25 262.98, 211.4 262 C 208.55 261.02, 198.79 264.87, 194.4 262 C 190.01 259.13, 174.69 242.95, 173.8 237.4 C 172.91 231.85, 182.25 219.65, 186.8 214.4 C 193.3 206.9, 206.13 199.9, 212.8 192.4 C 219.47 184.9, 223.63 176.57, 226.8 169.4 C 229.97 162.23, 231.3 158.73, 231.8 149.4 C 232.3 140.07, 230.97 121.73, 229.8 113.4 C 228.63 105.07, 224.37 103.33, 224.8 99.4 C 225.1 96.65, 224.51 90.92, 232.4 89.8 C 240.29 88.68, 284 89.22, 292.4 89.8 C 304.4 90.63, 303.33 96.87, 304.4 94.8 C 304.88 93.87, 300.6 80.16, 298.8 77.4 Z" fill="#ffffff" stroke="#ffffff" stroke-width="11.321" stroke-linejoin="round" stroke-linecap="round"/></g>
<g transform="translate(126.090,161.180) scale(1.06000,1.06000)"><path d="M 298.8 77.4 C 294.8 71.27, 286.8 62.9, 280.4 58 C 274 53.1, 266.73 50.33, 260.4 48 C 254.07 45.67, 248.4 47.33, 242.4 44 C 236.4 40.67, 229.07 31.5, 224.4 28 C 219.73 24.5, 219.23 24.33, 214.4 23 C 209.57 21.67, 201.23 20.33, 195.4 20 C 189.57 19.67, 186.4 18.67, 179.4 21 C 172.4 23.33, 159.47 29.93, 153.4 34 C 147.33 38.07, 148.07 34.67, 143 45.4 C 137.93 56.13, 138.3 67.2, 123 98.4 C 107.7 129.6, 60.3 210.7, 51.2 232.6 C 47.11 242.46, 67.07 229.74, 68.4 229.8 C 69.74 229.86, 70.91 230.2, 69 233.4 C 64.77 240.5, 41.27 265.83, 43 272.4 C 43.78 275.35, 74.72 276.07, 79.4 272.8 C 86.68 267.71, 99.57 233.93, 105.4 228.8 C 111.23 223.67, 126.74 228.01, 129.4 228.8 C 131.11 229.31, 126.5 233.23, 128.2 235.6 C 130.84 239.29, 149.29 257.2, 152 260.4 C 154.71 263.6, 152.17 262.7, 151.4 263 C 150.9 263.2, 146.18 262.75, 145.4 263 C 143.67 263.57, 142 264.6, 141 266.4 C 140 268.2, 126.67 272.4, 139.4 273.8 C 145.13 274.43, 211.44 275.05, 217.4 274.8 C 223.35 274.54, 219.25 271.36, 218.8 270.4 C 218.1 268.91, 214.25 262.98, 211.4 262 C 208.55 261.02, 198.79 264.87, 194.4 262 C 190.01 259.13, 174.69 242.95, 173.8 237.4 C 172.91 231.85, 182.25 219.65, 186.8 214.4 C 193.3 206.9, 206.13 199.9, 212.8 192.4 C 219.47 184.9, 223.63 176.57, 226.8 169.4 C 229.97 162.23, 231.3 158.73, 231.8 149.4 C 232.3 140.07, 230.97 121.73, 229.8 113.4 C 228.63 105.07, 224.37 103.33, 224.8 99.4 C 225.1 96.65, 224.51 90.92, 232.4 89.8 C 240.29 88.68, 284 89.22, 292.4 89.8 C 304.4 90.63, 303.33 96.87, 304.4 94.8 C 304.88 93.87, 300.6 80.16, 298.8 77.4 Z" fill="#000000" />
<path d="M 163.85 120.96 L 160.33 118.83 L 156.63 116.81 L 152.88 114.84 L 149.16 113.03 L 145.33 112.44 L 141.50 112.02 L 137.64 111.64 L 133.81 111.36 L 130.25 112.00 L 126.74 112.73 L 123.24 113.45 L 119.81 114.38 L 116.64 116.30 L 113.48 118.33 L 110.39 120.35 L 107.52 122.59 L 105.92 126.37 L 104.67 130.45 L 103.86 133.71 L 106.27 131.68 L 109.31 128.93 L 112.36 126.19 L 115.38 123.69 L 118.42 122.29 L 121.52 121.16 L 124.68 120.04 L 127.92 119.01 L 131.83 118.84 L 135.88 118.81 L 139.97 118.85 L 143.84 120.19 L 147.70 121.78 L 150.72 124.19 L 153.61 126.72 L 156.49 129.32 L 159.37 131.88 L 162.07 134.61 L 163.66 138.33 L 165.02 142.13 L 166.48 145.98 L 167.70 149.76 L 167.51 153.24 L 167.06 156.64 L 166.53 160.11 L 164.97 163.38 L 163.20 166.66 L 161.51 169.92 L 159.83 173.20 L 158.03 176.46 L 156.36 179.74 L 154.56 182.85 L 151.78 185.41 L 148.97 187.84 L 146.10 190.36 L 143.25 192.89 L 140.42 195.28 L 137.19 196.93 L 134.01 198.46 L 130.76 199.95 L 127.45 201.44 L 124.26 203.06 L 121.01 204.60 L 117.72 206.16 L 114.43 207.64 L 110.75 208.53 L 107.14 209.27 L 103.42 210.07 L 99.72 210.73 L 96.09 211.45 L 92.43 212.26 L 88.76 212.99 L 85.07 213.67 L 81.31 214.41 L 77.67 215.28 L 73.94 216.90 L 70.27 218.57 L 67.55 219.99 L 70.52 219.68 L 74.40 219.09 L 78.22 218.50 L 82.01 218.01 L 85.87 217.45 L 89.75 217.00 L 93.55 216.46 L 97.43 216.01 L 101.28 215.50 L 105.14 214.93 L 108.95 214.28 L 112.78 213.36 L 116.56 212.39 L 120.45 211.48 L 124.22 210.52 L 128.04 209.56 L 131.86 208.47 L 135.10 206.55 L 138.27 204.45 L 141.46 202.39 L 144.56 200.29 L 147.68 198.24 L 150.83 196.10 L 153.91 193.95 L 157.08 191.84 L 160.23 189.81 L 163.31 187.58 L 165.75 184.25 L 168.06 180.78 L 170.43 177.30 L 172.65 173.72 L 173.91 170.02 L 175.13 166.30 L 176.25 162.61 L 177.28 158.90 L 178.26 155.26 L 177.91 151.78 L 177.45 148.31 L 176.95 144.84 L 176.51 141.47 L 175.79 138.11 L 173.98 135.19 L 172.01 132.39 L 169.93 129.62 L 167.91 126.80 L 165.91 123.89 Z" fill="#ffffff" fill-rule="evenodd"/>
<path d="M 214.3 147.1 L 213.6 148.3 L 213.4 149.7 L 213.4 151.4 L 213.6 153.1 L 213.8 155.0 L 214.0 156.9 L 214.2 158.7 L 214.3 160.4 L 214.2 161.9 L 214.0 163.4 L 213.7 164.9 L 213.5 166.4 L 213.3 167.9 L 213.0 169.4 L 212.6 170.8 L 212.1 172.2 L 211.5 173.5 L 210.8 174.7 L 210.1 175.8 L 209.4 177.0 L 208.8 178.4 L 208.2 179.9 L 207.6 181.4 L 207.0 182.8 L 206.5 184.2 L 206.1 185.3 L 206.4 186.6 L 207.6 187.4 L 208.7 187.1 L 209.7 186.5 L 210.8 185.6 L 212.0 184.5 L 213.1 183.3 L 214.1 181.8 L 215.2 180.3 L 216.1 178.8 L 216.9 177.2 L 217.6 175.7 L 218.2 174.1 L 218.7 172.5 L 219.1 170.8 L 219.4 169.1 L 219.6 167.3 L 219.8 165.6 L 220.1 163.9 L 220.3 162.1 L 220.4 160.2 L 220.3 158.1 L 220.0 156.1 L 219.5 154.1 L 218.8 152.2 L 218.1 150.5 L 217.4 149.0 L 216.7 147.7 L 215.7 146.9 Z" fill="#ffffff" fill-rule="evenodd"/>
<path d="M 166.69 86.34 L 166.68 86.76 L 166.64 87.13 L 166.60 87.47 L 166.49 87.82 L 166.30 88.20 L 166.09 88.60 L 165.83 88.92 L 165.51 89.15 L 165.12 89.31 L 164.68 89.46 L 164.25 89.58 L 163.80 89.60 L 163.40 89.51 L 163.03 89.40 L 162.66 89.26 L 162.30 89.06 L 161.96 88.83 L 161.61 88.56 L 161.29 88.24 L 161.02 87.87 L 160.80 87.49 L 160.67 87.08 L 160.63 86.68 L 160.62 86.29 L 160.68 85.89 L 160.80 85.48 L 160.94 85.09 L 161.11 84.78 L 161.33 84.51 L 161.62 84.20 L 161.94 83.86 L 162.25 83.58 L 162.56 83.36 L 162.93 83.17 L 163.36 83.04 L 163.81 82.98 L 164.25 82.95 L 164.70 82.99 L 165.14 83.13 L 165.57 83.35 L 165.93 83.64 L 166.22 83.99 L 166.40 84.37 L 166.50 84.76 L 166.58 85.13 L 166.64 85.51 L 166.67 85.91 Z" fill="#ffffff" fill-rule="evenodd"/>
<path d="M 177.87 101.03 L 177.78 101.49 L 177.64 101.91 L 177.49 102.26 L 177.31 102.58 L 177.08 102.89 L 176.83 103.22 L 176.51 103.55 L 176.15 103.80 L 175.77 104.02 L 175.40 104.21 L 175.00 104.30 L 174.56 104.27 L 174.14 104.19 L 173.75 104.08 L 173.39 103.96 L 173.04 103.79 L 172.73 103.52 L 172.46 103.26 L 172.21 103.01 L 171.98 102.72 L 171.76 102.37 L 171.54 101.98 L 171.34 101.54 L 171.23 101.06 L 171.22 100.62 L 171.30 100.26 L 171.48 99.87 L 171.72 99.44 L 171.99 99.09 L 172.31 98.84 L 172.66 98.61 L 173.01 98.43 L 173.39 98.31 L 173.82 98.24 L 174.24 98.19 L 174.62 98.14 L 174.98 98.12 L 175.36 98.14 L 175.78 98.21 L 176.18 98.35 L 176.54 98.50 L 176.89 98.70 L 177.24 99.01 L 177.56 99.39 L 177.77 99.80 L 177.86 100.20 L 177.90 100.60 Z" fill="#ffffff" fill-rule="evenodd"/>
<path d="M 189.79 114.32 L 189.76 114.72 L 189.73 115.09 L 189.63 115.44 L 189.46 115.79 L 189.25 116.14 L 189.01 116.50 L 188.77 116.82 L 188.50 117.08 L 188.14 117.33 L 187.70 117.55 L 187.25 117.67 L 186.82 117.71 L 186.36 117.64 L 185.90 117.48 L 185.50 117.24 L 185.16 117.00 L 184.92 116.75 L 184.70 116.46 L 184.45 116.13 L 184.24 115.79 L 184.05 115.41 L 183.86 115.03 L 183.72 114.65 L 183.67 114.26 L 183.69 113.87 L 183.74 113.48 L 183.83 113.06 L 183.97 112.64 L 184.17 112.26 L 184.43 111.94 L 184.75 111.64 L 185.16 111.42 L 185.61 111.31 L 185.99 111.24 L 186.35 111.15 L 186.76 111.09 L 187.15 111.13 L 187.51 111.24 L 187.90 111.37 L 188.28 111.54 L 188.64 111.78 L 188.96 112.07 L 189.25 112.37 L 189.52 112.70 L 189.73 113.09 L 189.82 113.49 L 189.83 113.89 Z" fill="#ffffff" fill-rule="evenodd"/>
<path d="M 204.52 124.58 L 204.50 125.00 L 204.46 125.43 L 204.39 125.80 L 204.25 126.16 L 204.07 126.54 L 203.87 126.91 L 203.62 127.24 L 203.25 127.50 L 202.79 127.70 L 202.34 127.84 L 201.93 127.90 L 201.52 127.86 L 201.08 127.73 L 200.68 127.57 L 200.33 127.42 L 199.98 127.23 L 199.66 126.94 L 199.41 126.62 L 199.19 126.34 L 198.92 126.05 L 198.67 125.71 L 198.50 125.35 L 198.35 124.96 L 198.24 124.57 L 198.20 124.18 L 198.25 123.78 L 198.39 123.36 L 198.58 122.95 L 198.81 122.61 L 199.11 122.28 L 199.49 121.97 L 199.88 121.77 L 200.25 121.66 L 200.63 121.53 L 201.06 121.45 L 201.54 121.43 L 201.98 121.48 L 202.37 121.62 L 202.76 121.75 L 203.13 121.86 L 203.41 122.02 L 203.68 122.26 L 203.95 122.58 L 204.18 122.99 L 204.35 123.44 L 204.47 123.82 L 204.53 124.17 Z" fill="#ffffff" fill-rule="evenodd"/>
<path d="M 221.63 131.72 L 221.54 132.16 L 221.38 132.61 L 221.18 133.05 L 220.95 133.39 L 220.68 133.64 L 220.35 133.86 L 219.96 134.08 L 219.57 134.31 L 219.22 134.52 L 218.88 134.70 L 218.53 134.79 L 218.16 134.83 L 217.76 134.85 L 217.32 134.82 L 216.87 134.75 L 216.50 134.64 L 216.17 134.48 L 215.82 134.23 L 215.52 133.84 L 215.31 133.40 L 215.14 133.00 L 215.06 132.60 L 215.07 132.22 L 215.09 131.85 L 215.12 131.45 L 215.21 131.03 L 215.33 130.65 L 215.48 130.26 L 215.71 129.89 L 216.00 129.57 L 216.34 129.33 L 216.66 129.14 L 217.02 128.98 L 217.45 128.83 L 217.85 128.70 L 218.20 128.66 L 218.55 128.73 L 218.96 128.87 L 219.42 129.00 L 219.81 129.11 L 220.12 129.27 L 220.45 129.53 L 220.84 129.82 L 221.16 130.13 L 221.41 130.48 L 221.58 130.88 L 221.66 131.29 Z" fill="#ffffff" fill-rule="evenodd"/>
<path d="M 205.38 23.11 C 203.88 22.94, 200.23 20.69, 196.41 23.11 C 192.59 25.53, 189.60 34.86, 182.47 37.62 C 175.33 40.39, 159.22 38.66, 153.58 39.70 C 147.93 40.73, 149.43 42.98, 148.60 43.84 C 147.77 44.71, 148.10 44.71, 148.60 44.88 C 149.09 45.05, 150.92 45.05, 151.58 44.88 C 152.25 44.71, 147.77 44.36, 152.58 43.84 C 157.40 43.32, 175.66 41.77, 180.47 41.77 C 185.29 41.77, 181.80 41.94, 181.47 43.84 C 181.14 45.74, 178.98 49.20, 178.48 53.17 C 177.98 57.14, 178.31 65.09, 178.48 67.68 C 178.65 70.27, 179.48 68.03, 179.48 68.72 C 179.48 69.41, 182.96 72.00, 178.48 71.83 C 174.00 71.66, 158.72 68.89, 152.58 67.68 C 146.44 66.47, 144.11 65.09, 141.62 64.57 C 139.13 64.05, 138.30 63.88, 137.64 64.57 C 136.97 65.26, 130.50 66.65, 137.64 68.72 C 144.78 70.79, 172.01 73.56, 180.47 77.01 C 188.94 80.47, 185.95 87.38, 188.44 89.45 C 190.93 91.52, 195.25 90.66, 195.42 89.45 C 195.58 88.24, 191.10 84.79, 189.44 82.20 C 187.78 79.60, 186.45 76.49, 185.45 73.90 C 184.46 71.31, 183.79 70.10, 183.46 66.65 C 183.13 63.19, 183.13 56.63, 183.46 53.17 C 183.79 49.72, 184.29 48.68, 185.45 45.91 C 186.62 43.15, 187.94 39.87, 190.44 36.59 C 192.93 33.30, 197.91 28.29, 200.40 26.22 C 202.89 24.15, 204.55 24.66, 205.38 24.15 C 206.21 23.63, 206.87 23.28, 205.38 23.11 Z M 212.35 50.06 C 210.86 50.41, 210.03 51.79, 209.36 53.17 C 208.70 54.55, 208.03 56.80, 208.37 58.35 C 208.70 59.91, 210.03 61.64, 211.35 62.50 C 212.68 63.36, 214.84 63.88, 216.34 63.54 C 217.83 63.19, 219.49 61.81, 220.32 60.43 C 221.15 59.04, 221.65 56.80, 221.32 55.24 C 220.98 53.69, 219.82 51.96, 218.33 51.10 C 216.83 50.23, 213.85 49.72, 212.35 50.06 Z M 210.36 29.33 C 208.86 29.85, 206.71 30.54, 204.38 32.44 C 202.06 34.34, 198.57 37.28, 196.41 40.73 C 194.25 44.19, 192.26 48.85, 191.43 53.17 C 190.60 57.49, 190.93 62.85, 191.43 66.65 C 191.93 70.45, 192.59 72.87, 194.42 75.98 C 196.25 79.09, 199.23 82.89, 202.39 85.30 C 205.54 87.72, 209.86 89.62, 213.35 90.49 C 216.83 91.35, 221.81 91.18, 223.31 90.49 C 224.80 89.80, 222.31 88.24, 222.31 86.34 C 222.31 84.44, 222.15 81.16, 223.31 79.09 C 224.47 77.01, 227.29 74.77, 229.29 73.90 C 231.28 73.04, 233.27 77.18, 235.26 73.90 C 237.26 70.62, 240.24 58.18, 241.24 54.21 C 242.24 50.23, 241.90 50.92, 241.24 50.06 C 240.58 49.20, 240.24 51.62, 237.26 49.02 C 234.27 46.43, 227.29 37.79, 223.31 34.51 C 219.32 31.23, 215.51 30.19, 213.35 29.33 C 211.19 28.47, 211.85 28.81, 210.36 29.33 Z M 210.36 39.70 C 213.18 39.52, 219.49 39.87, 222.31 40.73 C 225.14 41.60, 225.80 42.80, 227.29 44.88 C 228.79 46.95, 230.61 50.58, 231.28 53.17 C 231.94 55.76, 231.61 58.35, 231.28 60.43 C 230.95 62.50, 230.78 63.54, 229.29 65.61 C 227.79 67.68, 224.47 71.31, 222.31 72.87 C 220.15 74.42, 218.66 74.77, 216.34 74.94 C 214.01 75.11, 210.52 74.59, 208.37 73.90 C 206.21 73.21, 205.21 72.87, 203.39 70.79 C 201.56 68.72, 198.40 64.40, 197.41 61.46 C 196.41 58.53, 197.08 55.42, 197.41 53.17 C 197.74 50.92, 198.07 49.89, 199.40 47.99 C 200.73 46.09, 203.55 43.15, 205.38 41.77 C 207.20 40.39, 207.54 39.87, 210.36 39.70 Z M 261.16 57.32 C 258.34 59.56, 254.19 72.35, 256.18 75.98 C 258.18 79.60, 267.64 77.0, 273.12 77.6 C 278.60 78.8, 284.91 81.4, 289.06 83.0 C 293.21 84.8, 296.5 88.3, 296.8 87.3 C 297.1 86.6, 293.71 80.5, 291.05 78.05 C 288.39 74.42, 285.07 71.31, 282.08 68.72 C 279.10 66.13, 276.60 64.40, 273.12 62.50 C 269.63 60.60, 263.99 55.07, 261.16 57.32 Z M 252.20 53.17 C 251.53 52.65, 249.87 53.00, 249.21 54.21 C 248.55 55.42, 248.88 58.18, 248.21 60.43 C 247.55 62.67, 245.89 65.44, 245.23 67.68 C 244.56 69.93, 244.06 72.69, 244.23 73.90 C 244.40 75.11, 245.56 74.94, 246.22 74.94 C 246.89 74.94, 247.05 76.84, 248.21 73.90 C 249.38 70.97, 252.53 60.77, 253.19 57.32 C 253.86 53.86, 252.86 53.69, 252.20 53.17 Z M 228.29 82.20 C 227.96 83.75, 220.82 83.38, 229.29 84.41 C 237.75 85.45, 270.79 84.59, 279.10 84.41 C 287.40 84.24, 280.59 84.07, 279.10 83.38 C 277.60 84.69, 274.28 83.30, 270.13 84.27 C 265.98 83.23, 257.84 81.68, 254.19 81.16 C 250.54 80.64, 249.38 81.33, 248.21 81.16 C 247.05 80.99, 250.04 80.47, 247.22 80.12 C 244.40 79.78, 234.43 78.74, 231.28 79.09 C 228.12 79.43, 228.62 80.64, 228.29 82.20 Z" fill="#ffffff" fill-rule="evenodd"/>
<path d="M 172.50 57.32 C 172.67 55.93, 174.16 52.48, 169.52 52.13 C 164.87 51.79, 148.76 54.55, 144.61 55.24 C 140.46 55.93, 142.45 55.93, 144.61 56.28 C 146.77 56.63, 153.58 56.63, 157.56 57.32 C 161.55 58.01, 166.03 60.43, 168.52 60.43 C 171.01 60.43, 172.34 58.70, 172.50 57.32 Z" fill="#ffffff" fill-rule="evenodd"/>
<path d="M 207.37 101.89 C 208.37 103.10, 210.52 103.62, 213.35 103.96 C 216.17 104.31, 221.81 105.00, 224.31 103.96 C 226.80 102.93, 229.62 98.61, 228.29 97.74 C 226.96 96.88, 219.82 98.95, 216.34 98.78 C 212.85 98.61, 208.86 96.19, 207.37 96.71 C 205.88 97.23, 206.37 100.68, 207.37 101.89 Z" fill="#ffffff" fill-rule="evenodd"/></g>
</g>
</svg>
