<svg xmlns="http://www.w3.org/2000/svg" width="354" height="295" viewBox="0 0 354 295">
<g shape-rendering="geometricPrecision">
<path d="M 298.8 77.4 C 294.8 71.27, 286.8 62.9, 280.4 58 C 274 53.1, 266.73 50.33, 260.4 48 C 254.07 45.67, 248.4 47.33, 242.4 44 C 236.4 40.67, 229.07 31.5, 224.4 28 C 219.73 24.5, 219.23 24.33, 214.4 23 C 209.57 21.67, 201.23 20.33, 195.4 20 C 189.57 19.67, 186.4 18.67, 179.4 21 C 172.4 23.33, 159.47 29.93, 153.4 34 C 147.33 38.07, 148.07 34.67, 143 45.4 C 137.93 56.13, 138.3 67.2, 123 98.4 C 107.7 129.6, 60.3 210.7, 51.2 232.6 C 47.11 242.46, 67.07 229.74, 68.4 229.8 C 69.74 229.86, 70.91 230.2, 69 233.4 C 64.77 240.5, 41.27 265.83, 43 272.4 C 43.78 275.35, 74.72 276.07, 79.4 272.8 C 86.68 267.71, 99.57 233.93, 105.4 228.8 C 111.23 223.67, 126.74 228.01, 129.4 228.8 C 131.11 229.31, 126.5 233.23, 128.2 235.6 C 130.84 239.29, 149.29 257.2, 152 260.4 C 154.71 263.6, 152.17 262.7, 151.4 263 C 150.9 263.2, 146.18 262.75, 145.4 263 C 143.67 263.57, 142 264.6, 141 266.4 C 140 268.2, 126.67 272.4, 139.4 273.8 C 145.13 274.43, 211.44 275.05, 217.4 274.8 C 223.35 274.54, 219.25 271.36, 218.8 270.4 C 218.1 268.91, 214.25 262.98, 211.4 262 C 208.55 261.02, 198.79 264.87, 194.4 262 C 190.01 259.13, 174.69 242.95, 173.8 237.4 C 172.91 231.85, 182.25 219.65, 186.8 214.4 C 193.3 206.9, 206.13 199.9, 212.8 192.4 C 219.47 184.9, 223.63 176.57, 226.8 169.4 C 229.97 162.23, 231.3 158.73, 231.8 149.4 C 232.3 140.07, 230.97 121.73, 229.8 113.4 C 228.63 105.07, 224.37 103.33, 224.8 99.4 C 225.1 96.65, 224.51 90.92, 232.4 89.8 C 240.29 88.68, 284 89.22, 292.4 89.8 C 304.4 90.63, 303.33 96.87, 304.4 94.8 C 304.88 93.87, 300.6 80.16, 298.8 77.4 Z" fill="#ffffff" stroke="#ffffff" stroke-width="12" stroke-linejoin="round" stroke-linecap="round"/>
<path d="M 298.8 77.4 C 294.8 71.27, 286.8 62.9, 280.4 58 C 274 53.1, 266.73 50.33, 260.4 48 C 254.07 45.67, 248.4 47.33, 242.4 44 C 236.4 40.67, 229.07 31.5, 224.4 28 C 219.73 24.5, 219.23 24.33, 214.4 23 C 209.57 21.67, 201.23 20.33, 195.4 20 C 189.57 19.67, 186.4 18.67, 179.4 21 C 172.4 23.33, 159.47 29.93, 153.4 34 C 147.33 38.07, 148.07 34.67, 143 45.4 C 137.93 56.13, 138.3 67.2, 123 98.4 C 107.7 129.6, 60.3 210.7, 51.2 232.6 C 47.11 242.46, 67.07 229.74, 68.4 229.8 C 69.74 229.86, 70.91 230.2, 69 233.4 C 64.77 240.5, 41.27 265.83, 43 272.4 C 43.78 275.35, 74.72 276.07, 79.4 272.8 C 86.68 267.71, 99.57 233.93, 105.4 228.8 C 111.23 223.67, 126.74 228.01, 129.4 228.8 C 131.11 229.31, 126.5 233.23, 128.2 235.6 C 130.84 239.29, 149.29 257.2, 152 260.4 C 154.71 263.6, 152.17 262.7, 151.4 263 C 150.9 263.2, 146.18 262.75, 145.4 263 C 143.67 263.57, 142 264.6, 141 266.4 C 140 268.2, 126.67 272.4, 139.4 273.8 C 145.13 274.43, 211.44 275.05, 217.4 274.8 C 223.35 274.54, 219.25 271.36, 218.8 270.4 C 218.1 268.91, 214.25 262.98, 211.4 262 C 208.55 261.02, 198.79 264.87, 194.4 262 C 190.01 259.13, 174.69 242.95, 173.8 237.4 C 172.91 231.85, 182.25 219.65, 186.8 214.4 C 193.3 206.9, 206.13 199.9, 212.8 192.4 C 219.47 184.9, 223.63 176.57, 226.8 169.4 C 229.97 162.23, 231.3 158.73, 231.8 149.4 C 232.3 140.07, 230.97 121.73, 229.8 113.4 C 228.63 105.07, 224.37 103.33, 224.8 99.4 C 225.1 96.65, 224.51 90.92, 232.4 89.8 C 240.29 88.68, 284 89.22, 292.4 89.8 C 304.4 90.63, 303.33 96.87, 304.4 94.8 C 304.88 93.87, 300.6 80.16, 298.8 77.4 Z" fill="#000000" />
<path d="M 163.85 120.96 L 160.33 118.83 L 156.63 116.81 L 152.88 114.84 L 149.16 113.03 L 145.33 112.44 L 141.50 112.02 L 137.64 111.64 L 133.81 111.36 L 130.25 112.00 L 126.74 112.73 L 123.24 113.45 L 119.81 114.38 L 116.64 116.30 L 113.48 118.33 L 110.39 120.35 L 107.52 122.59 L 105.92 126.37 L 104.67 130.45 L 103.86 133.71 L 106.27 131.68 L 109.31 128.93 L 112.36 126.19 L 115.38 123.69 L 118.42 122.29 L 121.52 121.16 L 124.68 120.04 L 127.92 119.01 L 131.83 118.84 L 135.88 118.81 L 139.97 118.85 L 143.84 120.19 L 147.70 121.78 L 150.72 124.19 L 153.61 126.72 L 156.49 129.32 L 159.37 131.88 L 162.07 134.61 L 163.66 138.33 L 165.02 142.13 L 166.48 145.98 L 167.70 149.76 L 167.51 153.24 L 167.06 156.64 L 166.53 160.11 L 164.97 163.38 L 163.20 166.66 L 161.51 169.92 L 159.83 173.20 L 158.03 176.46 L 156.36 179.74 L 154.56 182.85 L 151.78 185.41 L 148.97 187.84 L 146.10 190.36 L 143.25 192.89 L 140.42 195.28 L 137.19 196.93 L 134.01 198.46 L 130.76 199.95 L 127.45 201.44 L 124.26 203.06 L 121.01 204.60 L 117.72 206.16 L 114.43 207.64 L 110.75 208.53 L 107.14 209.27 L 103.42 210.07 L 99.72 210.73 L 96.09 211.45 L 92.43 212.26 L 88.76 212.99 L 85.07 213.67 L 81.31 214.41 L 77.67 215.28 L 73.94 216.90 L 70.27 218.57 L 67.55 219.99 L 70.52 219.68 L 74.40 219.09 L 78.22 218.50 L 82.01 218.01 L 85.87 217.45 L 89.75 217.00 L 93.55 216.46 L 97.43 216.01 L 101.28 215.50 L 105.14 214.93 L 108.95 214.28 L 112.78 213.36 L 116.56 212.39 L 120.45 211.48 L 124.22 210.52 L 128.04 209.56 L 131.86 208.47 L 135.10 206.55 L 138.27 204.45 L 141.46 202.39 L 144.56 200.29 L 147.68 198.24 L 150.83 196.10 L 153.91 193.95 L 157.08 191.84 L 160.23 189.81 L 163.31 187.58 L 165.75 184.25 L 168.06 180.78 L 170.43 177.30 L 172.65 173.72 L 173.91 170.02 L 175.13 166.30 L 176.25 162.61 L 177.28 158.90 L 178.26 155.26 L 177.91 151.78 L 177.45 148.31 L 176.95 144.84 L 176.51 141.47 L 175.79 138.11 L 173.98 135.19 L 172.01 132.39 L 169.93 129.62 L 167.91 126.80 L 165.91 123.89 Z" fill="#ffffff" fill-rule="evenodd"/>
<path d="M 214.3 147.1 L 213.6 148.3 L 213.4 149.7 L 213.4 151.4 L 213.6 153.1 L 213.8 155.0 L 214.0 156.9 L 214.2 158.7 L 214.3 160.4 L 214.2 161.9 L 214.0 163.4 L 213.7 164.9 L 213.5 166.4 L 213.3 167.9 L 213.0 169.4 L 212.6 170.8 L 212.1 172.2 L 211.5 173.5 L 210.8 174.7 L 210.1 175.8 L 209.4 177.0 L 208.8 178.4 L 208.2 179.9 L 207.6 181.4 L 207.0 182.8 L 206.5 184.2 L 206.1 185.3 L 206.4 186.6 L 207.6 187.4 L 208.7 187.1 L 209.7 186.5 L 210.8 185.6 L 212.0 184.5 L 213.1 183.3 L 214.1 181.8 L 215.2 180.3 L 216.1 178.8 L 216.9 177.2 L 217.6 175.7 L 218.2 174.1 L 218.7 172.5 L 219.1 170.8 L 219.4 169.1 L 219.6 167.3 L 219.8 165.6 L 220.1 163.9 L 220.3 162.1 L 220.4 160.2 L 220.3 158.1 L 220.0 156.1 L 219.5 154.1 L 218.8 152.2 L 218.1 150.5 L 217.4 149.0 L 216.7 147.7 L 215.7 146.9 Z" fill="#ffffff" fill-rule="evenodd"/>
<path d="M 145.61 51.10 C 150.92 51.44, 173.67 48.33, 179.48 47.99 C 185.29 47.64, 180.47 48.33, 180.47 49.02 C 180.47 49.72, 179.64 48.85, 179.48 52.13 C 179.31 55.42, 179.31 65.61, 179.48 68.72 C 179.64 71.83, 180.47 70.27, 180.47 70.79 C 180.47 71.31, 180.64 71.66, 179.48 71.83 C 178.31 72.00, 174.66 72.00, 173.50 71.83 C 172.34 71.66, 177.82 71.66, 172.50 70.79 C 167.19 69.93, 146.94 67.51, 141.62 66.65 C 136.31 65.78, 141.29 65.61, 140.63 65.61 C 139.96 65.61, 138.14 65.96, 137.64 66.65 C 137.14 67.34, 132.32 68.20, 137.64 69.76 C 142.95 71.31, 163.37 74.94, 169.52 75.98 C 175.66 77.01, 173.50 75.80, 174.50 75.98 C 175.49 76.15, 174.33 76.84, 175.49 77.01 C 176.65 77.18, 178.98 74.59, 181.47 77.01 C 183.96 79.43, 188.11 88.41, 190.44 91.52 C 192.76 94.63, 193.26 94.98, 195.42 95.67 C 197.57 96.36, 201.73 94.63, 203.39 95.67 C 205.05 96.71, 204.38 100.85, 205.38 101.89 C 206.37 102.93, 208.20 101.54, 209.36 101.89 C 210.52 102.24, 209.53 103.62, 212.35 103.96 C 215.17 104.31, 223.48 104.65, 226.30 103.96 C 229.12 103.27, 228.79 100.85, 229.29 99.82 C 229.78 98.78, 231.44 97.92, 229.29 97.74 C 227.13 97.57, 219.99 98.95, 216.34 98.78 C 212.68 98.61, 209.86 97.57, 207.37 96.71 C 204.88 95.84, 203.88 95.50, 201.39 93.60 C 198.90 91.70, 194.92 88.41, 192.43 85.30 C 189.94 82.20, 187.78 78.05, 186.45 74.94 C 185.12 71.83, 184.79 70.27, 184.46 66.65 C 184.13 63.02, 184.13 56.63, 184.46 53.17 C 184.79 49.72, 185.29 48.68, 186.45 45.91 C 187.61 43.15, 189.27 39.52, 191.43 36.59 C 193.59 33.65, 197.24 30.19, 199.40 28.29 C 201.56 26.39, 203.72 26.05, 204.38 25.18 C 205.05 24.32, 204.55 23.46, 203.39 23.11 C 202.22 22.76, 199.90 21.73, 197.41 23.11 C 194.92 24.49, 191.10 28.12, 188.44 31.40 C 185.79 34.68, 186.45 40.56, 181.47 42.80 C 176.49 45.05, 162.54 44.36, 158.56 44.88 C 154.57 45.40, 159.39 45.74, 157.56 45.91 C 155.73 46.09, 149.59 45.05, 147.60 45.91 C 145.61 46.78, 140.29 50.75, 145.61 51.10 Z M 213.35 43.84 C 210.86 45.05, 207.54 48.51, 206.37 51.10 C 205.21 53.69, 205.71 56.97, 206.37 59.39 C 207.04 61.81, 209.03 64.23, 210.36 65.61 C 211.69 66.99, 212.85 67.34, 214.34 67.68 C 215.84 68.03, 217.50 68.20, 219.32 67.68 C 221.15 67.16, 223.97 65.61, 225.30 64.57 C 226.63 63.54, 226.80 63.71, 227.29 61.46 C 227.79 59.22, 229.29 54.03, 228.29 51.10 C 227.29 48.16, 223.81 45.05, 221.32 43.84 C 218.83 42.63, 215.84 42.63, 213.35 43.84 Z M 244.23 57.32 C 242.40 57.66, 241.74 61.29, 243.23 62.50 C 244.73 63.71, 251.37 64.92, 253.19 64.57 C 255.02 64.23, 255.69 61.64, 254.19 60.43 C 252.70 59.22, 246.06 56.97, 244.23 57.32 Z M 262.16 83.23 C 261.50 83.58, 260.83 85.65, 261.16 86.34 C 261.50 87.03, 263.49 87.72, 264.15 87.38 C 264.82 87.03, 265.48 84.96, 265.15 84.27 C 264.82 83.58, 262.82 82.89, 262.16 83.23 Z M 253.19 83.23 C 252.53 83.58, 251.87 85.65, 252.20 86.34 C 252.53 87.03, 254.52 87.72, 255.19 87.38 C 255.85 87.03, 256.52 84.96, 256.18 84.27 C 255.85 83.58, 253.86 82.89, 253.19 83.23 Z M 243.23 83.23 C 242.73 83.75, 242.90 86.69, 243.23 87.38 C 243.56 88.07, 244.73 87.90, 245.23 87.38 C 245.72 86.86, 246.55 84.96, 246.22 84.27 C 245.89 83.58, 243.73 82.71, 243.23 83.23 Z M 233.27 83.23 C 232.77 83.75, 232.94 85.65, 233.27 86.34 C 233.60 87.03, 234.77 87.90, 235.26 87.38 C 235.76 86.86, 236.59 83.92, 236.26 83.23 C 235.93 82.54, 233.77 82.71, 233.27 83.23 Z" fill="#ffffff" fill-rule="evenodd"/>
<path d="M 226.1 89.2 L 226.1 88.4 L 226.1 87.2 L 226.2 85.8 L 226.2 84.4 L 226.3 83.0 L 226.4 81.8 L 226.7 80.8 L 226.9 79.8 L 227.2 78.8 L 227.5 78.0 L 227.7 77.4 L 228.0 77.0 L 228.4 76.6 L 228.9 76.2 L 229.8 75.9 L 231.0 75.7 L 232.5 75.5 L 234.1 75.4 L 236.0 75.4 L 237.9 75.5 L 239.8 75.6 L 241.8 75.7 L 243.9 75.9 L 246.1 76.1 L 248.3 76.4 L 250.7 76.8 L 253.1 77.2 L 255.6 77.7 L 258.3 78.2 L 261.2 78.8 L 264.2 79.5 L 267.3 80.2 L 270.2 80.9 L 273.0 81.6 L 275.6 82.3 L 278.0 83.0 L 280.3 83.7 L 282.4 84.4 L 284.5 85.1 L 286.4 85.7 L 288.1 86.4 L 289.7 86.9 L 291.0 87.3 L 292.2 87.7 L 293.1 88.1 L 294.0 88.4 L 294.7 88.6 L 295.3 88.8 L 295.8 89.1 L 296.2 87.9 L 295.8 87.7 L 295.2 87.5 L 294.6 87.1 L 293.7 86.7 L 292.8 86.2 L 291.7 85.7 L 290.3 85.1 L 288.8 84.5 L 287.1 83.8 L 285.3 83.0 L 283.2 82.2 L 281.1 81.3 L 278.8 80.5 L 276.4 79.7 L 273.8 78.9 L 271.0 78.1 L 268.0 77.3 L 265.0 76.5 L 262.0 75.7 L 259.1 75.0 L 256.4 74.3 L 253.8 73.8 L 251.4 73.2 L 249.0 72.8 L 246.7 72.3 L 244.4 72.0 L 242.2 71.7 L 240.2 71.4 L 238.1 71.2 L 236.1 71.1 L 234.2 71.0 L 232.3 71.0 L 230.5 71.1 L 228.7 71.3 L 227.1 71.8 L 225.6 72.5 L 224.4 73.5 L 223.4 74.6 L 222.7 75.8 L 222.2 77.0 L 221.8 78.1 L 221.3 79.2 L 220.9 80.6 L 220.6 82.2 L 220.4 83.9 L 220.3 85.4 L 220.1 86.8 L 220.0 88.0 L 219.9 88.8 Z" fill="#ffffff" fill-rule="evenodd"/>
</g>
</svg>